<svg width="450.424" height="486.945" viewBox="0 0 119.175 128.837" xmlns="http://www.w3.org/2000/svg"><g style="fill:#ff6f00;fill-opacity:1"><path style="fill:#ff6f00;fill-opacity:1;stroke:none" d="M1.531-4.281c-.922 0-1.187.86-1.265 1.375.046.062.14.078.234.078.234-.594.344-.766.828-.766h.563c-.125 1.078-.22 2.203-.22 2.75 0 .719.282.938.829.938.438 0 .844-.36 1.188-.797-.032-.11-.094-.156-.188-.188-.406.422-.703.47-.875.47-.203 0-.313-.204-.313-.657 0-.547.063-1.422.157-2.516h1.015c.407 0 .641-.219.829-.562l-.11-.125zm0 0" transform="translate(-7.822 126.077) scale(29.44855)"/></g></svg>