<svg xmlns="http://www.w3.org/2000/svg" xmlns:xlink="http://www.w3.org/1999/xlink" width="614.4" height="460.8" viewBox="0 0 460.8 345.6"><defs><style>*{stroke-linejoin:round;stroke-linecap:butt}</style></defs><g id="figure_1"><path id="patch_1" d="M0 345.6h460.8V0H0z" style="fill:#282a36"/><g id="axes_1"><path id="patch_2" d="M57.6 307.584h357.12V41.472H57.6z" style="fill:#282a36"/><path id="PolyCollection_1" d="M73.833 295.488v-9.305l1.623-.181 1.623-.187 1.624-.192 1.623-.198 1.623-.204 1.623-.21 1.624-.217 1.623-.223 1.623-.23 1.623-.237 1.624-.245 1.623-.253 1.623-.261 1.624-.27 1.623-.278 1.623-.288 1.623-.297 1.624-.307 1.623-.318 1.623-.33 1.623-.34 1.624-.353 1.623-.366 1.623-.378 1.624-.393 1.623-.407 1.623-.423 1.623-.439 1.624-.455 1.623-.473 1.623-.492 1.623-.511 1.624-.532 1.623-.554 1.623-.576 1.624-.6 1.623-.626 1.623-.652 1.623-.68 1.624-.711 1.623-.742 1.623-.775 1.623-.81 1.624-.848 1.623-.886 1.623-.93 1.624-.972 1.623-1.02 1.623-1.07 1.623-1.123 1.624-1.18 1.623-1.239 1.623-1.303 1.623-1.371 1.624-1.443 1.623-1.52 1.623-1.603 1.624-1.69 1.623-1.784 1.623-1.883 1.623-1.99 1.624-2.103 1.623-2.225 1.623-2.355 1.623-2.493 1.624-2.64 1.623-2.799 1.623-2.966 1.624-3.146 1.623-3.336 1.623-3.539 1.623-3.754 1.624-3.981 1.623-4.222 1.623-4.475 1.623-4.74 1.624-5.016 1.623-5.302 1.623-5.597 1.624-5.897 1.623-6.199 1.623-6.498 1.623-6.79 1.624-7.065 1.623-7.317 1.623-7.533 1.623-7.705 1.624-7.815 1.623-7.853 1.623-7.801 1.624-7.645 1.623-7.37 1.623-6.968 1.623-6.426 1.624-5.744 1.623-4.926 1.623-3.982 1.623-2.928 1.624-1.792 1.623-.603 1.623.603 1.624 1.792 1.623 2.928 1.623 3.982 1.623 4.926 1.624 5.744 1.623 6.426 1.623 6.967 1.623 7.371 1.624 7.645 1.623 7.8 1.623 7.854 1.624 7.815 1.623 7.705 1.623 7.533 1.623 7.317 1.624 7.065 1.623 6.79 1.623 6.498 1.623 6.199 1.624 5.897 1.623 5.597 1.623 5.302 1.624 5.016 1.623 4.74 1.623 4.475 1.623 4.222 1.624 3.981 1.623 3.754 1.623 3.54 1.623 3.335 1.624 3.146 1.623 2.966 1.623 2.799 1.624 2.64 1.623 2.493 1.623 2.355 1.623 2.225 1.624 2.103 1.623 1.99 1.623 1.883 1.623 1.784 1.624 1.69 1.623 1.602 1.623 1.52 1.624 1.444 1.623 1.37 1.623 1.304 1.623 1.24 1.624 1.179 1.623 1.123 1.623 1.07 1.623 1.02 1.624.973 1.623.929 1.623.886 1.624.848 1.623.81 1.623.775 1.623.742 1.624.71 1.623.68 1.623.653 1.623.626 1.624.6 1.623.576 1.623.554 1.624.532 1.623.511 1.623.492 1.623.473 1.624.455 1.623.44 1.623.422 1.623.407 1.624.393 1.623.378 1.623.366 1.624.353 1.623.34 1.623.33 1.623.318 1.624.307 1.623.297 1.623.288 1.623.278 1.624.27 1.623.26 1.623.254 1.624.245 1.623.237 1.623.23 1.623.223 1.624.217 1.623.21 1.623.204 1.623.198 1.624.192 1.623.187 1.623.181v9.305H73.833z" clip-path="url(#p38a56a34f7)" style="fill:#8be9fd"/><g id="matplotlib.axis_1"><g id="xtick_1"><g id="line2d_1"><defs><path id="ma3914f2934" d="M0 0v3.5" style="stroke:#f8f8f2;stroke-width:.8"/></defs><use xlink:href="#ma3914f2934" x="106.298" y="307.584" style="fill:#f8f8f2;stroke:#f8f8f2;stroke-width:.8"/></g><g id="text_1" style="fill:#f8f8f2" transform="matrix(.1 0 0 -.1 98.927 322.182)"><defs><path id="DejaVuSans-2212" d="M678 2272h4006v-531H678v531z" transform="scale(.01563)"/><path id="DejaVuSans-34" d="M2419 4116 825 1625h1594v2491zm-166 550h794V1625h666v-525h-666V0h-628v1100H313v609l1940 2957z" transform="scale(.01563)"/></defs><use xlink:href="#DejaVuSans-2212"/><use xlink:href="#DejaVuSans-34" x="83.789"/></g></g><g id="xtick_2"><use xlink:href="#ma3914f2934" id="line2d_2" x="171.229" y="307.584" style="fill:#f8f8f2;stroke:#f8f8f2;stroke-width:.8"/><g id="text_2" style="fill:#f8f8f2" transform="matrix(.1 0 0 -.1 163.858 322.182)"><defs><path id="DejaVuSans-32" d="M1228 531h2203V0H469v531q359 372 979 998 621 627 780 809 303 340 423 576 121 236 121 464 0 372-261 606-261 235-680 235-297 0-627-103-329-103-704-313v638q381 153 712 231 332 78 607 78 725 0 1156-363 431-362 431-968 0-288-108-546-107-257-392-607-78-91-497-524-418-433-1181-1211z" transform="scale(.01563)"/></defs><use xlink:href="#DejaVuSans-2212"/><use xlink:href="#DejaVuSans-32" x="83.789"/></g></g><g id="xtick_3"><use xlink:href="#ma3914f2934" id="line2d_3" x="236.16" y="307.584" style="fill:#f8f8f2;stroke:#f8f8f2;stroke-width:.8"/><g id="text_3" style="fill:#f8f8f2" transform="matrix(.1 0 0 -.1 232.979 322.182)"><defs><path id="DejaVuSans-30" d="M2034 4250q-487 0-733-480-245-479-245-1442 0-959 245-1439 246-480 733-480 491 0 736 480 246 480 246 1439 0 963-246 1442-245 480-736 480zm0 500q785 0 1199-621 414-620 414-1801 0-1178-414-1799Q2819-91 2034-91q-784 0-1198 620-414 621-414 1799 0 1181 414 1801 414 621 1198 621z" transform="scale(.01563)"/></defs><use xlink:href="#DejaVuSans-30"/></g></g><g id="xtick_4"><use xlink:href="#ma3914f2934" id="line2d_4" x="301.091" y="307.584" style="fill:#f8f8f2;stroke:#f8f8f2;stroke-width:.8"/><use xlink:href="#DejaVuSans-32" id="text_4" style="fill:#f8f8f2" transform="matrix(.1 0 0 -.1 297.91 322.182)"/></g><g id="xtick_5"><use xlink:href="#ma3914f2934" id="line2d_5" x="366.022" y="307.584" style="fill:#f8f8f2;stroke:#f8f8f2;stroke-width:.8"/><use xlink:href="#DejaVuSans-34" id="text_5" style="fill:#f8f8f2" transform="matrix(.1 0 0 -.1 362.84 322.182)"/></g></g><g id="matplotlib.axis_2"><g id="ytick_1"><g id="line2d_6"><defs><path id="md590fb65da" d="M0 0h-3.5" style="stroke:#f8f8f2;stroke-width:.8"/></defs><use xlink:href="#md590fb65da" x="57.6" y="295.488" style="fill:#f8f8f2;stroke:#f8f8f2;stroke-width:.8"/></g><g id="text_6" style="fill:#f8f8f2" transform="matrix(.1 0 0 -.1 34.697 299.287)"><defs><path id="DejaVuSans-2e" d="M684 794h660V0H684v794z" transform="scale(.01563)"/></defs><use xlink:href="#DejaVuSans-30"/><use xlink:href="#DejaVuSans-2e" x="63.623"/><use xlink:href="#DejaVuSans-30" x="95.41"/></g></g><g id="ytick_2"><use xlink:href="#md590fb65da" id="line2d_7" x="57.6" y="247.104" style="fill:#f8f8f2;stroke:#f8f8f2;stroke-width:.8"/><g id="text_7" style="fill:#f8f8f2" transform="matrix(.1 0 0 -.1 34.697 250.903)"><use xlink:href="#DejaVuSans-30"/><use xlink:href="#DejaVuSans-2e" x="63.623"/><use xlink:href="#DejaVuSans-32" x="95.41"/></g></g><g id="ytick_3"><use xlink:href="#md590fb65da" id="line2d_8" x="57.6" y="198.72" style="fill:#f8f8f2;stroke:#f8f8f2;stroke-width:.8"/><g id="text_8" style="fill:#f8f8f2" transform="matrix(.1 0 0 -.1 34.697 202.52)"><use xlink:href="#DejaVuSans-30"/><use xlink:href="#DejaVuSans-2e" x="63.623"/><use xlink:href="#DejaVuSans-34" x="95.41"/></g></g><g id="ytick_4"><use xlink:href="#md590fb65da" id="line2d_9" x="57.6" y="150.336" style="fill:#f8f8f2;stroke:#f8f8f2;stroke-width:.8"/><g id="text_9" style="fill:#f8f8f2" transform="matrix(.1 0 0 -.1 34.697 154.135)"><defs><path id="DejaVuSans-36" d="M2113 2584q-425 0-674-291-248-290-248-796 0-503 248-796 249-292 674-292t673 292q248 293 248 796 0 506-248 796-248 291-673 291zm1253 1979v-575q-238 112-480 171-242 60-480 60-625 0-955-422-329-422-376-1275 184 272 462 417 279 145 613 145 703 0 1111-427 408-426 408-1160 0-719-425-1154Q2819-91 2113-91q-810 0-1238 620-428 621-428 1799 0 1106 525 1764t1409 658q238 0 480-47t505-140z" transform="scale(.01563)"/></defs><use xlink:href="#DejaVuSans-30"/><use xlink:href="#DejaVuSans-2e" x="63.623"/><use xlink:href="#DejaVuSans-36" x="95.41"/></g></g><g id="ytick_5"><use xlink:href="#md590fb65da" id="line2d_10" x="57.6" y="101.952" style="fill:#f8f8f2;stroke:#f8f8f2;stroke-width:.8"/><g id="text_10" style="fill:#f8f8f2" transform="matrix(.1 0 0 -.1 34.697 105.751)"><defs><path id="DejaVuSans-38" d="M2034 2216q-450 0-708-241-257-241-257-662 0-422 257-663 258-241 708-241t709 242q260 243 260 662 0 421-258 662-257 241-711 241zm-631 268q-406 100-633 378-226 279-226 679 0 559 398 884 399 325 1092 325 697 0 1094-325t397-884q0-400-227-679-226-278-629-378 456-106 710-416 255-309 255-755 0-679-414-1042Q2806-91 2034-91q-771 0-1186 362-414 363-414 1042 0 446 256 755 257 310 713 416zm-231 997q0-362 226-565 227-203 636-203 407 0 636 203 230 203 230 565 0 363-230 566-229 203-636 203-409 0-636-203-226-203-226-566z" transform="scale(.01563)"/></defs><use xlink:href="#DejaVuSans-30"/><use xlink:href="#DejaVuSans-2e" x="63.623"/><use xlink:href="#DejaVuSans-38" x="95.41"/></g></g><g id="ytick_6"><use xlink:href="#md590fb65da" id="line2d_11" x="57.6" y="53.568" style="fill:#f8f8f2;stroke:#f8f8f2;stroke-width:.8"/><g id="text_11" style="fill:#f8f8f2" transform="matrix(.1 0 0 -.1 34.697 57.367)"><defs><path id="DejaVuSans-31" d="M794 531h1031v3560L703 3866v575l1116 225h631V531h1031V0H794v531z" transform="scale(.01563)"/></defs><use xlink:href="#DejaVuSans-31"/><use xlink:href="#DejaVuSans-2e" x="63.623"/><use xlink:href="#DejaVuSans-30" x="95.41"/></g></g></g><path id="line2d_12" d="m73.833 286.183 9.74-1.172 9.739-1.405 8.116-1.394 8.117-1.648 6.493-1.544 6.493-1.79 4.87-1.535 4.87-1.73 4.87-1.959 4.87-2.227 4.869-2.544 3.247-1.902 3.246-2.09 3.247-2.303 3.246-2.542 3.247-2.814 3.246-3.123 3.247-3.474 3.246-3.873 3.247-4.328 3.246-4.848 3.247-5.439 3.247-6.112 3.246-6.875 3.247-7.735 3.246-8.697 3.247-9.756 3.246-10.899 3.247-12.096 3.246-13.288 3.247-14.382 4.87-23.053 4.87-23.299 3.246-14.338 1.623-6.426 1.624-5.744 1.623-4.926 1.623-3.982 1.623-2.928 1.624-1.792 1.623-.603 1.623.603 1.624 1.792 1.623 2.928 1.623 3.982 1.623 4.926 1.624 5.744 1.623 6.426 3.246 14.338 6.494 31.114 3.246 15.238 3.247 14.382 3.246 13.288 3.247 12.096 3.246 10.9 3.247 9.755 3.246 8.697 3.247 7.735 3.246 6.875 3.247 6.112 3.247 5.44 3.246 4.847 3.247 4.328 3.246 3.873 3.247 3.474 3.246 3.123 3.247 2.814 3.246 2.542 3.247 2.303 3.246 2.09 3.247 1.902 4.87 2.544 4.87 2.227 4.87 1.959 4.87 1.73 4.87 1.535 6.492 1.79 6.493 1.544 6.493 1.34 8.117 1.44 8.116 1.227 9.74 1.244 3.246.368h0" clip-path="url(#p38a56a34f7)" style="fill:none;stroke:#8be9fd;stroke-width:1.5;stroke-linecap:square"/><path id="patch_3" d="M57.6 307.584V41.472" style="fill:none;stroke:#f8f8f2;stroke-width:.8;stroke-linejoin:miter;stroke-linecap:square"/><path id="patch_4" d="M414.72 307.584V41.472" style="fill:none;stroke:#f8f8f2;stroke-width:.8;stroke-linejoin:miter;stroke-linecap:square"/><path id="patch_5" d="M57.6 307.584h357.12" style="fill:none;stroke:#f8f8f2;stroke-width:.8;stroke-linejoin:miter;stroke-linecap:square"/><path id="patch_6" d="M57.6 41.472h357.12" style="fill:none;stroke:#f8f8f2;stroke-width:.8;stroke-linejoin:miter;stroke-linecap:square"/><g id="text_12" style="fill:#f8f8f2" transform="matrix(.12 0 0 -.12 196.44 35.232)"><defs><path id="DejaVuSansDisplay-222b" d="M2134 5525q38 738 394 1031 356 294 690 294 335 0 615-275t367-897l-656-65q-75 575-325 575-313 0-350-775L2581-597q-34-737-394-1031-359-294-690-294-334 0-614 275T516-750l656 66q75-575 325-575 312 0 350 771l287 6013z" transform="scale(.01563)"/><path id="DejaVuSans-221e" d="M2916 1091q-97 112-250 375-210-375-394-541-231-200-591-200-422 0-700 316-293 331-293 878 0 525 293 881 263 316 707 316 228 0 396-94 197-103 332-281 125-160 250-375 209 375 393 540 232 200 591 200 422 0 700-315 294-332 294-878 0-525-294-882-262-315-706-315-228 0-397 93-169 85-331 282zm-1269 43q516 0 825 750-397 819-825 819-313 0-472-225-172-240-172-559 0-350 172-566 175-219 472-219zm2037 1563q-465 0-825-750 394-819 825-819 313 0 472 225 172 241 172 560 0 350-172 565-175 219-472 219z" transform="scale(.01563)"/><path id="DejaVuSans-2f" d="M1625 4666h531L531-594H0l1625 5260z" transform="scale(.01563)"/><path id="DejaVuSans-28" d="M1984 4856q-418-718-622-1422-203-703-203-1425 0-721 205-1429t620-1424h-500Q1016-109 783 600T550 2009q0 697 231 1403 232 707 703 1444h500z" transform="scale(.01563)"/><path id="DejaVuSans-2b" d="M2944 4013V2272h1740v-531H2944V0h-525v1741H678v531h1741v1741h525z" transform="scale(.01563)"/><path id="DejaVuSans-Oblique-78" d="M3841 3500 2234 1784 3219 0h-660l-740 1388L531 0h-697l1722 1844-915 1656h659l672-1266 1172 1266h697z" transform="scale(.01563)"/><path id="DejaVuSans-29" d="M513 4856h500q468-737 701-1444 233-706 233-1403 0-700-233-1409T1013-844H513q415 716 620 1424t205 1429q0 722-205 1425-205 704-620 1422z" transform="scale(.01563)"/></defs><use xlink:href="#DejaVuSansDisplay-222b" transform="translate(0 .762)"/><use xlink:href="#DejaVuSans-221e" transform="matrix(.7 0 0 .7 86.744 85.919)"/><use xlink:href="#DejaVuSans-2212" transform="matrix(.7 0 0 .7 71.76 -51.144)"/><use xlink:href="#DejaVuSans-221e" transform="matrix(.7 0 0 .7 130.412 -51.144)"/><use xlink:href="#DejaVuSans-31" transform="translate(188.723 .762)"/><use xlink:href="#DejaVuSans-2f" transform="translate(252.346 .762)"/><use xlink:href="#DejaVuSans-28" transform="translate(286.037 .762)"/><use xlink:href="#DejaVuSans-31" transform="translate(325.05 .762)"/><use xlink:href="#DejaVuSans-2b" transform="translate(408.156 .762)"/><use xlink:href="#DejaVuSans-Oblique-78" transform="translate(511.428 .762)"/><use xlink:href="#DejaVuSans-32" transform="matrix(.7 0 0 .7 575.074 39.044)"/><use xlink:href="#DejaVuSans-29" transform="translate(622.344 .762)"/></g></g></g><defs><clipPath id="p38a56a34f7"><path d="M57.6 41.472h357.12v266.112H57.6z"/></clipPath></defs></svg>