<?xml version="1.0" encoding="utf-8" standalone="no"?>
<!DOCTYPE svg PUBLIC "-//W3C//DTD SVG 1.1//EN"
  "http://www.w3.org/Graphics/SVG/1.1/DTD/svg11.dtd">
<svg xmlns:xlink="http://www.w3.org/1999/xlink" width="460.8pt" height="345.6pt" viewBox="0 0 460.8 345.6" xmlns="http://www.w3.org/2000/svg" version="1.1">
 <metadata>
  <rdf:RDF xmlns:dc="http://purl.org/dc/elements/1.1/" xmlns:cc="http://creativecommons.org/ns#" xmlns:rdf="http://www.w3.org/1999/02/22-rdf-syntax-ns#">
   <cc:Work>
    <dc:type rdf:resource="http://purl.org/dc/dcmitype/StillImage"/>
    <dc:date>2026-10-08T13:15:19.328570</dc:date>
    <dc:format>image/svg+xml</dc:format>
    <dc:creator>
     <cc:Agent>
      <dc:title>Matplotlib v3.11.2, https://matplotlib.org/</dc:title>
     </cc:Agent>
    </dc:creator>
   </cc:Work>
  </rdf:RDF>
 </metadata>
 <defs>
  <style type="text/css">*{stroke-linejoin: round; stroke-linecap: butt}</style>
 </defs>
 <g id="figure_1">
  <g id="patch_1">
   <path d="M 0 345.6 
L 460.8 345.6 
L 460.8 0 
L 0 0 
z
" style="fill: #ffffff"/>
  </g>
  <g id="axes_1">
   <g id="patch_2">
    <path d="M 57.6 307.584 
L 414.72 307.584 
L 414.72 41.472 
L 57.6 41.472 
z
" style="fill: #ffffff"/>
   </g>
   <g id="FillBetweenPolyCollection_1">
    <path d="M 73.832727 295.488 
L 73.832727 53.568 
L 75.472397 123.993294 
L 77.112066 155.108215 
L 78.751736 173.605801 
L 80.391405 186.19408 
L 82.031074 195.459946 
L 83.670744 202.64041 
L 85.310413 208.411151 
L 86.950083 213.176527 
L 88.589752 217.195257 
L 90.229421 220.641574 
L 91.869091 223.63767 
L 93.50876 226.272106 
L 95.14843 228.61084 
L 96.788099 230.70414 
L 98.427769 232.591076 
L 100.067438 234.302529 
L 101.707107 235.863278 
L 103.346777 237.293462 
L 104.986446 238.609641 
L 106.626116 239.825572 
L 108.265785 240.952792 
L 109.905455 242.001059 
L 111.545124 242.978684 
L 113.184793 243.892802 
L 114.824463 244.749571 
L 116.464132 245.554342 
L 118.103802 246.311788 
L 119.743471 247.026008 
L 121.38314 247.70062 
L 123.02281 248.338823 
L 124.662479 248.943466 
L 126.302149 249.517089 
L 127.941818 250.061967 
L 129.581488 250.580144 
L 131.221157 251.073463 
L 132.860826 251.543589 
L 134.500496 251.992031 
L 136.140165 252.420162 
L 137.779835 252.82923 
L 139.419504 253.220377 
L 141.059174 253.594647 
L 142.698843 253.952996 
L 144.338512 254.296304 
L 145.978182 254.62538 
L 147.617851 254.940971 
L 149.257521 255.243766 
L 150.89719 255.534402 
L 152.53686 255.813469 
L 154.176529 256.081517 
L 155.816198 256.339053 
L 157.455868 256.586551 
L 159.095537 256.824452 
L 160.735207 257.053166 
L 162.374876 257.273079 
L 164.014545 257.484548 
L 165.654215 257.687907 
L 167.293884 257.883472 
L 168.933554 258.071535 
L 170.573223 258.252373 
L 172.212893 258.426244 
L 173.852562 258.59339 
L 175.492231 258.75404 
L 177.131901 258.908407 
L 178.77157 259.056693 
L 180.41124 259.199088 
L 182.050909 259.33577 
L 183.690579 259.466907 
L 185.330248 259.592656 
L 186.969917 259.713167 
L 188.609587 259.828579 
L 190.249256 259.939025 
L 191.888926 260.044629 
L 193.528595 260.145507 
L 195.168264 260.24177 
L 196.807934 260.33352 
L 198.447603 260.420856 
L 200.087273 260.503869 
L 201.726942 260.582643 
L 203.366612 260.65726 
L 205.006281 260.727796 
L 206.64595 260.794319 
L 208.28562 260.856896 
L 209.925289 260.915588 
L 211.564959 260.970453 
L 213.204628 261.021542 
L 214.844298 261.068904 
L 216.483967 261.112584 
L 218.123636 261.152623 
L 219.763306 261.189059 
L 221.402975 261.221925 
L 223.042645 261.251251 
L 224.682314 261.277065 
L 226.321983 261.299389 
L 227.961653 261.318245 
L 229.601322 261.33365 
L 231.240992 261.345617 
L 232.880661 261.354157 
L 234.520331 261.359278 
L 236.16 261.360984 
L 237.799669 261.359278 
L 239.439339 261.354157 
L 241.079008 261.345617 
L 242.718678 261.33365 
L 244.358347 261.318245 
L 245.998017 261.299389 
L 247.637686 261.277065 
L 249.277355 261.251251 
L 250.917025 261.221925 
L 252.556694 261.189059 
L 254.196364 261.152623 
L 255.836033 261.112584 
L 257.475702 261.068904 
L 259.115372 261.021542 
L 260.755041 260.970453 
L 262.394711 260.915588 
L 264.03438 260.856896 
L 265.67405 260.794319 
L 267.313719 260.727796 
L 268.953388 260.65726 
L 270.593058 260.582643 
L 272.232727 260.503869 
L 273.872397 260.420856 
L 275.512066 260.33352 
L 277.151736 260.24177 
L 278.791405 260.145507 
L 280.431074 260.044629 
L 282.070744 259.939025 
L 283.710413 259.828579 
L 285.350083 259.713167 
L 286.989752 259.592656 
L 288.629421 259.466907 
L 290.269091 259.33577 
L 291.90876 259.199088 
L 293.54843 259.056693 
L 295.188099 258.908407 
L 296.827769 258.75404 
L 298.467438 258.59339 
L 300.107107 258.426244 
L 301.746777 258.252373 
L 303.386446 258.071535 
L 305.026116 257.883472 
L 306.665785 257.687907 
L 308.305455 257.484548 
L 309.945124 257.273079 
L 311.584793 257.053166 
L 313.224463 256.824452 
L 314.864132 256.586551 
L 316.503802 256.339053 
L 318.143471 256.081517 
L 319.78314 255.813469 
L 321.42281 255.534402 
L 323.062479 255.243766 
L 324.702149 254.940971 
L 326.341818 254.62538 
L 327.981488 254.296304 
L 329.621157 253.952996 
L 331.260826 253.594647 
L 332.900496 253.220377 
L 334.540165 252.82923 
L 336.179835 252.420162 
L 337.819504 251.992031 
L 339.459174 251.543589 
L 341.098843 251.073463 
L 342.738512 250.580144 
L 344.378182 250.061967 
L 346.017851 249.517089 
L 347.657521 248.943466 
L 349.29719 248.338823 
L 350.93686 247.70062 
L 352.576529 247.026008 
L 354.216198 246.311788 
L 355.855868 245.554342 
L 357.495537 244.749571 
L 359.135207 243.892802 
L 360.774876 242.978684 
L 362.414545 242.001059 
L 364.054215 240.952792 
L 365.693884 239.825572 
L 367.333554 238.609641 
L 368.973223 237.293462 
L 370.612893 235.863278 
L 372.252562 234.302529 
L 373.892231 232.591076 
L 375.531901 230.70414 
L 377.17157 228.61084 
L 378.81124 226.272106 
L 380.450909 223.63767 
L 382.090579 220.641574 
L 383.730248 217.195257 
L 385.369917 213.176527 
L 387.009587 208.411151 
L 388.649256 202.64041 
L 390.288926 195.459946 
L 391.928595 186.19408 
L 393.568264 173.605801 
L 395.207934 155.108215 
L 396.847603 123.993294 
L 398.487273 53.568 
L 398.487273 295.488 
L 398.487273 295.488 
L 396.847603 295.488 
L 395.207934 295.488 
L 393.568264 295.488 
L 391.928595 295.488 
L 390.288926 295.488 
L 388.649256 295.488 
L 387.009587 295.488 
L 385.369917 295.488 
L 383.730248 295.488 
L 382.090579 295.488 
L 380.450909 295.488 
L 378.81124 295.488 
L 377.17157 295.488 
L 375.531901 295.488 
L 373.892231 295.488 
L 372.252562 295.488 
L 370.612893 295.488 
L 368.973223 295.488 
L 367.333554 295.488 
L 365.693884 295.488 
L 364.054215 295.488 
L 362.414545 295.488 
L 360.774876 295.488 
L 359.135207 295.488 
L 357.495537 295.488 
L 355.855868 295.488 
L 354.216198 295.488 
L 352.576529 295.488 
L 350.93686 295.488 
L 349.29719 295.488 
L 347.657521 295.488 
L 346.017851 295.488 
L 344.378182 295.488 
L 342.738512 295.488 
L 341.098843 295.488 
L 339.459174 295.488 
L 337.819504 295.488 
L 336.179835 295.488 
L 334.540165 295.488 
L 332.900496 295.488 
L 331.260826 295.488 
L 329.621157 295.488 
L 327.981488 295.488 
L 326.341818 295.488 
L 324.702149 295.488 
L 323.062479 295.488 
L 321.42281 295.488 
L 319.78314 295.488 
L 318.143471 295.488 
L 316.503802 295.488 
L 314.864132 295.488 
L 313.224463 295.488 
L 311.584793 295.488 
L 309.945124 295.488 
L 308.305455 295.488 
L 306.665785 295.488 
L 305.026116 295.488 
L 303.386446 295.488 
L 301.746777 295.488 
L 300.107107 295.488 
L 298.467438 295.488 
L 296.827769 295.488 
L 295.188099 295.488 
L 293.54843 295.488 
L 291.90876 295.488 
L 290.269091 295.488 
L 288.629421 295.488 
L 286.989752 295.488 
L 285.350083 295.488 
L 283.710413 295.488 
L 282.070744 295.488 
L 280.431074 295.488 
L 278.791405 295.488 
L 277.151736 295.488 
L 275.512066 295.488 
L 273.872397 295.488 
L 272.232727 295.488 
L 270.593058 295.488 
L 268.953388 295.488 
L 267.313719 295.488 
L 265.67405 295.488 
L 264.03438 295.488 
L 262.394711 295.488 
L 260.755041 295.488 
L 259.115372 295.488 
L 257.475702 295.488 
L 255.836033 295.488 
L 254.196364 295.488 
L 252.556694 295.488 
L 250.917025 295.488 
L 249.277355 295.488 
L 247.637686 295.488 
L 245.998017 295.488 
L 244.358347 295.488 
L 242.718678 295.488 
L 241.079008 295.488 
L 239.439339 295.488 
L 237.799669 295.488 
L 236.16 295.488 
L 234.520331 295.488 
L 232.880661 295.488 
L 231.240992 295.488 
L 229.601322 295.488 
L 227.961653 295.488 
L 226.321983 295.488 
L 224.682314 295.488 
L 223.042645 295.488 
L 221.402975 295.488 
L 219.763306 295.488 
L 218.123636 295.488 
L 216.483967 295.488 
L 214.844298 295.488 
L 213.204628 295.488 
L 211.564959 295.488 
L 209.925289 295.488 
L 208.28562 295.488 
L 206.64595 295.488 
L 205.006281 295.488 
L 203.366612 295.488 
L 201.726942 295.488 
L 200.087273 295.488 
L 198.447603 295.488 
L 196.807934 295.488 
L 195.168264 295.488 
L 193.528595 295.488 
L 191.888926 295.488 
L 190.249256 295.488 
L 188.609587 295.488 
L 186.969917 295.488 
L 185.330248 295.488 
L 183.690579 295.488 
L 182.050909 295.488 
L 180.41124 295.488 
L 178.77157 295.488 
L 177.131901 295.488 
L 175.492231 295.488 
L 173.852562 295.488 
L 172.212893 295.488 
L 170.573223 295.488 
L 168.933554 295.488 
L 167.293884 295.488 
L 165.654215 295.488 
L 164.014545 295.488 
L 162.374876 295.488 
L 160.735207 295.488 
L 159.095537 295.488 
L 157.455868 295.488 
L 155.816198 295.488 
L 154.176529 295.488 
L 152.53686 295.488 
L 150.89719 295.488 
L 149.257521 295.488 
L 147.617851 295.488 
L 145.978182 295.488 
L 144.338512 295.488 
L 142.698843 295.488 
L 141.059174 295.488 
L 139.419504 295.488 
L 137.779835 295.488 
L 136.140165 295.488 
L 134.500496 295.488 
L 132.860826 295.488 
L 131.221157 295.488 
L 129.581488 295.488 
L 127.941818 295.488 
L 126.302149 295.488 
L 124.662479 295.488 
L 123.02281 295.488 
L 121.38314 295.488 
L 119.743471 295.488 
L 118.103802 295.488 
L 116.464132 295.488 
L 114.824463 295.488 
L 113.184793 295.488 
L 111.545124 295.488 
L 109.905455 295.488 
L 108.265785 295.488 
L 106.626116 295.488 
L 104.986446 295.488 
L 103.346777 295.488 
L 101.707107 295.488 
L 100.067438 295.488 
L 98.427769 295.488 
L 96.788099 295.488 
L 95.14843 295.488 
L 93.50876 295.488 
L 91.869091 295.488 
L 90.229421 295.488 
L 88.589752 295.488 
L 86.950083 295.488 
L 85.310413 295.488 
L 83.670744 295.488 
L 82.031074 295.488 
L 80.391405 295.488 
L 78.751736 295.488 
L 77.112066 295.488 
L 75.472397 295.488 
L 73.832727 295.488 
z
" clip-path="url(#p83cde55e9c)" style="fill: #1f77b4"/>
   </g>
   <g id="matplotlib.axis_1">
    <g id="xtick_1">
     <g id="line2d_1">
      <defs>
       <path id="m9cfb853a65" d="M 0 0 
L 0 3.5 
" style="stroke: #282a36; stroke-width: 0.8"/>
      </defs>
      <g>
       <use xlink:href="#m9cfb853a65" x="72.193058" y="307.584" style="fill: #282a36; stroke: #282a36; stroke-width: 0.8"/>
      </g>
     </g>
     <g id="text_1">
      <!-- −1.00 -->
      <g style="fill: #282a36" transform="translate(56.870402 322.181656) scale(0.1 -0.1)">
       <defs>
        <path id="DejaVuSans-c9c" d="M 678 2272 
L 4684 2272 
L 4684 1741 
L 678 1741 
L 678 2272 
z
" transform="scale(0.015625)"/>
        <path id="DejaVuSans-14" d="M 794 531 
L 1825 531 
L 1825 4091 
L 703 3866 
L 703 4441 
L 1819 4666 
L 2450 4666 
L 2450 531 
L 3481 531 
L 3481 0 
L 794 0 
L 794 531 
z
" transform="scale(0.015625)"/>
        <path id="DejaVuSans-11" d="M 684 794 
L 1344 794 
L 1344 0 
L 684 0 
L 684 794 
z
" transform="scale(0.015625)"/>
        <path id="DejaVuSans-13" d="M 2034 4250 
Q 1547 4250 1301 3770 
Q 1056 3291 1056 2328 
Q 1056 1369 1301 889 
Q 1547 409 2034 409 
Q 2525 409 2770 889 
Q 3016 1369 3016 2328 
Q 3016 3291 2770 3770 
Q 2525 4250 2034 4250 
z
M 2034 4750 
Q 2819 4750 3233 4129 
Q 3647 3509 3647 2328 
Q 3647 1150 3233 529 
Q 2819 -91 2034 -91 
Q 1250 -91 836 529 
Q 422 1150 422 2328 
Q 422 3509 836 4129 
Q 1250 4750 2034 4750 
z
" transform="scale(0.015625)"/>
       </defs>
       <use xlink:href="#DejaVuSans-c9c"/>
       <use xlink:href="#DejaVuSans-14" transform="translate(83.796875 0)"/>
       <use xlink:href="#DejaVuSans-11" transform="translate(147.421875 0)"/>
       <use xlink:href="#DejaVuSans-13" transform="translate(179.203125 0)"/>
       <use xlink:href="#DejaVuSans-13" transform="translate(242.828125 0)"/>
      </g>
     </g>
    </g>
    <g id="xtick_2">
     <g id="line2d_2">
      <g>
       <use xlink:href="#m9cfb853a65" x="113.184793" y="307.584" style="fill: #282a36; stroke: #282a36; stroke-width: 0.8"/>
      </g>
     </g>
     <g id="text_2">
      <!-- −0.75 -->
      <g style="fill: #282a36" transform="translate(97.862137 322.181656) scale(0.1 -0.1)">
       <defs>
        <path id="DejaVuSans-1a" d="M 525 4666 
L 3525 4666 
L 3525 4397 
L 1831 0 
L 1172 0 
L 2766 4134 
L 525 4134 
L 525 4666 
z
" transform="scale(0.015625)"/>
        <path id="DejaVuSans-18" d="M 691 4666 
L 3169 4666 
L 3169 4134 
L 1269 4134 
L 1269 2991 
Q 1406 3038 1543 3061 
Q 1681 3084 1819 3084 
Q 2600 3084 3056 2656 
Q 3513 2228 3513 1497 
Q 3513 744 3044 326 
Q 2575 -91 1722 -91 
Q 1428 -91 1123 -41 
Q 819 9 494 109 
L 494 744 
Q 775 591 1075 516 
Q 1375 441 1709 441 
Q 2250 441 2565 725 
Q 2881 1009 2881 1497 
Q 2881 1984 2565 2268 
Q 2250 2553 1709 2553 
Q 1456 2553 1204 2497 
Q 953 2441 691 2322 
L 691 4666 
z
" transform="scale(0.015625)"/>
       </defs>
       <use xlink:href="#DejaVuSans-c9c"/>
       <use xlink:href="#DejaVuSans-13" transform="translate(83.796875 0)"/>
       <use xlink:href="#DejaVuSans-11" transform="translate(147.421875 0)"/>
       <use xlink:href="#DejaVuSans-1a" transform="translate(179.203125 0)"/>
       <use xlink:href="#DejaVuSans-18" transform="translate(242.828125 0)"/>
      </g>
     </g>
    </g>
    <g id="xtick_3">
     <g id="line2d_3">
      <g>
       <use xlink:href="#m9cfb853a65" x="154.176529" y="307.584" style="fill: #282a36; stroke: #282a36; stroke-width: 0.8"/>
      </g>
     </g>
     <g id="text_3">
      <!-- −0.50 -->
      <g style="fill: #282a36" transform="translate(138.853873 322.181656) scale(0.1 -0.1)">
       <use xlink:href="#DejaVuSans-c9c"/>
       <use xlink:href="#DejaVuSans-13" transform="translate(83.796875 0)"/>
       <use xlink:href="#DejaVuSans-11" transform="translate(147.421875 0)"/>
       <use xlink:href="#DejaVuSans-18" transform="translate(179.203125 0)"/>
       <use xlink:href="#DejaVuSans-13" transform="translate(242.828125 0)"/>
      </g>
     </g>
    </g>
    <g id="xtick_4">
     <g id="line2d_4">
      <g>
       <use xlink:href="#m9cfb853a65" x="195.168264" y="307.584" style="fill: #282a36; stroke: #282a36; stroke-width: 0.8"/>
      </g>
     </g>
     <g id="text_4">
      <!-- −0.25 -->
      <g style="fill: #282a36" transform="translate(179.845608 322.181656) scale(0.1 -0.1)">
       <defs>
        <path id="DejaVuSans-15" d="M 1228 531 
L 3431 531 
L 3431 0 
L 469 0 
L 469 531 
Q 828 903 1448 1529 
Q 2069 2156 2228 2338 
Q 2531 2678 2651 2914 
Q 2772 3150 2772 3378 
Q 2772 3750 2511 3984 
Q 2250 4219 1831 4219 
Q 1534 4219 1204 4116 
Q 875 4013 500 3803 
L 500 4441 
Q 881 4594 1212 4672 
Q 1544 4750 1819 4750 
Q 2544 4750 2975 4387 
Q 3406 4025 3406 3419 
Q 3406 3131 3298 2873 
Q 3191 2616 2906 2266 
Q 2828 2175 2409 1742 
Q 1991 1309 1228 531 
z
" transform="scale(0.015625)"/>
       </defs>
       <use xlink:href="#DejaVuSans-c9c"/>
       <use xlink:href="#DejaVuSans-13" transform="translate(83.796875 0)"/>
       <use xlink:href="#DejaVuSans-11" transform="translate(147.421875 0)"/>
       <use xlink:href="#DejaVuSans-15" transform="translate(179.203125 0)"/>
       <use xlink:href="#DejaVuSans-18" transform="translate(242.828125 0)"/>
      </g>
     </g>
    </g>
    <g id="xtick_5">
     <g id="line2d_5">
      <g>
       <use xlink:href="#m9cfb853a65" x="236.16" y="307.584" style="fill: #282a36; stroke: #282a36; stroke-width: 0.8"/>
      </g>
     </g>
     <g id="text_5">
      <!-- 0.00 -->
      <g style="fill: #282a36" transform="translate(225.027187 322.181656) scale(0.1 -0.1)">
       <use xlink:href="#DejaVuSans-13"/>
       <use xlink:href="#DejaVuSans-11" transform="translate(63.625 0)"/>
       <use xlink:href="#DejaVuSans-13" transform="translate(95.40625 0)"/>
       <use xlink:href="#DejaVuSans-13" transform="translate(159.03125 0)"/>
      </g>
     </g>
    </g>
    <g id="xtick_6">
     <g id="line2d_6">
      <g>
       <use xlink:href="#m9cfb853a65" x="277.151736" y="307.584" style="fill: #282a36; stroke: #282a36; stroke-width: 0.8"/>
      </g>
     </g>
     <g id="text_6">
      <!-- 0.25 -->
      <g style="fill: #282a36" transform="translate(266.018923 322.181656) scale(0.1 -0.1)">
       <use xlink:href="#DejaVuSans-13"/>
       <use xlink:href="#DejaVuSans-11" transform="translate(63.625 0)"/>
       <use xlink:href="#DejaVuSans-15" transform="translate(95.40625 0)"/>
       <use xlink:href="#DejaVuSans-18" transform="translate(159.03125 0)"/>
      </g>
     </g>
    </g>
    <g id="xtick_7">
     <g id="line2d_7">
      <g>
       <use xlink:href="#m9cfb853a65" x="318.143471" y="307.584" style="fill: #282a36; stroke: #282a36; stroke-width: 0.8"/>
      </g>
     </g>
     <g id="text_7">
      <!-- 0.50 -->
      <g style="fill: #282a36" transform="translate(307.010659 322.181656) scale(0.1 -0.1)">
       <use xlink:href="#DejaVuSans-13"/>
       <use xlink:href="#DejaVuSans-11" transform="translate(63.625 0)"/>
       <use xlink:href="#DejaVuSans-18" transform="translate(95.40625 0)"/>
       <use xlink:href="#DejaVuSans-13" transform="translate(159.03125 0)"/>
      </g>
     </g>
    </g>
    <g id="xtick_8">
     <g id="line2d_8">
      <g>
       <use xlink:href="#m9cfb853a65" x="359.135207" y="307.584" style="fill: #282a36; stroke: #282a36; stroke-width: 0.8"/>
      </g>
     </g>
     <g id="text_8">
      <!-- 0.75 -->
      <g style="fill: #282a36" transform="translate(348.002394 322.181656) scale(0.1 -0.1)">
       <use xlink:href="#DejaVuSans-13"/>
       <use xlink:href="#DejaVuSans-11" transform="translate(63.625 0)"/>
       <use xlink:href="#DejaVuSans-1a" transform="translate(95.40625 0)"/>
       <use xlink:href="#DejaVuSans-18" transform="translate(159.03125 0)"/>
      </g>
     </g>
    </g>
    <g id="xtick_9">
     <g id="line2d_9">
      <g>
       <use xlink:href="#m9cfb853a65" x="400.126942" y="307.584" style="fill: #282a36; stroke: #282a36; stroke-width: 0.8"/>
      </g>
     </g>
     <g id="text_9">
      <!-- 1.00 -->
      <g style="fill: #282a36" transform="translate(388.99413 322.181656) scale(0.1 -0.1)">
       <use xlink:href="#DejaVuSans-14"/>
       <use xlink:href="#DejaVuSans-11" transform="translate(63.625 0)"/>
       <use xlink:href="#DejaVuSans-13" transform="translate(95.40625 0)"/>
       <use xlink:href="#DejaVuSans-13" transform="translate(159.03125 0)"/>
      </g>
     </g>
    </g>
   </g>
   <g id="matplotlib.axis_2">
    <g id="ytick_1">
     <g id="line2d_10">
      <defs>
       <path id="m6084f9f3c3" d="M 0 0 
L -3.5 0 
" style="stroke: #282a36; stroke-width: 0.8"/>
      </defs>
      <g>
       <use xlink:href="#m6084f9f3c3" x="57.6" y="295.488" style="fill: #282a36; stroke: #282a36; stroke-width: 0.8"/>
      </g>
     </g>
     <g id="text_10">
      <!-- 0 -->
      <g style="fill: #282a36" transform="translate(44.2375 299.286828) scale(0.1 -0.1)">
       <use xlink:href="#DejaVuSans-13"/>
      </g>
     </g>
    </g>
    <g id="ytick_2">
     <g id="line2d_11">
      <g>
       <use xlink:href="#m6084f9f3c3" x="57.6" y="261.360984" style="fill: #282a36; stroke: #282a36; stroke-width: 0.8"/>
      </g>
     </g>
     <g id="text_11">
      <!-- 1 -->
      <g style="fill: #282a36" transform="translate(44.2375 265.159812) scale(0.1 -0.1)">
       <use xlink:href="#DejaVuSans-14"/>
      </g>
     </g>
    </g>
    <g id="ytick_3">
     <g id="line2d_12">
      <g>
       <use xlink:href="#m6084f9f3c3" x="57.6" y="227.233969" style="fill: #282a36; stroke: #282a36; stroke-width: 0.8"/>
      </g>
     </g>
     <g id="text_12">
      <!-- 2 -->
      <g style="fill: #282a36" transform="translate(44.2375 231.032797) scale(0.1 -0.1)">
       <use xlink:href="#DejaVuSans-15"/>
      </g>
     </g>
    </g>
    <g id="ytick_4">
     <g id="line2d_13">
      <g>
       <use xlink:href="#m6084f9f3c3" x="57.6" y="193.106953" style="fill: #282a36; stroke: #282a36; stroke-width: 0.8"/>
      </g>
     </g>
     <g id="text_13">
      <!-- 3 -->
      <g style="fill: #282a36" transform="translate(44.2375 196.905781) scale(0.1 -0.1)">
       <defs>
        <path id="DejaVuSans-16" d="M 2597 2516 
Q 3050 2419 3304 2112 
Q 3559 1806 3559 1356 
Q 3559 666 3084 287 
Q 2609 -91 1734 -91 
Q 1441 -91 1130 -33 
Q 819 25 488 141 
L 488 750 
Q 750 597 1062 519 
Q 1375 441 1716 441 
Q 2309 441 2620 675 
Q 2931 909 2931 1356 
Q 2931 1769 2642 2001 
Q 2353 2234 1838 2234 
L 1294 2234 
L 1294 2753 
L 1863 2753 
Q 2328 2753 2575 2939 
Q 2822 3125 2822 3475 
Q 2822 3834 2567 4026 
Q 2313 4219 1838 4219 
Q 1578 4219 1281 4162 
Q 984 4106 628 3988 
L 628 4550 
Q 988 4650 1302 4700 
Q 1616 4750 1894 4750 
Q 2613 4750 3031 4423 
Q 3450 4097 3450 3541 
Q 3450 3153 3228 2886 
Q 3006 2619 2597 2516 
z
" transform="scale(0.015625)"/>
       </defs>
       <use xlink:href="#DejaVuSans-16"/>
      </g>
     </g>
    </g>
    <g id="ytick_5">
     <g id="line2d_14">
      <g>
       <use xlink:href="#m6084f9f3c3" x="57.6" y="158.979937" style="fill: #282a36; stroke: #282a36; stroke-width: 0.8"/>
      </g>
     </g>
     <g id="text_14">
      <!-- 4 -->
      <g style="fill: #282a36" transform="translate(44.2375 162.778765) scale(0.1 -0.1)">
       <defs>
        <path id="DejaVuSans-17" d="M 2419 4116 
L 825 1625 
L 2419 1625 
L 2419 4116 
z
M 2253 4666 
L 3047 4666 
L 3047 1625 
L 3713 1625 
L 3713 1100 
L 3047 1100 
L 3047 0 
L 2419 0 
L 2419 1100 
L 313 1100 
L 313 1709 
L 2253 4666 
z
" transform="scale(0.015625)"/>
       </defs>
       <use xlink:href="#DejaVuSans-17"/>
      </g>
     </g>
    </g>
    <g id="ytick_6">
     <g id="line2d_15">
      <g>
       <use xlink:href="#m6084f9f3c3" x="57.6" y="124.852922" style="fill: #282a36; stroke: #282a36; stroke-width: 0.8"/>
      </g>
     </g>
     <g id="text_15">
      <!-- 5 -->
      <g style="fill: #282a36" transform="translate(44.2375 128.65175) scale(0.1 -0.1)">
       <use xlink:href="#DejaVuSans-18"/>
      </g>
     </g>
    </g>
    <g id="ytick_7">
     <g id="line2d_16">
      <g>
       <use xlink:href="#m6084f9f3c3" x="57.6" y="90.725906" style="fill: #282a36; stroke: #282a36; stroke-width: 0.8"/>
      </g>
     </g>
     <g id="text_16">
      <!-- 6 -->
      <g style="fill: #282a36" transform="translate(44.2375 94.524734) scale(0.1 -0.1)">
       <defs>
        <path id="DejaVuSans-19" d="M 2113 2584 
Q 1688 2584 1439 2293 
Q 1191 2003 1191 1497 
Q 1191 994 1439 701 
Q 1688 409 2113 409 
Q 2538 409 2786 701 
Q 3034 994 3034 1497 
Q 3034 2003 2786 2293 
Q 2538 2584 2113 2584 
z
M 3366 4563 
L 3366 3988 
Q 3128 4100 2886 4159 
Q 2644 4219 2406 4219 
Q 1781 4219 1451 3797 
Q 1122 3375 1075 2522 
Q 1259 2794 1537 2939 
Q 1816 3084 2150 3084 
Q 2853 3084 3261 2657 
Q 3669 2231 3669 1497 
Q 3669 778 3244 343 
Q 2819 -91 2113 -91 
Q 1303 -91 875 529 
Q 447 1150 447 2328 
Q 447 3434 972 4092 
Q 1497 4750 2381 4750 
Q 2619 4750 2861 4703 
Q 3103 4656 3366 4563 
z
" transform="scale(0.015625)"/>
       </defs>
       <use xlink:href="#DejaVuSans-19"/>
      </g>
     </g>
    </g>
    <g id="ytick_8">
     <g id="line2d_17">
      <g>
       <use xlink:href="#m6084f9f3c3" x="57.6" y="56.59889" style="fill: #282a36; stroke: #282a36; stroke-width: 0.8"/>
      </g>
     </g>
     <g id="text_17">
      <!-- 7 -->
      <g style="fill: #282a36" transform="translate(44.2375 60.397718) scale(0.1 -0.1)">
       <use xlink:href="#DejaVuSans-1a"/>
      </g>
     </g>
    </g>
   </g>
   <g id="line2d_18">
    <path d="M 73.832727 53.568 
L 75.472397 123.993294 
L 77.112066 155.108215 
L 78.751736 173.605801 
L 80.391405 186.19408 
L 82.031074 195.459946 
L 83.670744 202.64041 
L 85.310413 208.411151 
L 86.950083 213.176527 
L 88.589752 217.195257 
L 90.229421 220.641574 
L 91.869091 223.63767 
L 93.50876 226.272106 
L 95.14843 228.61084 
L 96.788099 230.70414 
L 98.427769 232.591076 
L 101.707107 235.863278 
L 104.986446 238.609641 
L 108.265785 240.952792 
L 111.545124 242.978684 
L 114.824463 244.749571 
L 118.103802 246.311788 
L 123.02281 248.338823 
L 127.941818 250.061967 
L 132.860826 251.543589 
L 137.779835 252.82923 
L 144.338512 254.296304 
L 150.89719 255.534402 
L 159.095537 256.824452 
L 167.293884 257.883472 
L 177.131901 258.908407 
L 186.969917 259.713167 
L 198.447603 260.420856 
L 209.925289 260.915588 
L 223.042645 261.251251 
L 236.16 261.360984 
L 249.277355 261.251251 
L 262.394711 260.915588 
L 273.872397 260.420856 
L 285.350083 259.713167 
L 295.188099 258.908407 
L 305.026116 257.883472 
L 313.224463 256.824452 
L 321.42281 255.534402 
L 327.981488 254.296304 
L 334.540165 252.82923 
L 339.459174 251.543589 
L 344.378182 250.061967 
L 349.29719 248.338823 
L 354.216198 246.311788 
L 357.495537 244.749571 
L 360.774876 242.978684 
L 364.054215 240.952792 
L 367.333554 238.609641 
L 370.612893 235.863278 
L 373.892231 232.591076 
L 375.531901 230.70414 
L 377.17157 228.61084 
L 378.81124 226.272106 
L 380.450909 223.63767 
L 382.090579 220.641574 
L 383.730248 217.195257 
L 385.369917 213.176527 
L 387.009587 208.411151 
L 388.649256 202.64041 
L 390.288926 195.459946 
L 391.928595 186.19408 
L 393.568264 173.605801 
L 395.207934 155.108215 
L 396.847603 123.993294 
L 398.487273 53.568 
L 398.487273 53.568 
" clip-path="url(#p83cde55e9c)" style="fill: none; stroke: #1f77b4; stroke-width: 1.5; stroke-linecap: square"/>
   </g>
   <g id="patch_3">
    <path d="M 57.6 307.584 
L 57.6 41.472 
" style="fill: none; stroke: #282a36; stroke-width: 0.8; stroke-linejoin: miter; stroke-linecap: square"/>
   </g>
   <g id="patch_4">
    <path d="M 414.72 307.584 
L 414.72 41.472 
" style="fill: none; stroke: #282a36; stroke-width: 0.8; stroke-linejoin: miter; stroke-linecap: square"/>
   </g>
   <g id="patch_5">
    <path d="M 57.6 307.584 
L 414.72 307.584 
" style="fill: none; stroke: #282a36; stroke-width: 0.8; stroke-linejoin: miter; stroke-linecap: square"/>
   </g>
   <g id="patch_6">
    <path d="M 57.6 41.472 
L 414.72 41.472 
" style="fill: none; stroke: #282a36; stroke-width: 0.8; stroke-linejoin: miter; stroke-linecap: square"/>
   </g>
   <g id="text_18">
    <!-- $\int_{-1}^1 1 / \sqrt{1-x^2}$ -->
    <g style="fill: #282a36" transform="translate(196.2 35.472) scale(0.12 -0.12)">
     <defs>
      <path id="DejaVuSansDisplay-11" d="M 2134 5525 
Q 2172 6263 2528 6556 
Q 2884 6850 3218 6850 
Q 3553 6850 3833 6575 
Q 4113 6300 4200 5678 
L 3544 5613 
Q 3469 6188 3219 6188 
Q 2906 6188 2869 5413 
L 2581 -597 
Q 2547 -1334 2187 -1628 
Q 1828 -1922 1497 -1922 
Q 1163 -1922 883 -1647 
Q 603 -1372 516 -750 
L 1172 -684 
Q 1247 -1259 1497 -1259 
Q 1809 -1259 1847 -488 
L 2134 5525 
z
" transform="scale(0.015625)"/>
      <path id="DejaVuSans-12" d="M 1625 4666 
L 2156 4666 
L 531 -594 
L 0 -594 
L 1625 4666 
z
" transform="scale(0.015625)"/>
      <path id="STIXSizeOneSym-Regular-26" d="M 6970 9933 
L 3373 -1888 
L 3104 -1888 
L 1626 2918 
Q 1555 3149 1465 3251 
Q 1376 3354 1229 3354 
Q 1011 3354 794 3181 
L 717 3309 
L 1766 4115 
L 1926 4115 
L 3379 -602 
L 3405 -602 
L 6605 9933 
L 6970 9933 
z
" transform="scale(0.015625)"/>
      <path id="DejaVuSans-Oblique-5b" d="M 3841 3500 
L 2234 1784 
L 3219 0 
L 2559 0 
L 1819 1388 
L 531 0 
L -166 0 
L 1556 1844 
L 641 3500 
L 1300 3500 
L 1972 2234 
L 3144 3500 
L 3841 3500 
z
" transform="scale(0.015625)"/>
     </defs>
     <use xlink:href="#DejaVuSansDisplay-11" transform="translate(0 0.934375)"/>
     <use xlink:href="#DejaVuSans-14" transform="translate(86.744141 102.965625) scale(0.7)"/>
     <use xlink:href="#DejaVuSans-c9c" transform="translate(71.759766 -34.096875) scale(0.7)"/>
     <use xlink:href="#DejaVuSans-14" transform="translate(130.412109 -34.096875) scale(0.7)"/>
     <use xlink:href="#DejaVuSans-14" transform="translate(174.948242 0.934375)"/>
     <use xlink:href="#DejaVuSans-12" transform="translate(238.571289 0.934375)"/>
     <use xlink:href="#STIXSizeOneSym-Regular-26" transform="translate(272.262695 20.825) scale(0.674072)"/>
     <use xlink:href="#DejaVuSans-14" transform="translate(356.011032 0.93125)"/>
     <use xlink:href="#DejaVuSans-c9c" transform="translate(439.116501 0.93125)"/>
     <use xlink:href="#DejaVuSans-Oblique-5b" transform="translate(542.387985 0.93125)"/>
     <use xlink:href="#DejaVuSans-15" transform="translate(606.033819 42.23125) scale(0.7)"/>
     <path d="M 343.511032 125.184375 
L 343.511032 131.434375 
L 665.804326 131.434375 
L 665.804326 125.184375 
L 343.511032 125.184375 
z
"/>
    </g>
   </g>
  </g>
 </g>
 <defs>
  <clipPath id="p83cde55e9c">
   <rect x="57.6" y="41.472" width="357.12" height="266.112"/>
  </clipPath>
 </defs>
</svg>
