<svg xmlns="http://www.w3.org/2000/svg" xmlns:xlink="http://www.w3.org/1999/xlink" width="614.4" height="460.8" viewBox="0 0 460.8 345.6"><defs><style>*{stroke-linejoin:round;stroke-linecap:butt}</style></defs><g id="figure_1"><path id="patch_1" d="M0 345.6h460.8V0H0z" style="fill:#282a36"/><g id="axes_1"><path id="patch_2" d="M57.6 307.584h357.12V41.472H57.6z" style="fill:#282a36"/><path id="PolyCollection_1" d="M73.833 295.488V53.568l1.64 70.425 1.64 31.115 1.639 18.498 1.64 12.588 1.64 9.266 1.639 7.18 1.64 5.771 1.64 4.766 1.639 4.018 1.64 3.447 1.64 2.996 1.639 2.634 1.64 2.339 1.64 2.093 1.639 1.887 1.64 1.712 1.64 1.56 1.639 1.43 1.64 1.317 1.64 1.216 1.639 1.127 1.64 1.048 1.64.978 1.639.914 1.64.857 1.64.804 1.639.758 1.64.714 1.64.675 1.639.638 1.64.604 1.64.574 1.639.545 1.64.518 1.64.493 1.639.47 1.64.449 1.64.428 1.639.41 1.64.39 1.64.375 1.639.358 1.64.343 1.64.33 1.639.315 1.64.303 1.64.29 1.639.28 1.64.268 1.64.257 1.639.248 1.64.237 1.64.23 1.639.22 1.64.21 1.64.204 1.639.195 1.64.189 1.64.18 1.639.174 1.64.167 1.64.161 1.639.154 1.64.149 1.64.142 1.639.137 1.64.13 1.64.127 1.639.12 1.64.116 1.64.11 1.639.106 1.64.1 1.64.097 1.639.092 1.64.087 1.64.083 1.639.079 1.64.074 1.64.07 1.639.067 1.64.063 1.64.059 1.639.054 1.64.052 1.64.047 1.639.044 1.64.04 1.64.036 1.639.033 1.64.03 1.64.025 1.639.022 1.64.02 1.64.015 1.639.012 1.64.008 1.64.005 1.639.002 1.64-.002 1.64-.005 1.639-.008 1.64-.012 1.64-.016 1.639-.019 1.64-.022 1.64-.026 1.639-.03 1.64-.032 1.64-.036 1.639-.04 1.64-.044 1.64-.047 1.639-.052 1.64-.054 1.64-.06 1.639-.062 1.64-.066 1.64-.07 1.64-.075 1.639-.08 1.64-.082 1.64-.087 1.639-.092 1.64-.096 1.64-.101 1.639-.106 1.64-.11 1.64-.116 1.639-.12 1.64-.126 1.64-.131 1.639-.137 1.64-.142 1.64-.149 1.639-.154 1.64-.16 1.64-.168 1.639-.174 1.64-.18 1.64-.189 1.639-.195 1.64-.203 1.64-.212 1.639-.22 1.64-.229 1.64-.237 1.639-.248 1.64-.257 1.64-.269 1.639-.279 1.64-.29 1.64-.303 1.639-.316 1.64-.329 1.64-.343 1.639-.358 1.64-.375 1.64-.39 1.639-.41 1.64-.428 1.64-.448 1.639-.47 1.64-.494 1.64-.518 1.639-.545 1.64-.574 1.64-.604 1.639-.638 1.64-.675 1.64-.714 1.639-.758 1.64-.804 1.64-.857 1.639-.914 1.64-.978 1.64-1.048 1.639-1.127 1.64-1.216 1.64-1.317 1.639-1.43 1.64-1.56 1.64-1.712 1.639-1.887 1.64-2.093 1.64-2.339 1.639-2.634 1.64-2.996 1.64-3.447 1.639-4.018 1.64-4.766 1.64-5.77 1.639-7.181 1.64-9.266 1.64-12.588 1.639-18.498 1.64-31.115 1.64-70.425v241.92H73.831" clip-path="url(#pf962625e59)" style="fill:#8be9fd"/><g id="matplotlib.axis_1"><g id="xtick_1"><g id="line2d_1"><defs><path id="mb0a612e881" d="M0 0v3.5" style="stroke:#f8f8f2;stroke-width:.8"/></defs><use xlink:href="#mb0a612e881" x="72.193" y="307.584" style="fill:#f8f8f2;stroke:#f8f8f2;stroke-width:.8"/></g><g id="text_1" style="fill:#f8f8f2" transform="matrix(.1 0 0 -.1 56.87 322.182)"><defs><path id="DejaVuSans-2212" d="M678 2272h4006v-531H678z" transform="scale(.01563)"/><path id="DejaVuSans-31" d="M794 531h1031v3560L703 3866v575l1116 225h631V531h1031V0H794z" transform="scale(.01563)"/><path id="DejaVuSans-2e" d="M684 794h660V0H684z" transform="scale(.01563)"/><path id="DejaVuSans-30" d="M2034 4250q-487 0-733-480-245-479-245-1442 0-959 245-1439 246-480 733-480 491 0 736 480 246 480 246 1439 0 963-246 1442-245 480-736 480m0 500q785 0 1199-621 414-620 414-1801 0-1178-414-1799Q2819-91 2034-91q-784 0-1198 620-414 621-414 1799 0 1181 414 1801 414 621 1198 621" transform="scale(.01563)"/></defs><use xlink:href="#DejaVuSans-2212"/><use xlink:href="#DejaVuSans-31" x="83.789"/><use xlink:href="#DejaVuSans-2e" x="147.412"/><use xlink:href="#DejaVuSans-30" x="179.199"/><use xlink:href="#DejaVuSans-30" x="242.822"/></g></g><g id="xtick_2"><use xlink:href="#mb0a612e881" id="line2d_2" x="113.185" y="307.584" style="fill:#f8f8f2;stroke:#f8f8f2;stroke-width:.8"/><g id="text_2" style="fill:#f8f8f2" transform="matrix(.1 0 0 -.1 97.862 322.182)"><defs><path id="DejaVuSans-37" d="M525 4666h3000v-269L1831 0h-659l1594 4134H525z" transform="scale(.01563)"/><path id="DejaVuSans-35" d="M691 4666h2478v-532H1269V2991q137 47 274 70 138 23 276 23 781 0 1237-428 457-428 457-1159 0-753-469-1171Q2575-91 1722-91q-294 0-599 50Q819 9 494 109v635q281-153 581-228t634-75q541 0 856 284 316 284 316 772 0 487-316 771-315 285-856 285-253 0-505-56-251-56-513-175z" transform="scale(.01563)"/></defs><use xlink:href="#DejaVuSans-2212"/><use xlink:href="#DejaVuSans-30" x="83.789"/><use xlink:href="#DejaVuSans-2e" x="147.412"/><use xlink:href="#DejaVuSans-37" x="179.199"/><use xlink:href="#DejaVuSans-35" x="242.822"/></g></g><g id="xtick_3"><use xlink:href="#mb0a612e881" id="line2d_3" x="154.177" y="307.584" style="fill:#f8f8f2;stroke:#f8f8f2;stroke-width:.8"/><g id="text_3" style="fill:#f8f8f2" transform="matrix(.1 0 0 -.1 138.854 322.182)"><use xlink:href="#DejaVuSans-2212"/><use xlink:href="#DejaVuSans-30" x="83.789"/><use xlink:href="#DejaVuSans-2e" x="147.412"/><use xlink:href="#DejaVuSans-35" x="179.199"/><use xlink:href="#DejaVuSans-30" x="242.822"/></g></g><g id="xtick_4"><use xlink:href="#mb0a612e881" id="line2d_4" x="195.168" y="307.584" style="fill:#f8f8f2;stroke:#f8f8f2;stroke-width:.8"/><g id="text_4" style="fill:#f8f8f2" transform="matrix(.1 0 0 -.1 179.846 322.182)"><defs><path id="DejaVuSans-32" d="M1228 531h2203V0H469v531q359 372 979 998 621 627 780 809 303 340 423 576 121 236 121 464 0 372-261 606-261 235-680 235-297 0-627-103-329-103-704-313v638q381 153 712 231 332 78 607 78 725 0 1156-363 431-362 431-968 0-288-108-546-107-257-392-607-78-91-497-524-418-433-1181-1211" transform="scale(.01563)"/></defs><use xlink:href="#DejaVuSans-2212"/><use xlink:href="#DejaVuSans-30" x="83.789"/><use xlink:href="#DejaVuSans-2e" x="147.412"/><use xlink:href="#DejaVuSans-32" x="179.199"/><use xlink:href="#DejaVuSans-35" x="242.822"/></g></g><g id="xtick_5"><use xlink:href="#mb0a612e881" id="line2d_5" x="236.16" y="307.584" style="fill:#f8f8f2;stroke:#f8f8f2;stroke-width:.8"/><g id="text_5" style="fill:#f8f8f2" transform="matrix(.1 0 0 -.1 225.027 322.182)"><use xlink:href="#DejaVuSans-30"/><use xlink:href="#DejaVuSans-2e" x="63.623"/><use xlink:href="#DejaVuSans-30" x="95.41"/><use xlink:href="#DejaVuSans-30" x="159.033"/></g></g><g id="xtick_6"><use xlink:href="#mb0a612e881" id="line2d_6" x="277.152" y="307.584" style="fill:#f8f8f2;stroke:#f8f8f2;stroke-width:.8"/><g id="text_6" style="fill:#f8f8f2" transform="matrix(.1 0 0 -.1 266.019 322.182)"><use xlink:href="#DejaVuSans-30"/><use xlink:href="#DejaVuSans-2e" x="63.623"/><use xlink:href="#DejaVuSans-32" x="95.41"/><use xlink:href="#DejaVuSans-35" x="159.033"/></g></g><g id="xtick_7"><use xlink:href="#mb0a612e881" id="line2d_7" x="318.143" y="307.584" style="fill:#f8f8f2;stroke:#f8f8f2;stroke-width:.8"/><g id="text_7" style="fill:#f8f8f2" transform="matrix(.1 0 0 -.1 307.01 322.182)"><use xlink:href="#DejaVuSans-30"/><use xlink:href="#DejaVuSans-2e" x="63.623"/><use xlink:href="#DejaVuSans-35" x="95.41"/><use xlink:href="#DejaVuSans-30" x="159.033"/></g></g><g id="xtick_8"><use xlink:href="#mb0a612e881" id="line2d_8" x="359.135" y="307.584" style="fill:#f8f8f2;stroke:#f8f8f2;stroke-width:.8"/><g id="text_8" style="fill:#f8f8f2" transform="matrix(.1 0 0 -.1 348.002 322.182)"><use xlink:href="#DejaVuSans-30"/><use xlink:href="#DejaVuSans-2e" x="63.623"/><use xlink:href="#DejaVuSans-37" x="95.41"/><use xlink:href="#DejaVuSans-35" x="159.033"/></g></g><g id="xtick_9"><use xlink:href="#mb0a612e881" id="line2d_9" x="400.127" y="307.584" style="fill:#f8f8f2;stroke:#f8f8f2;stroke-width:.8"/><g id="text_9" style="fill:#f8f8f2" transform="matrix(.1 0 0 -.1 388.994 322.182)"><use xlink:href="#DejaVuSans-31"/><use xlink:href="#DejaVuSans-2e" x="63.623"/><use xlink:href="#DejaVuSans-30" x="95.41"/><use xlink:href="#DejaVuSans-30" x="159.033"/></g></g></g><g id="matplotlib.axis_2"><g id="ytick_1"><g id="line2d_10"><defs><path id="m1ed8e00829" d="M0 0h-3.5" style="stroke:#f8f8f2;stroke-width:.8"/></defs><use xlink:href="#m1ed8e00829" x="57.6" y="295.488" style="fill:#f8f8f2;stroke:#f8f8f2;stroke-width:.8"/></g><use xlink:href="#DejaVuSans-30" id="text_10" style="fill:#f8f8f2" transform="matrix(.1 0 0 -.1 44.237 299.287)"/></g><g id="ytick_2"><use xlink:href="#m1ed8e00829" id="line2d_11" x="57.6" y="261.361" style="fill:#f8f8f2;stroke:#f8f8f2;stroke-width:.8"/><use xlink:href="#DejaVuSans-31" id="text_11" style="fill:#f8f8f2" transform="matrix(.1 0 0 -.1 44.237 265.16)"/></g><g id="ytick_3"><use xlink:href="#m1ed8e00829" id="line2d_12" x="57.6" y="227.234" style="fill:#f8f8f2;stroke:#f8f8f2;stroke-width:.8"/><use xlink:href="#DejaVuSans-32" id="text_12" style="fill:#f8f8f2" transform="matrix(.1 0 0 -.1 44.237 231.033)"/></g><g id="ytick_4"><use xlink:href="#m1ed8e00829" id="line2d_13" x="57.6" y="193.107" style="fill:#f8f8f2;stroke:#f8f8f2;stroke-width:.8"/><g id="text_13" style="fill:#f8f8f2" transform="matrix(.1 0 0 -.1 44.237 196.906)"><defs><path id="DejaVuSans-33" d="M2597 2516q453-97 707-404 255-306 255-756 0-690-475-1069Q2609-91 1734-91q-293 0-604 58T488 141v609q262-153 574-231 313-78 654-78 593 0 904 234t311 681q0 413-289 645-289 233-804 233h-544v519h569q465 0 712 186t247 536q0 359-255 551-254 193-729 193-260 0-557-57-297-56-653-174v562q360 100 674 150t592 50q719 0 1137-327 419-326 419-882 0-388-222-655t-631-370" transform="scale(.01563)"/></defs><use xlink:href="#DejaVuSans-33"/></g></g><g id="ytick_5"><use xlink:href="#m1ed8e00829" id="line2d_14" x="57.6" y="158.98" style="fill:#f8f8f2;stroke:#f8f8f2;stroke-width:.8"/><g id="text_14" style="fill:#f8f8f2" transform="matrix(.1 0 0 -.1 44.237 162.78)"><defs><path id="DejaVuSans-34" d="M2419 4116 825 1625h1594zm-166 550h794V1625h666v-525h-666V0h-628v1100H313v609z" transform="scale(.01563)"/></defs><use xlink:href="#DejaVuSans-34"/></g></g><g id="ytick_6"><use xlink:href="#m1ed8e00829" id="line2d_15" x="57.6" y="124.853" style="fill:#f8f8f2;stroke:#f8f8f2;stroke-width:.8"/><use xlink:href="#DejaVuSans-35" id="text_15" style="fill:#f8f8f2" transform="matrix(.1 0 0 -.1 44.237 128.652)"/></g><g id="ytick_7"><use xlink:href="#m1ed8e00829" id="line2d_16" x="57.6" y="90.726" style="fill:#f8f8f2;stroke:#f8f8f2;stroke-width:.8"/><g id="text_16" style="fill:#f8f8f2" transform="matrix(.1 0 0 -.1 44.237 94.525)"><defs><path id="DejaVuSans-36" d="M2113 2584q-425 0-674-291-248-290-248-796 0-503 248-796 249-292 674-292t673 292q248 293 248 796 0 506-248 796-248 291-673 291m1253 1979v-575q-238 112-480 171-242 60-480 60-625 0-955-422-329-422-376-1275 184 272 462 417 279 145 613 145 703 0 1111-427 408-426 408-1160 0-719-425-1154Q2819-91 2113-91q-810 0-1238 620-428 621-428 1799 0 1106 525 1764t1409 658q238 0 480-47t505-140" transform="scale(.01563)"/></defs><use xlink:href="#DejaVuSans-36"/></g></g><g id="ytick_8"><use xlink:href="#m1ed8e00829" id="line2d_17" x="57.6" y="56.599" style="fill:#f8f8f2;stroke:#f8f8f2;stroke-width:.8"/><use xlink:href="#DejaVuSans-37" id="text_17" style="fill:#f8f8f2" transform="matrix(.1 0 0 -.1 44.237 60.398)"/></g></g><path id="line2d_18" d="m73.833 53.568 1.64 70.425 1.64 31.115 1.639 18.498 1.64 12.588 1.64 9.266 1.639 7.18 1.64 5.771 1.64 4.766 1.639 4.018 1.64 3.447 1.64 2.996 1.639 2.634 1.64 2.339 1.64 2.093 1.639 1.887 3.28 3.272 3.278 2.747 3.28 2.343 3.28 2.026 3.278 1.77 3.28 1.563 4.919 2.027 4.919 1.723 4.919 1.482 4.919 1.285 6.559 1.467 6.558 1.238 8.199 1.29 8.198 1.06 9.838 1.024 9.838.805 11.478.708 11.477.495 13.118.335 13.117.11 13.117-.11 13.118-.335 11.477-.495 11.478-.708 9.838-.805 9.838-1.025 8.198-1.059 8.199-1.29 6.558-1.238 6.56-1.467 4.918-1.285 4.92-1.482 4.918-1.723 4.92-2.027 3.279-1.562 3.279-1.771 3.28-2.026 3.279-2.343 3.279-2.747 3.28-3.272 1.639-1.887 1.64-2.093 1.64-2.339 1.639-2.634 1.64-2.996 1.64-3.447 1.639-4.018 1.64-4.766 1.64-5.77 1.639-7.181 1.64-9.266 1.64-12.588 1.639-18.498 1.64-31.115 1.64-70.425h0" clip-path="url(#pf962625e59)" style="fill:none;stroke:#8be9fd;stroke-width:1.5;stroke-linecap:square"/><path id="patch_3" d="M57.6 307.584V41.472" style="fill:none;stroke:#f8f8f2;stroke-width:.8;stroke-linejoin:miter;stroke-linecap:square"/><path id="patch_4" d="M414.72 307.584V41.472" style="fill:none;stroke:#f8f8f2;stroke-width:.8;stroke-linejoin:miter;stroke-linecap:square"/><path id="patch_5" d="M57.6 307.584h357.12" style="fill:none;stroke:#f8f8f2;stroke-width:.8;stroke-linejoin:miter;stroke-linecap:square"/><path id="patch_6" d="M57.6 41.472h357.12" style="fill:none;stroke:#f8f8f2;stroke-width:.8;stroke-linejoin:miter;stroke-linecap:square"/><g id="text_18" style="fill:#f8f8f2" transform="matrix(.12 0 0 -.12 196.26 35.232)"><defs><path id="DejaVuSansDisplay-222b" d="M2134 5525q38 738 394 1031 356 294 690 294 335 0 615-275t367-897l-656-65q-75 575-325 575-313 0-350-775L2581-597q-34-737-394-1031-359-294-690-294-334 0-614 275T516-750l656 66q75-575 325-575 312 0 350 771z" transform="scale(.01563)"/><path id="DejaVuSans-2f" d="M1625 4666h531L531-594H0z" transform="scale(.01563)"/><path id="STIXSizeOneSym-Regular-221a" d="M6970 9933 3373-1888h-269L1626 2918q-71 231-161 333-89 103-236 103-218 0-435-173l-77 128 1049 806h160L3379-602h26L6605 9933z" transform="scale(.01563)"/><path id="DejaVuSans-Oblique-78" d="M3841 3500 2234 1784 3219 0h-660l-740 1388L531 0h-697l1722 1844-915 1656h659l672-1266 1172 1266z" transform="scale(.01563)"/></defs><use xlink:href="#DejaVuSansDisplay-222b" transform="translate(0 .81)"/><use xlink:href="#DejaVuSans-31" transform="matrix(.7 0 0 .7 86.744 85.966)"/><use xlink:href="#DejaVuSans-2212" transform="matrix(.7 0 0 .7 71.76 -51.097)"/><use xlink:href="#DejaVuSans-31" transform="matrix(.7 0 0 .7 130.412 -51.097)"/><use xlink:href="#DejaVuSans-31" transform="translate(174.948 .81)"/><use xlink:href="#DejaVuSans-2f" transform="translate(238.571 .81)"/><use xlink:href="#STIXSizeOneSym-Regular-221a" transform="matrix(.65773 0 0 .65773 272.263 20.278)"/><use xlink:href="#DejaVuSans-31" transform="translate(354.26 1.231)"/><use xlink:href="#DejaVuSans-2212" transform="translate(437.366 1.231)"/><use xlink:href="#DejaVuSans-Oblique-78" transform="translate(540.637 1.231)"/><use xlink:href="#DejaVuSans-32" transform="matrix(.7 0 0 .7 604.283 39.513)"/><path d="M341.76 116.216v6.25h322.294v-6.25H341.76"/></g></g></g><defs><clipPath id="pf962625e59"><path d="M57.6 41.472h357.12v266.112H57.6z"/></clipPath></defs></svg>