<svg xmlns="http://www.w3.org/2000/svg" xmlns:xlink="http://www.w3.org/1999/xlink" width="614.4" height="460.8" viewBox="0 0 460.8 345.6"><defs><style>*{stroke-linejoin:round;stroke-linecap:butt}</style></defs><g id="figure_1"><path id="patch_1" d="M0 345.6h460.8V0H0z" style="fill:#282a36"/><g id="axes_1"><path id="patch_2" d="M57.6 263.808h357.12V85.248H57.6z" style="fill:#282a36"/><path id="PolyCollection_1" d="m73.833 255.692 1.623-22.9 1.623-9.403 1.624-7.16 1.623-5.989 1.623-5.235 1.623-4.695 1.624-4.283 1.623-3.954 1.623-3.684 1.623-3.454 1.624-3.258 1.623-3.087 1.623-2.934 1.624-2.799 1.623-2.677 1.623-2.565 1.623-2.464 1.624-2.37 1.623-2.283 1.623-2.203 1.623-2.127 1.624-2.057 1.623-1.991 1.623-1.929 1.624-1.869 1.623-1.813 1.623-1.76 1.623-1.708 1.624-1.66 1.623-1.614 1.623-1.57 1.623-1.526 1.624-1.485 1.623-1.445 1.623-1.407 1.624-1.37 1.623-1.335 1.623-1.3 1.623-1.266 1.624-1.233 1.623-1.202 1.623-1.17 1.623-1.142 1.624-1.111 1.623-1.083 1.623-1.056 1.624-1.028 1.623-1 1.623-.976 1.623-.95 1.624-.925 1.623-.9 1.623-.876 1.623-.853 1.624-.83 1.623-.806 1.623-.784 1.624-.762 1.623-.74 1.623-.72 1.623-.698 1.624-.677 1.623-.657 1.623-.636 1.623-.616 1.624-.597 1.623-.577 1.623-.558 1.624-.539 1.623-.52 1.623-.5 1.623-.484 1.624-.464 1.623-.446 1.623-.428 1.623-.41 1.624-.393 1.623-.375 1.623-.357 1.624-.34 1.623-.323 1.623-.305 1.623-.289 1.624-.271 1.623-.255 1.623-.238 1.623-.221 1.624-.205 1.623-.188 1.623-.171 1.624-.155 1.623-.138 1.623-.122 1.623-.106 1.624-.09 1.623-.073 1.623-.057 1.623-.04 1.624-.025 1.623-.008 1.623.008 1.624.025 1.623.04 1.623.057 1.623.073 1.624.09 1.623.106 1.623.122 1.623.138 1.624.155 1.623.171 1.623.188 1.624.205 1.623.221 1.623.238 1.623.255 1.624.271 1.623.289 1.623.305 1.623.323 1.624.34 1.623.357 1.623.375 1.624.393 1.623.41 1.623.428 1.623.446 1.624.464 1.623.483 1.623.501 1.623.52 1.624.539 1.623.558 1.623.577 1.624.597 1.623.616 1.623.636 1.623.657 1.624.677 1.623.698 1.623.72 1.623.74 1.624.762 1.623.784 1.623.807 1.624.83 1.623.852 1.623.876 1.623.9 1.624.925 1.623.95 1.623.975 1.623 1.001 1.624 1.028 1.623 1.056 1.623 1.083 1.624 1.111 1.623 1.141 1.623 1.171 1.623 1.202 1.624 1.233 1.623 1.266 1.623 1.3 1.623 1.334 1.624 1.37 1.623 1.408 1.623 1.445 1.624 1.485 1.623 1.527 1.623 1.569 1.623 1.613 1.624 1.66 1.623 1.71 1.623 1.76 1.623 1.812 1.624 1.87 1.623 1.928 1.623 1.99 1.624 2.058 1.623 2.127 1.623 2.203 1.623 2.283 1.624 2.37 1.623 2.464 1.623 2.565 1.623 2.677 1.624 2.799 1.623 2.934 1.623 3.087 1.624 3.258 1.623 3.454 1.623 3.684 1.623 3.954 1.624 4.283 1.623 4.695 1.623 5.235 1.623 5.99 1.624 7.159 1.623 9.404 1.623 22.899H73.833" clip-path="url(#pbc015641a9)" style="fill:#8be9fd"/><g id="matplotlib.axis_1"><g id="xtick_1"><g id="line2d_1"><defs><path id="mbaacbf2033" d="M0 0v3.5" style="stroke:#f8f8f2;stroke-width:.8"/></defs><use xlink:href="#mbaacbf2033" x="73.833" y="263.808" style="fill:#f8f8f2;stroke:#f8f8f2;stroke-width:.8"/></g><g id="text_1" style="fill:#f8f8f2" transform="matrix(.1 0 0 -.1 58.51 278.406)"><defs><path id="DejaVuSans-2212" d="M678 2272h4006v-531H678z" transform="scale(.01563)"/><path id="DejaVuSans-31" d="M794 531h1031v3560L703 3866v575l1116 225h631V531h1031V0H794z" transform="scale(.01563)"/><path id="DejaVuSans-2e" d="M684 794h660V0H684z" transform="scale(.01563)"/><path id="DejaVuSans-30" d="M2034 4250q-487 0-733-480-245-479-245-1442 0-959 245-1439 246-480 733-480 491 0 736 480 246 480 246 1439 0 963-246 1442-245 480-736 480m0 500q785 0 1199-621 414-620 414-1801 0-1178-414-1799Q2819-91 2034-91q-784 0-1198 620-414 621-414 1799 0 1181 414 1801 414 621 1198 621" transform="scale(.01563)"/></defs><use xlink:href="#DejaVuSans-2212"/><use xlink:href="#DejaVuSans-31" x="83.789"/><use xlink:href="#DejaVuSans-2e" x="147.412"/><use xlink:href="#DejaVuSans-30" x="179.199"/><use xlink:href="#DejaVuSans-30" x="242.822"/></g></g><g id="xtick_2"><use xlink:href="#mbaacbf2033" id="line2d_2" x="114.415" y="263.808" style="fill:#f8f8f2;stroke:#f8f8f2;stroke-width:.8"/><g id="text_2" style="fill:#f8f8f2" transform="matrix(.1 0 0 -.1 99.092 278.406)"><defs><path id="DejaVuSans-37" d="M525 4666h3000v-269L1831 0h-659l1594 4134H525z" transform="scale(.01563)"/><path id="DejaVuSans-35" d="M691 4666h2478v-532H1269V2991q137 47 274 70 138 23 276 23 781 0 1237-428 457-428 457-1159 0-753-469-1171Q2575-91 1722-91q-294 0-599 50Q819 9 494 109v635q281-153 581-228t634-75q541 0 856 284 316 284 316 772 0 487-316 771-315 285-856 285-253 0-505-56-251-56-513-175z" transform="scale(.01563)"/></defs><use xlink:href="#DejaVuSans-2212"/><use xlink:href="#DejaVuSans-30" x="83.789"/><use xlink:href="#DejaVuSans-2e" x="147.412"/><use xlink:href="#DejaVuSans-37" x="179.199"/><use xlink:href="#DejaVuSans-35" x="242.822"/></g></g><g id="xtick_3"><use xlink:href="#mbaacbf2033" id="line2d_3" x="154.996" y="263.808" style="fill:#f8f8f2;stroke:#f8f8f2;stroke-width:.8"/><g id="text_3" style="fill:#f8f8f2" transform="matrix(.1 0 0 -.1 139.674 278.406)"><use xlink:href="#DejaVuSans-2212"/><use xlink:href="#DejaVuSans-30" x="83.789"/><use xlink:href="#DejaVuSans-2e" x="147.412"/><use xlink:href="#DejaVuSans-35" x="179.199"/><use xlink:href="#DejaVuSans-30" x="242.822"/></g></g><g id="xtick_4"><use xlink:href="#mbaacbf2033" id="line2d_4" x="195.578" y="263.808" style="fill:#f8f8f2;stroke:#f8f8f2;stroke-width:.8"/><g id="text_4" style="fill:#f8f8f2" transform="matrix(.1 0 0 -.1 180.256 278.406)"><defs><path id="DejaVuSans-32" d="M1228 531h2203V0H469v531q359 372 979 998 621 627 780 809 303 340 423 576 121 236 121 464 0 372-261 606-261 235-680 235-297 0-627-103-329-103-704-313v638q381 153 712 231 332 78 607 78 725 0 1156-363 431-362 431-968 0-288-108-546-107-257-392-607-78-91-497-524-418-433-1181-1211" transform="scale(.01563)"/></defs><use xlink:href="#DejaVuSans-2212"/><use xlink:href="#DejaVuSans-30" x="83.789"/><use xlink:href="#DejaVuSans-2e" x="147.412"/><use xlink:href="#DejaVuSans-32" x="179.199"/><use xlink:href="#DejaVuSans-35" x="242.822"/></g></g><g id="xtick_5"><use xlink:href="#mbaacbf2033" id="line2d_5" x="236.16" y="263.808" style="fill:#f8f8f2;stroke:#f8f8f2;stroke-width:.8"/><g id="text_5" style="fill:#f8f8f2" transform="matrix(.1 0 0 -.1 225.027 278.406)"><use xlink:href="#DejaVuSans-30"/><use xlink:href="#DejaVuSans-2e" x="63.623"/><use xlink:href="#DejaVuSans-30" x="95.41"/><use xlink:href="#DejaVuSans-30" x="159.033"/></g></g><g id="xtick_6"><use xlink:href="#mbaacbf2033" id="line2d_6" x="276.742" y="263.808" style="fill:#f8f8f2;stroke:#f8f8f2;stroke-width:.8"/><g id="text_6" style="fill:#f8f8f2" transform="matrix(.1 0 0 -.1 265.609 278.406)"><use xlink:href="#DejaVuSans-30"/><use xlink:href="#DejaVuSans-2e" x="63.623"/><use xlink:href="#DejaVuSans-32" x="95.41"/><use xlink:href="#DejaVuSans-35" x="159.033"/></g></g><g id="xtick_7"><use xlink:href="#mbaacbf2033" id="line2d_7" x="317.324" y="263.808" style="fill:#f8f8f2;stroke:#f8f8f2;stroke-width:.8"/><g id="text_7" style="fill:#f8f8f2" transform="matrix(.1 0 0 -.1 306.19 278.406)"><use xlink:href="#DejaVuSans-30"/><use xlink:href="#DejaVuSans-2e" x="63.623"/><use xlink:href="#DejaVuSans-35" x="95.41"/><use xlink:href="#DejaVuSans-30" x="159.033"/></g></g><g id="xtick_8"><use xlink:href="#mbaacbf2033" id="line2d_8" x="357.905" y="263.808" style="fill:#f8f8f2;stroke:#f8f8f2;stroke-width:.8"/><g id="text_8" style="fill:#f8f8f2" transform="matrix(.1 0 0 -.1 346.773 278.406)"><use xlink:href="#DejaVuSans-30"/><use xlink:href="#DejaVuSans-2e" x="63.623"/><use xlink:href="#DejaVuSans-37" x="95.41"/><use xlink:href="#DejaVuSans-35" x="159.033"/></g></g><g id="xtick_9"><use xlink:href="#mbaacbf2033" id="line2d_9" x="398.487" y="263.808" style="fill:#f8f8f2;stroke:#f8f8f2;stroke-width:.8"/><g id="text_9" style="fill:#f8f8f2" transform="matrix(.1 0 0 -.1 387.354 278.406)"><use xlink:href="#DejaVuSans-31"/><use xlink:href="#DejaVuSans-2e" x="63.623"/><use xlink:href="#DejaVuSans-30" x="95.41"/><use xlink:href="#DejaVuSans-30" x="159.033"/></g></g></g><g id="matplotlib.axis_2"><g id="ytick_1"><g id="line2d_10"><defs><path id="m4912d3d480" d="M0 0h-3.5" style="stroke:#f8f8f2;stroke-width:.8"/></defs><use xlink:href="#m4912d3d480" x="57.6" y="255.692" style="fill:#f8f8f2;stroke:#f8f8f2;stroke-width:.8"/></g><g id="text_10" style="fill:#f8f8f2" transform="matrix(.1 0 0 -.1 34.697 259.49)"><use xlink:href="#DejaVuSans-30"/><use xlink:href="#DejaVuSans-2e" x="63.623"/><use xlink:href="#DejaVuSans-30" x="95.41"/></g></g><g id="ytick_2"><use xlink:href="#m4912d3d480" id="line2d_11" x="57.6" y="223.226" style="fill:#f8f8f2;stroke:#f8f8f2;stroke-width:.8"/><g id="text_11" style="fill:#f8f8f2" transform="matrix(.1 0 0 -.1 34.697 227.025)"><use xlink:href="#DejaVuSans-30"/><use xlink:href="#DejaVuSans-2e" x="63.623"/><use xlink:href="#DejaVuSans-32" x="95.41"/></g></g><g id="ytick_3"><use xlink:href="#m4912d3d480" id="line2d_12" x="57.6" y="190.761" style="fill:#f8f8f2;stroke:#f8f8f2;stroke-width:.8"/><g id="text_12" style="fill:#f8f8f2" transform="matrix(.1 0 0 -.1 34.697 194.56)"><defs><path id="DejaVuSans-34" d="M2419 4116 825 1625h1594zm-166 550h794V1625h666v-525h-666V0h-628v1100H313v609z" transform="scale(.01563)"/></defs><use xlink:href="#DejaVuSans-30"/><use xlink:href="#DejaVuSans-2e" x="63.623"/><use xlink:href="#DejaVuSans-34" x="95.41"/></g></g><g id="ytick_4"><use xlink:href="#m4912d3d480" id="line2d_13" x="57.6" y="158.295" style="fill:#f8f8f2;stroke:#f8f8f2;stroke-width:.8"/><g id="text_13" style="fill:#f8f8f2" transform="matrix(.1 0 0 -.1 34.697 162.094)"><defs><path id="DejaVuSans-36" d="M2113 2584q-425 0-674-291-248-290-248-796 0-503 248-796 249-292 674-292t673 292q248 293 248 796 0 506-248 796-248 291-673 291m1253 1979v-575q-238 112-480 171-242 60-480 60-625 0-955-422-329-422-376-1275 184 272 462 417 279 145 613 145 703 0 1111-427 408-426 408-1160 0-719-425-1154Q2819-91 2113-91q-810 0-1238 620-428 621-428 1799 0 1106 525 1764t1409 658q238 0 480-47t505-140" transform="scale(.01563)"/></defs><use xlink:href="#DejaVuSans-30"/><use xlink:href="#DejaVuSans-2e" x="63.623"/><use xlink:href="#DejaVuSans-36" x="95.41"/></g></g><g id="ytick_5"><use xlink:href="#m4912d3d480" id="line2d_14" x="57.6" y="125.83" style="fill:#f8f8f2;stroke:#f8f8f2;stroke-width:.8"/><g id="text_14" style="fill:#f8f8f2" transform="matrix(.1 0 0 -.1 34.697 129.629)"><defs><path id="DejaVuSans-38" d="M2034 2216q-450 0-708-241-257-241-257-662 0-422 257-663 258-241 708-241t709 242q260 243 260 662 0 421-258 662-257 241-711 241m-631 268q-406 100-633 378-226 279-226 679 0 559 398 884 399 325 1092 325 697 0 1094-325t397-884q0-400-227-679-226-278-629-378 456-106 710-416 255-309 255-755 0-679-414-1042Q2806-91 2034-91q-771 0-1186 362-414 363-414 1042 0 446 256 755 257 310 713 416m-231 997q0-362 226-565 227-203 636-203 407 0 636 203 230 203 230 565 0 363-230 566-229 203-636 203-409 0-636-203-226-203-226-566" transform="scale(.01563)"/></defs><use xlink:href="#DejaVuSans-30"/><use xlink:href="#DejaVuSans-2e" x="63.623"/><use xlink:href="#DejaVuSans-38" x="95.41"/></g></g><g id="ytick_6"><use xlink:href="#m4912d3d480" id="line2d_15" x="57.6" y="93.364" style="fill:#f8f8f2;stroke:#f8f8f2;stroke-width:.8"/><g id="text_15" style="fill:#f8f8f2" transform="matrix(.1 0 0 -.1 34.697 97.164)"><use xlink:href="#DejaVuSans-31"/><use xlink:href="#DejaVuSans-2e" x="63.623"/><use xlink:href="#DejaVuSans-30" x="95.41"/></g></g></g><path id="line2d_16" d="m73.833 255.692 1.623-22.9 1.623-9.403 1.624-7.16 1.623-5.989 1.623-5.235 1.623-4.695 1.624-4.283 3.246-7.638 3.247-6.712 3.246-6.021 3.247-5.476 3.246-5.029 3.247-4.653 3.246-4.33 3.247-4.048 3.247-3.798 4.87-5.281 4.87-4.843 4.869-4.457 4.87-4.112 4.87-3.8 4.87-3.513 4.87-3.25 4.87-3.004 4.869-2.775 4.87-2.558 4.87-2.353 4.87-2.158 4.87-1.97 6.492-2.348 6.493-2.043 6.493-1.748 6.494-1.465 6.493-1.188 6.493-.919 6.493-.652 6.493-.39 6.493-.13 6.493.13 6.493.39 6.493.652 6.493.919 6.493 1.188 6.494 1.465 6.493 1.748 6.493 2.043 6.493 2.348 4.87 1.97 4.87 2.158 4.87 2.353 4.87 2.558 4.869 2.775 4.87 3.004 4.87 3.25 4.87 3.514 4.87 3.8 4.869 4.11 4.87 4.458 4.87 4.843 4.87 5.281 3.246 3.798 3.247 4.048 3.246 4.33 3.247 4.653 3.246 5.03 3.247 5.475 3.246 6.02 3.247 6.713 3.246 7.638 1.624 4.283 1.623 4.695 1.623 5.235 1.623 5.99 1.624 7.159 1.623 9.404 1.623 22.899h0" clip-path="url(#pbc015641a9)" style="fill:none;stroke:#8be9fd;stroke-width:1.5;stroke-linecap:square"/><path id="patch_3" d="M57.6 263.808V85.248" style="fill:none;stroke:#f8f8f2;stroke-width:.8;stroke-linejoin:miter;stroke-linecap:square"/><path id="patch_4" d="M414.72 263.808V85.248" style="fill:none;stroke:#f8f8f2;stroke-width:.8;stroke-linejoin:miter;stroke-linecap:square"/><path id="patch_5" d="M57.6 263.808h357.12" style="fill:none;stroke:#f8f8f2;stroke-width:.8;stroke-linejoin:miter;stroke-linecap:square"/><path id="patch_6" d="M57.6 85.248h357.12" style="fill:none;stroke:#f8f8f2;stroke-width:.8;stroke-linejoin:miter;stroke-linecap:square"/><g id="text_16" style="fill:#f8f8f2" transform="matrix(.12 0 0 -.12 202.14 79.008)"><defs><path id="DejaVuSansDisplay-222b" d="M2134 5525q38 738 394 1031 356 294 690 294 335 0 615-275t367-897l-656-65q-75 575-325 575-313 0-350-775L2581-597q-34-737-394-1031-359-294-690-294-334 0-614 275T516-750l656 66q75-575 325-575 312 0 350 771z" transform="scale(.01563)"/><path id="STIXSizeOneSym-Regular-221a" d="M6970 9933 3373-1888h-269L1626 2918q-71 231-161 333-89 103-236 103-218 0-435-173l-77 128 1049 806h160L3379-602h26L6605 9933z" transform="scale(.01563)"/><path id="DejaVuSans-Oblique-78" d="M3841 3500 2234 1784 3219 0h-660l-740 1388L531 0h-697l1722 1844-915 1656h659l672-1266 1172 1266z" transform="scale(.01563)"/></defs><use xlink:href="#DejaVuSansDisplay-222b" transform="translate(0 .81)"/><use xlink:href="#DejaVuSans-31" transform="matrix(.7 0 0 .7 86.744 85.966)"/><use xlink:href="#DejaVuSans-2212" transform="matrix(.7 0 0 .7 71.76 -51.097)"/><use xlink:href="#DejaVuSans-31" transform="matrix(.7 0 0 .7 130.412 -51.097)"/><use xlink:href="#STIXSizeOneSym-Regular-221a" transform="matrix(.65773 0 0 .65773 174.948 20.278)"/><use xlink:href="#DejaVuSans-31" transform="translate(256.946 1.231)"/><use xlink:href="#DejaVuSans-2212" transform="translate(340.051 1.231)"/><use xlink:href="#DejaVuSans-Oblique-78" transform="translate(443.323 1.231)"/><use xlink:href="#DejaVuSans-32" transform="matrix(.7 0 0 .7 506.969 39.513)"/><path d="M244.446 116.216v6.25h322.293v-6.25H244.446"/></g></g></g><defs><clipPath id="pbc015641a9"><path d="M57.6 85.248h357.12v178.56H57.6z"/></clipPath></defs></svg>