<svg xmlns="http://www.w3.org/2000/svg" xmlns:xlink="http://www.w3.org/1999/xlink" width="614.4" height="460.8" viewBox="0 0 460.8 345.6"><defs><style>*{stroke-linejoin:round;stroke-linecap:butt}</style></defs><g id="figure_1"><path id="patch_1" d="M0 345.6h460.8V0H0z" style="fill:#282a36"/><g id="axes_1"><path id="patch_2" d="M57.6 307.584h357.12V41.472H57.6z" style="fill:#282a36"/><g id="matplotlib.axis_1"><g id="xtick_1"><g id="line2d_1"><defs><path id="mfed22a133a" d="M0 0v3.5" style="stroke:#f8f8f2;stroke-width:.8"/></defs><use xlink:href="#mfed22a133a" x="106.298" y="307.584" style="fill:#f8f8f2;stroke:#f8f8f2;stroke-width:.8"/></g><g id="text_1" style="fill:#f8f8f2" transform="matrix(.1 0 0 -.1 98.927 322.182)"><defs><path id="DejaVuSans-2212" d="M678 2272h4006v-531H678v531z" transform="scale(.01563)"/><path id="DejaVuSans-34" d="M2419 4116 825 1625h1594v2491zm-166 550h794V1625h666v-525h-666V0h-628v1100H313v609l1940 2957z" transform="scale(.01563)"/></defs><use xlink:href="#DejaVuSans-2212"/><use xlink:href="#DejaVuSans-34" x="83.789"/></g></g><g id="xtick_2"><use xlink:href="#mfed22a133a" id="line2d_2" x="171.229" y="307.584" style="fill:#f8f8f2;stroke:#f8f8f2;stroke-width:.8"/><g id="text_2" style="fill:#f8f8f2" transform="matrix(.1 0 0 -.1 163.858 322.182)"><defs><path id="DejaVuSans-32" d="M1228 531h2203V0H469v531q359 372 979 998 621 627 780 809 303 340 423 576 121 236 121 464 0 372-261 606-261 235-680 235-297 0-627-103-329-103-704-313v638q381 153 712 231 332 78 607 78 725 0 1156-363 431-362 431-968 0-288-108-546-107-257-392-607-78-91-497-524-418-433-1181-1211z" transform="scale(.01563)"/></defs><use xlink:href="#DejaVuSans-2212"/><use xlink:href="#DejaVuSans-32" x="83.789"/></g></g><g id="xtick_3"><use xlink:href="#mfed22a133a" id="line2d_3" x="236.16" y="307.584" style="fill:#f8f8f2;stroke:#f8f8f2;stroke-width:.8"/><g id="text_3" style="fill:#f8f8f2" transform="matrix(.1 0 0 -.1 232.979 322.182)"><defs><path id="DejaVuSans-30" d="M2034 4250q-487 0-733-480-245-479-245-1442 0-959 245-1439 246-480 733-480 491 0 736 480 246 480 246 1439 0 963-246 1442-245 480-736 480zm0 500q785 0 1199-621 414-620 414-1801 0-1178-414-1799Q2819-91 2034-91q-784 0-1198 620-414 621-414 1799 0 1181 414 1801 414 621 1198 621z" transform="scale(.01563)"/></defs><use xlink:href="#DejaVuSans-30"/></g></g><g id="xtick_4"><use xlink:href="#mfed22a133a" id="line2d_4" x="301.091" y="307.584" style="fill:#f8f8f2;stroke:#f8f8f2;stroke-width:.8"/><use xlink:href="#DejaVuSans-32" id="text_4" style="fill:#f8f8f2" transform="matrix(.1 0 0 -.1 297.91 322.182)"/></g><g id="xtick_5"><use xlink:href="#mfed22a133a" id="line2d_5" x="366.022" y="307.584" style="fill:#f8f8f2;stroke:#f8f8f2;stroke-width:.8"/><use xlink:href="#DejaVuSans-34" id="text_5" style="fill:#f8f8f2" transform="matrix(.1 0 0 -.1 362.84 322.182)"/></g></g><g id="matplotlib.axis_2"><g id="ytick_1"><g id="line2d_6"><defs><path id="m56aa379134" d="M0 0h-3.5" style="stroke:#f8f8f2;stroke-width:.8"/></defs><use xlink:href="#m56aa379134" x="57.6" y="295.488" style="fill:#f8f8f2;stroke:#f8f8f2;stroke-width:.8"/></g><g id="text_6" style="fill:#f8f8f2" transform="matrix(.1 0 0 -.1 19.955 299.287)"><defs><path id="DejaVuSans-31" d="M794 531h1031v3560L703 3866v575l1116 225h631V531h1031V0H794v531z" transform="scale(.01563)"/><path id="DejaVuSans-2e" d="M684 794h660V0H684v794z" transform="scale(.01563)"/></defs><use xlink:href="#DejaVuSans-2212"/><use xlink:href="#DejaVuSans-31" x="83.789"/><use xlink:href="#DejaVuSans-2e" x="147.412"/><use xlink:href="#DejaVuSans-30" x="179.199"/><use xlink:href="#DejaVuSans-30" x="242.822"/></g></g><g id="ytick_2"><use xlink:href="#m56aa379134" id="line2d_7" x="57.6" y="265.248" style="fill:#f8f8f2;stroke:#f8f8f2;stroke-width:.8"/><g id="text_7" style="fill:#f8f8f2" transform="matrix(.1 0 0 -.1 19.955 269.047)"><defs><path id="DejaVuSans-37" d="M525 4666h3000v-269L1831 0h-659l1594 4134H525v532z" transform="scale(.01563)"/><path id="DejaVuSans-35" d="M691 4666h2478v-532H1269V2991q137 47 274 70 138 23 276 23 781 0 1237-428 457-428 457-1159 0-753-469-1171Q2575-91 1722-91q-294 0-599 50Q819 9 494 109v635q281-153 581-228t634-75q541 0 856 284 316 284 316 772 0 487-316 771-315 285-856 285-253 0-505-56-251-56-513-175v2344z" transform="scale(.01563)"/></defs><use xlink:href="#DejaVuSans-2212"/><use xlink:href="#DejaVuSans-30" x="83.789"/><use xlink:href="#DejaVuSans-2e" x="147.412"/><use xlink:href="#DejaVuSans-37" x="179.199"/><use xlink:href="#DejaVuSans-35" x="242.822"/></g></g><g id="ytick_3"><use xlink:href="#m56aa379134" id="line2d_8" x="57.6" y="235.008" style="fill:#f8f8f2;stroke:#f8f8f2;stroke-width:.8"/><g id="text_8" style="fill:#f8f8f2" transform="matrix(.1 0 0 -.1 19.955 238.807)"><use xlink:href="#DejaVuSans-2212"/><use xlink:href="#DejaVuSans-30" x="83.789"/><use xlink:href="#DejaVuSans-2e" x="147.412"/><use xlink:href="#DejaVuSans-35" x="179.199"/><use xlink:href="#DejaVuSans-30" x="242.822"/></g></g><g id="ytick_4"><use xlink:href="#m56aa379134" id="line2d_9" x="57.6" y="204.768" style="fill:#f8f8f2;stroke:#f8f8f2;stroke-width:.8"/><g id="text_9" style="fill:#f8f8f2" transform="matrix(.1 0 0 -.1 19.955 208.567)"><use xlink:href="#DejaVuSans-2212"/><use xlink:href="#DejaVuSans-30" x="83.789"/><use xlink:href="#DejaVuSans-2e" x="147.412"/><use xlink:href="#DejaVuSans-32" x="179.199"/><use xlink:href="#DejaVuSans-35" x="242.822"/></g></g><g id="ytick_5"><use xlink:href="#m56aa379134" id="line2d_10" x="57.6" y="174.528" style="fill:#f8f8f2;stroke:#f8f8f2;stroke-width:.8"/><g id="text_10" style="fill:#f8f8f2" transform="matrix(.1 0 0 -.1 28.334 178.327)"><use xlink:href="#DejaVuSans-30"/><use xlink:href="#DejaVuSans-2e" x="63.623"/><use xlink:href="#DejaVuSans-30" x="95.41"/><use xlink:href="#DejaVuSans-30" x="159.033"/></g></g><g id="ytick_6"><use xlink:href="#m56aa379134" id="line2d_11" x="57.6" y="144.288" style="fill:#f8f8f2;stroke:#f8f8f2;stroke-width:.8"/><g id="text_11" style="fill:#f8f8f2" transform="matrix(.1 0 0 -.1 28.334 148.087)"><use xlink:href="#DejaVuSans-30"/><use xlink:href="#DejaVuSans-2e" x="63.623"/><use xlink:href="#DejaVuSans-32" x="95.41"/><use xlink:href="#DejaVuSans-35" x="159.033"/></g></g><g id="ytick_7"><use xlink:href="#m56aa379134" id="line2d_12" x="57.6" y="114.048" style="fill:#f8f8f2;stroke:#f8f8f2;stroke-width:.8"/><g id="text_12" style="fill:#f8f8f2" transform="matrix(.1 0 0 -.1 28.334 117.847)"><use xlink:href="#DejaVuSans-30"/><use xlink:href="#DejaVuSans-2e" x="63.623"/><use xlink:href="#DejaVuSans-35" x="95.41"/><use xlink:href="#DejaVuSans-30" x="159.033"/></g></g><g id="ytick_8"><use xlink:href="#m56aa379134" id="line2d_13" x="57.6" y="83.808" style="fill:#f8f8f2;stroke:#f8f8f2;stroke-width:.8"/><g id="text_13" style="fill:#f8f8f2" transform="matrix(.1 0 0 -.1 28.334 87.607)"><use xlink:href="#DejaVuSans-30"/><use xlink:href="#DejaVuSans-2e" x="63.623"/><use xlink:href="#DejaVuSans-37" x="95.41"/><use xlink:href="#DejaVuSans-35" x="159.033"/></g></g><g id="ytick_9"><use xlink:href="#m56aa379134" id="line2d_14" x="57.6" y="53.568" style="fill:#f8f8f2;stroke:#f8f8f2;stroke-width:.8"/><g id="text_14" style="fill:#f8f8f2" transform="matrix(.1 0 0 -.1 28.334 57.367)"><use xlink:href="#DejaVuSans-31"/><use xlink:href="#DejaVuSans-2e" x="63.623"/><use xlink:href="#DejaVuSans-30" x="95.41"/><use xlink:href="#DejaVuSans-30" x="159.033"/></g></g></g><path id="line2d_15" d="m73.833 295.488 86.033-.108 8.117-.252 4.87-.344 4.87-.616 3.246-.64 3.246-.9 3.247-1.24 3.246-1.672 1.624-1.03 1.623-1.18 1.623-1.344 1.623-1.522 1.624-1.717 1.623-1.925 1.623-2.15 1.624-2.387 1.623-2.638 1.623-2.901 1.623-3.174 1.624-3.455 1.623-3.744 3.246-8.361 3.247-9.52 3.247-10.626 3.246-11.624 3.247-12.466 4.87-19.82 11.362-47.028 3.247-12.466 3.246-11.624 3.247-10.626 3.247-9.52 3.246-8.361 1.623-3.744 1.624-3.455 1.623-3.174 1.623-2.901 1.623-2.638 1.624-2.387 1.623-2.15 1.623-1.925 1.624-1.717 1.623-1.522 1.623-1.344 1.623-1.18 1.624-1.03 3.246-1.672 3.247-1.24 3.246-.9 3.247-.64 3.246-.448 4.87-.42 6.493-.275 9.74-.14 25.972-.037h53.568" clip-path="url(#pdb0df22ab0)" style="fill:none;stroke:#8be9fd;stroke-width:1.5;stroke-linecap:square"/><path id="line2d_16" d="m73.833 295.488 53.568-.098 11.363-.229 8.116-.394 6.493-.582 4.87-.68 4.87-.974 3.246-.86 3.247-1.065 3.246-1.308 3.247-1.59 3.246-1.911 3.247-2.277 3.247-2.685 3.246-3.135 3.247-3.624 3.246-4.147 3.247-4.698 3.246-5.271 3.247-5.854 3.246-6.437 3.247-7.007 3.246-7.552 3.247-8.06 3.247-8.514 4.87-13.483 6.492-18.89 12.987-38.16 4.87-13.483 3.246-8.515 3.247-8.059 3.246-7.552 3.247-7.007 3.246-6.437 3.247-5.854 3.246-5.27 3.247-4.7 3.246-4.146 3.247-3.624 3.246-3.135 3.247-2.685 3.247-2.277 3.246-1.912 3.247-1.589 3.246-1.308 3.247-1.065 3.246-.86 3.247-.686 4.87-.769 4.87-.528 6.493-.445 8.116-.295 11.363-.166 24.349-.065 25.972-.003h0" clip-path="url(#pdb0df22ab0)" style="fill:none;stroke:#ffb86c;stroke-width:1.5;stroke-linecap:square"/><path id="patch_3" d="M57.6 307.584V41.472" style="fill:none;stroke:#f8f8f2;stroke-width:.8;stroke-linejoin:miter;stroke-linecap:square"/><path id="patch_4" d="M414.72 307.584V41.472" style="fill:none;stroke:#f8f8f2;stroke-width:.8;stroke-linejoin:miter;stroke-linecap:square"/><path id="patch_5" d="M57.6 307.584h357.12" style="fill:none;stroke:#f8f8f2;stroke-width:.8;stroke-linejoin:miter;stroke-linecap:square"/><path id="patch_6" d="M57.6 41.472h357.12" style="fill:none;stroke:#f8f8f2;stroke-width:.8;stroke-linejoin:miter;stroke-linecap:square"/><g id="legend_1"><path id="line2d_17" d="M66.6 54.57h20" style="fill:none;stroke:#8be9fd;stroke-width:1.5;stroke-linecap:square"/><g id="text_15" style="fill:#f8f8f2" transform="matrix(.1 0 0 -.1 94.6 58.07)"><defs><path id="DejaVuSans-65" d="M3597 1894v-281H953q38-594 358-905t892-311q331 0 642 81t618 244V178Q3153 47 2828-22t-659-69q-838 0-1327 487-489 488-489 1320 0 859 464 1363 464 505 1252 505 706 0 1117-455 411-454 411-1235zm-575 169q-6 471-264 752-258 282-683 282-481 0-770-272t-333-766l2050 4z" transform="scale(.01563)"/><path id="DejaVuSans-72" d="M2631 2963q-97 56-211 82-114 27-251 27-488 0-749-317t-261-911V0H581v3500h578v-544q182 319 472 473 291 155 707 155 59 0 131-8 72-7 159-23l3-590z" transform="scale(.01563)"/><path id="DejaVuSans-66" d="M2375 4863v-479h-550q-309 0-430-125-120-125-120-450v-309h947v-447h-947V0H697v3053H147v447h550v244q0 584 272 851 272 268 862 268h544z" transform="scale(.01563)"/></defs><use xlink:href="#DejaVuSans-65" transform="translate(0 .016)"/><use xlink:href="#DejaVuSans-72" transform="translate(61.523 .016)"/><use xlink:href="#DejaVuSans-66" transform="translate(102.637 .016)"/></g><path id="line2d_18" d="M66.6 69.249h20" style="fill:none;stroke:#ffb86c;stroke-width:1.5;stroke-linecap:square"/><g id="text_16" style="fill:#f8f8f2" transform="matrix(.1 0 0 -.1 94.6 72.749)"><use xlink:href="#DejaVuSans-65" transform="translate(0 .016)"/><use xlink:href="#DejaVuSans-72" transform="translate(61.523 .016)"/><use xlink:href="#DejaVuSans-66" transform="translate(102.637 .016)"/><use xlink:href="#DejaVuSans-31" transform="matrix(.7 0 0 .7 138.799 -16.39)"/></g></g></g></g><defs><clipPath id="pdb0df22ab0"><path d="M57.6 41.472h357.12v266.112H57.6z"/></clipPath></defs></svg>