<svg xmlns="http://www.w3.org/2000/svg" xmlns:xlink="http://www.w3.org/1999/xlink" width="614.4" height="460.8" viewBox="0 0 460.8 345.6"><defs><style>*{stroke-linejoin:round;stroke-linecap:butt}</style></defs><g id="figure_1"><path id="patch_1" d="M0 345.6h460.8V0H0z" style="fill:#282a36"/><g id="axes_1"><path id="patch_2" d="M57.6 307.584h357.12V41.472H57.6z" style="fill:#282a36"/><g id="matplotlib.axis_1"><g id="xtick_1"><g id="line2d_1"><defs><path id="m29ba3088a1" d="M0 0v3.5" style="stroke:#f8f8f2;stroke-width:.8"/></defs><use xlink:href="#m29ba3088a1" x="73.508" y="307.584" style="fill:#f8f8f2;stroke:#f8f8f2;stroke-width:.8"/></g><g id="text_1" style="fill:#f8f8f2" transform="matrix(.1 0 0 -.1 70.326 322.182)"><defs><path id="DejaVuSans-30" d="M2034 4250q-487 0-733-480-245-479-245-1442 0-959 245-1439 246-480 733-480 491 0 736 480 246 480 246 1439 0 963-246 1442-245 480-736 480zm0 500q785 0 1199-621 414-620 414-1801 0-1178-414-1799Q2819-91 2034-91q-784 0-1198 620-414 621-414 1799 0 1181 414 1801 414 621 1198 621z" transform="scale(.01563)"/></defs><use xlink:href="#DejaVuSans-30"/></g></g><g id="xtick_2"><use xlink:href="#m29ba3088a1" id="line2d_2" x="127.671" y="307.584" style="fill:#f8f8f2;stroke:#f8f8f2;stroke-width:.8"/><g id="text_2" style="fill:#f8f8f2" transform="matrix(.1 0 0 -.1 124.49 322.182)"><defs><path id="DejaVuSans-31" d="M794 531h1031v3560L703 3866v575l1116 225h631V531h1031V0H794v531z" transform="scale(.01563)"/></defs><use xlink:href="#DejaVuSans-31"/></g></g><g id="xtick_3"><use xlink:href="#m29ba3088a1" id="line2d_3" x="181.834" y="307.584" style="fill:#f8f8f2;stroke:#f8f8f2;stroke-width:.8"/><g id="text_3" style="fill:#f8f8f2" transform="matrix(.1 0 0 -.1 178.653 322.182)"><defs><path id="DejaVuSans-32" d="M1228 531h2203V0H469v531q359 372 979 998 621 627 780 809 303 340 423 576 121 236 121 464 0 372-261 606-261 235-680 235-297 0-627-103-329-103-704-313v638q381 153 712 231 332 78 607 78 725 0 1156-363 431-362 431-968 0-288-108-546-107-257-392-607-78-91-497-524-418-433-1181-1211z" transform="scale(.01563)"/></defs><use xlink:href="#DejaVuSans-32"/></g></g><g id="xtick_4"><use xlink:href="#m29ba3088a1" id="line2d_4" x="235.998" y="307.584" style="fill:#f8f8f2;stroke:#f8f8f2;stroke-width:.8"/><g id="text_4" style="fill:#f8f8f2" transform="matrix(.1 0 0 -.1 232.816 322.182)"><defs><path id="DejaVuSans-33" d="M2597 2516q453-97 707-404 255-306 255-756 0-690-475-1069Q2609-91 1734-91q-293 0-604 58T488 141v609q262-153 574-231 313-78 654-78 593 0 904 234t311 681q0 413-289 645-289 233-804 233h-544v519h569q465 0 712 186t247 536q0 359-255 551-254 193-729 193-260 0-557-57-297-56-653-174v562q360 100 674 150t592 50q719 0 1137-327 419-326 419-882 0-388-222-655t-631-370z" transform="scale(.01563)"/></defs><use xlink:href="#DejaVuSans-33"/></g></g><g id="xtick_5"><use xlink:href="#m29ba3088a1" id="line2d_5" x="290.161" y="307.584" style="fill:#f8f8f2;stroke:#f8f8f2;stroke-width:.8"/><g id="text_5" style="fill:#f8f8f2" transform="matrix(.1 0 0 -.1 286.98 322.182)"><defs><path id="DejaVuSans-34" d="M2419 4116 825 1625h1594v2491zm-166 550h794V1625h666v-525h-666V0h-628v1100H313v609l1940 2957z" transform="scale(.01563)"/></defs><use xlink:href="#DejaVuSans-34"/></g></g><g id="xtick_6"><use xlink:href="#m29ba3088a1" id="line2d_6" x="344.324" y="307.584" style="fill:#f8f8f2;stroke:#f8f8f2;stroke-width:.8"/><g id="text_6" style="fill:#f8f8f2" transform="matrix(.1 0 0 -.1 341.143 322.182)"><defs><path id="DejaVuSans-35" d="M691 4666h2478v-532H1269V2991q137 47 274 70 138 23 276 23 781 0 1237-428 457-428 457-1159 0-753-469-1171Q2575-91 1722-91q-294 0-599 50Q819 9 494 109v635q281-153 581-228t634-75q541 0 856 284 316 284 316 772 0 487-316 771-315 285-856 285-253 0-505-56-251-56-513-175v2344z" transform="scale(.01563)"/></defs><use xlink:href="#DejaVuSans-35"/></g></g><g id="xtick_7"><use xlink:href="#m29ba3088a1" id="line2d_7" x="398.487" y="307.584" style="fill:#f8f8f2;stroke:#f8f8f2;stroke-width:.8"/><g id="text_7" style="fill:#f8f8f2" transform="matrix(.1 0 0 -.1 395.306 322.182)"><defs><path id="DejaVuSans-36" d="M2113 2584q-425 0-674-291-248-290-248-796 0-503 248-796 249-292 674-292t673 292q248 293 248 796 0 506-248 796-248 291-673 291zm1253 1979v-575q-238 112-480 171-242 60-480 60-625 0-955-422-329-422-376-1275 184 272 462 417 279 145 613 145 703 0 1111-427 408-426 408-1160 0-719-425-1154Q2819-91 2113-91q-810 0-1238 620-428 621-428 1799 0 1106 525 1764t1409 658q238 0 480-47t505-140z" transform="scale(.01563)"/></defs><use xlink:href="#DejaVuSans-36"/></g></g><g id="text_8" style="fill:#f8f8f2" transform="matrix(.1 0 0 -.1 233.16 335.86)"><defs><path id="DejaVuSans-Oblique-78" d="M3841 3500 2234 1784 3219 0h-660l-740 1388L531 0h-697l1722 1844-915 1656h659l672-1266 1172 1266h697z" transform="scale(.01563)"/></defs><use xlink:href="#DejaVuSans-Oblique-78" transform="translate(0 .313)"/></g></g><g id="matplotlib.axis_2"><g id="ytick_1"><g id="line2d_8"><defs><path id="mcb77966a19" d="M0 0h-3.5" style="stroke:#f8f8f2;stroke-width:.8"/></defs><use xlink:href="#mcb77966a19" x="57.6" y="307.584" style="fill:#f8f8f2;stroke:#f8f8f2;stroke-width:.8"/></g><use xlink:href="#DejaVuSans-30" id="text_9" style="fill:#f8f8f2" transform="matrix(.1 0 0 -.1 44.237 311.383)"/></g><g id="ytick_2"><use xlink:href="#mcb77966a19" id="line2d_9" x="57.6" y="254.362" style="fill:#f8f8f2;stroke:#f8f8f2;stroke-width:.8"/><g id="text_10" style="fill:#f8f8f2" transform="matrix(.1 0 0 -.1 37.875 258.16)"><use xlink:href="#DejaVuSans-32"/><use xlink:href="#DejaVuSans-30" x="63.623"/></g></g><g id="ytick_3"><use xlink:href="#mcb77966a19" id="line2d_10" x="57.6" y="201.139" style="fill:#f8f8f2;stroke:#f8f8f2;stroke-width:.8"/><g id="text_11" style="fill:#f8f8f2" transform="matrix(.1 0 0 -.1 37.875 204.938)"><use xlink:href="#DejaVuSans-34"/><use xlink:href="#DejaVuSans-30" x="63.623"/></g></g><g id="ytick_4"><use xlink:href="#mcb77966a19" id="line2d_11" x="57.6" y="147.917" style="fill:#f8f8f2;stroke:#f8f8f2;stroke-width:.8"/><g id="text_12" style="fill:#f8f8f2" transform="matrix(.1 0 0 -.1 37.875 151.716)"><use xlink:href="#DejaVuSans-36"/><use xlink:href="#DejaVuSans-30" x="63.623"/></g></g><g id="ytick_5"><use xlink:href="#mcb77966a19" id="line2d_12" x="57.6" y="94.694" style="fill:#f8f8f2;stroke:#f8f8f2;stroke-width:.8"/><g id="text_13" style="fill:#f8f8f2" transform="matrix(.1 0 0 -.1 37.875 98.494)"><defs><path id="DejaVuSans-38" d="M2034 2216q-450 0-708-241-257-241-257-662 0-422 257-663 258-241 708-241t709 242q260 243 260 662 0 421-258 662-257 241-711 241zm-631 268q-406 100-633 378-226 279-226 679 0 559 398 884 399 325 1092 325 697 0 1094-325t397-884q0-400-227-679-226-278-629-378 456-106 710-416 255-309 255-755 0-679-414-1042Q2806-91 2034-91q-771 0-1186 362-414 363-414 1042 0 446 256 755 257 310 713 416zm-231 997q0-362 226-565 227-203 636-203 407 0 636 203 230 203 230 565 0 363-230 566-229 203-636 203-409 0-636-203-226-203-226-566z" transform="scale(.01563)"/></defs><use xlink:href="#DejaVuSans-38"/><use xlink:href="#DejaVuSans-30" x="63.623"/></g></g><g id="ytick_6"><use xlink:href="#mcb77966a19" id="line2d_13" x="57.6" y="41.472" style="fill:#f8f8f2;stroke:#f8f8f2;stroke-width:.8"/><g id="text_14" style="fill:#f8f8f2" transform="matrix(.1 0 0 -.1 31.512 45.271)"><use xlink:href="#DejaVuSans-31"/><use xlink:href="#DejaVuSans-30" x="63.623"/><use xlink:href="#DejaVuSans-30" x="127.246"/></g></g></g><path id="line2d_14" d="m74.028-1 .13 88.329.325 73.904.325 36.945.65 36.93.65 18.451.65 11.06.65 7.363.65 5.253.65 3.933.974 4.337.975 3.144.975 2.382.975 1.864 1.3 1.933 1.3 1.495 1.3 1.187 1.625 1.179 1.95 1.098 2.275.98 2.6.853 2.924.727 3.575.663 4.55.611 5.85.542 7.474.45 9.75.348 12.673.216 15.924.04 17.874-.178 17.224-.39 15.274-.563 13-.692 11.374-.822 10.074-.95 8.775-1.048 7.8-1.148 7.149-1.275 6.5-1.385 5.849-1.466 5.524-1.612 5.2-1.754 4.875-1.886 4.55-2.004 4.224-2.103 3.9-2.176 3.9-2.43 3.575-2.478 3.574-2.747 3.575-3.047 3.25-3.06 3.25-3.366 3.25-3.706 2.924-3.656 2.925-3.99 2.925-4.358 2.925-4.762 2.925-5.205 2.924-5.692 2.925-6.228 2.925-6.818 2.6-6.604 2.6-7.163 2.6-7.771 2.6-8.436 2.6-9.16 2.6-9.95 2.599-10.813 2.6-11.753 2.6-12.782 2.6-13.904 2.6-15.132 2.6-16.472 2.599-17.94 2.6-19.542 2.6-21.298 2.6-23.218L397.398-1h0" clip-path="url(#pbabe2403da)" style="fill:none;stroke:#8be9fd;stroke-width:1.5;stroke-linecap:square"/><path id="patch_3" d="M57.6 307.584V41.472" style="fill:none;stroke:#f8f8f2;stroke-width:.8;stroke-linejoin:miter;stroke-linecap:square"/><path id="patch_4" d="M414.72 307.584V41.472" style="fill:none;stroke:#f8f8f2;stroke-width:.8;stroke-linejoin:miter;stroke-linecap:square"/><path id="patch_5" d="M57.6 307.584h357.12" style="fill:none;stroke:#f8f8f2;stroke-width:.8;stroke-linejoin:miter;stroke-linecap:square"/><path id="patch_6" d="M57.6 41.472h357.12" style="fill:none;stroke:#f8f8f2;stroke-width:.8;stroke-linejoin:miter;stroke-linecap:square"/><g id="text_15" style="fill:#f8f8f2" transform="matrix(.12 0 0 -.12 224.58 35.472)"><defs><path id="DejaVuSans-393" d="M628 0v4666h2903v-532H1259V0H628z" transform="scale(.01563)"/><path id="DejaVuSans-28" d="M1984 4856q-418-718-622-1422-203-703-203-1425 0-721 205-1429t620-1424h-500Q1016-109 783 600T550 2009q0 697 231 1403 232 707 703 1444h500z" transform="scale(.01563)"/><path id="DejaVuSans-29" d="M513 4856h500q468-737 701-1444 233-706 233-1403 0-700-233-1409T1013-844H513q415 716 620 1424t205 1429q0 722-205 1425-205 704-620 1422z" transform="scale(.01563)"/></defs><use xlink:href="#DejaVuSans-393" transform="translate(0 .125)"/><use xlink:href="#DejaVuSans-28" transform="translate(55.713 .125)"/><use xlink:href="#DejaVuSans-Oblique-78" transform="translate(94.727 .125)"/><use xlink:href="#DejaVuSans-29" transform="translate(153.906 .125)"/></g></g></g><defs><clipPath id="pbabe2403da"><path d="M57.6 41.472h357.12v266.112H57.6z"/></clipPath></defs></svg>