<svg xmlns="http://www.w3.org/2000/svg" xmlns:xlink="http://www.w3.org/1999/xlink" width="614.4" height="460.8" viewBox="0 0 460.8 345.6"><defs><style>*{stroke-linejoin:round;stroke-linecap:butt}</style></defs><g id="figure_1"><path id="patch_1" d="M0 345.6h460.8V0H0z" style="fill:#282a36"/><g id="axes_1"><path id="patch_2" d="M57.6 307.584h357.12V41.472H57.6z" style="fill:#282a36"/><path id="PolyCollection_1" d="m73.833 295.488 1.623-.001h3.247l1.623-.001 1.623-.001h1.623l1.624-.002 1.623-.001 1.623-.002 1.623-.002 1.624-.002 1.623-.003 1.623-.004 1.624-.004 1.623-.006 1.623-.007 1.623-.008 1.624-.01 1.623-.012 1.623-.015 1.623-.018 1.624-.021 1.623-.026 1.623-.031 1.624-.037 1.623-.044 1.623-.052 1.623-.061 1.624-.073 1.623-.085 1.623-.1 1.623-.118 1.624-.138 1.623-.16 1.623-.185 1.624-.216 1.623-.248 1.623-.287 1.623-.33 1.624-.376 1.623-.432 1.623-.49 1.623-.559 1.624-.632 1.623-.714 1.623-.805 1.624-.905 1.623-1.013 1.623-1.132 1.623-1.26 1.624-1.4 1.623-1.551 1.623-1.712 1.623-1.886 1.624-2.069 1.623-2.265 1.623-2.471 1.624-2.689 1.623-2.916 1.623-3.152 1.623-3.398 1.624-3.652 1.623-3.91 1.623-4.176 1.623-4.443 1.624-4.713 1.623-4.982 1.623-5.249 1.624-5.51 1.623-5.767 1.623-6.011 1.623-6.244 1.624-6.462 1.623-6.662 1.623-6.84 1.623-6.996 1.624-7.125 1.623-7.226 1.623-7.295 1.624-7.33 1.623-7.331 1.623-7.293 1.623-7.216 1.624-7.099 1.623-6.94 1.623-6.742 1.623-6.5 1.624-6.217 1.623-5.893 1.623-5.532 1.624-5.13 1.623-4.696 1.623-4.227 1.623-3.728 1.624-3.202 1.623-2.653 1.623-2.084 1.623-1.5 1.624-.904 1.623-.302 1.623.302 1.624.905 1.623 1.5 1.623 2.083 1.623 2.653 1.624 3.202 1.623 3.728 1.623 4.227 1.623 4.695 1.624 5.131 1.623 5.532 1.623 5.893 1.624 6.217 1.623 6.5 1.623 6.741 1.623 6.941 1.624 7.099 1.623 7.216 1.623 7.293 1.623 7.33 1.624 7.33 1.623 7.296 1.623 7.226 1.624 7.125 1.623 6.996 1.623 6.84 1.623 6.662 1.624 6.462 1.623 6.244 1.623 6.011 1.623 5.766 1.624 5.511 1.623 5.25 1.623 4.981 1.624 4.713 1.623 4.443 1.623 4.176 1.623 3.91 1.624 3.652 1.623 3.398 1.623 3.152 1.623 2.916 1.624 2.689 1.623 2.471 1.623 2.265 1.624 2.07 1.623 1.885 1.623 1.712 1.623 1.55 1.624 1.4 1.623 1.261 1.623 1.132 1.623 1.013 1.624.905 1.623.805 1.623.714 1.624.632 1.623.558 1.623.491 1.623.432 1.624.377 1.623.329 1.623.287 1.623.248 1.624.216 1.623.185 1.623.16 1.624.138 1.623.117 1.623.1 1.623.086 1.624.073 1.623.061 1.623.052 1.623.044 1.624.037 1.623.03 1.623.027 1.624.021 1.623.018 1.623.015 1.623.012 1.624.01 1.623.008 1.623.007 1.623.006 1.624.004 1.623.004 1.623.003 1.624.002 1.623.002 1.623.002 1.623.001 1.624.001 1.623.001h1.623l1.623.001h3.247l1.623.001v.001H73.833" clip-path="url(#p6b761fe10b)" style="fill:#ffb86c"/><g id="matplotlib.axis_1"><g id="xtick_1"><g id="line2d_1"><defs><path id="mccfd2edd0f" d="M0 0v3.5" style="stroke:#f8f8f2;stroke-width:.8"/></defs><use xlink:href="#mccfd2edd0f" x="106.298" y="307.584" style="fill:#f8f8f2;stroke:#f8f8f2;stroke-width:.8"/></g><g id="text_1" style="fill:#f8f8f2" transform="matrix(.1 0 0 -.1 98.927 322.182)"><defs><path id="DejaVuSans-2212" d="M678 2272h4006v-531H678z" transform="scale(.01563)"/><path id="DejaVuSans-34" d="M2419 4116 825 1625h1594zm-166 550h794V1625h666v-525h-666V0h-628v1100H313v609z" transform="scale(.01563)"/></defs><use xlink:href="#DejaVuSans-2212"/><use xlink:href="#DejaVuSans-34" x="83.789"/></g></g><g id="xtick_2"><use xlink:href="#mccfd2edd0f" id="line2d_2" x="171.229" y="307.584" style="fill:#f8f8f2;stroke:#f8f8f2;stroke-width:.8"/><g id="text_2" style="fill:#f8f8f2" transform="matrix(.1 0 0 -.1 163.858 322.182)"><defs><path id="DejaVuSans-32" d="M1228 531h2203V0H469v531q359 372 979 998 621 627 780 809 303 340 423 576 121 236 121 464 0 372-261 606-261 235-680 235-297 0-627-103-329-103-704-313v638q381 153 712 231 332 78 607 78 725 0 1156-363 431-362 431-968 0-288-108-546-107-257-392-607-78-91-497-524-418-433-1181-1211" transform="scale(.01563)"/></defs><use xlink:href="#DejaVuSans-2212"/><use xlink:href="#DejaVuSans-32" x="83.789"/></g></g><g id="xtick_3"><use xlink:href="#mccfd2edd0f" id="line2d_3" x="236.16" y="307.584" style="fill:#f8f8f2;stroke:#f8f8f2;stroke-width:.8"/><g id="text_3" style="fill:#f8f8f2" transform="matrix(.1 0 0 -.1 232.979 322.182)"><defs><path id="DejaVuSans-30" d="M2034 4250q-487 0-733-480-245-479-245-1442 0-959 245-1439 246-480 733-480 491 0 736 480 246 480 246 1439 0 963-246 1442-245 480-736 480m0 500q785 0 1199-621 414-620 414-1801 0-1178-414-1799Q2819-91 2034-91q-784 0-1198 620-414 621-414 1799 0 1181 414 1801 414 621 1198 621" transform="scale(.01563)"/></defs><use xlink:href="#DejaVuSans-30"/></g></g><g id="xtick_4"><use xlink:href="#mccfd2edd0f" id="line2d_4" x="301.091" y="307.584" style="fill:#f8f8f2;stroke:#f8f8f2;stroke-width:.8"/><use xlink:href="#DejaVuSans-32" id="text_4" style="fill:#f8f8f2" transform="matrix(.1 0 0 -.1 297.91 322.182)"/></g><g id="xtick_5"><use xlink:href="#mccfd2edd0f" id="line2d_5" x="366.022" y="307.584" style="fill:#f8f8f2;stroke:#f8f8f2;stroke-width:.8"/><use xlink:href="#DejaVuSans-34" id="text_5" style="fill:#f8f8f2" transform="matrix(.1 0 0 -.1 362.84 322.182)"/></g></g><g id="matplotlib.axis_2"><g id="ytick_1"><g id="line2d_6"><defs><path id="maafc362a6b" d="M0 0h-3.5" style="stroke:#f8f8f2;stroke-width:.8"/></defs><use xlink:href="#maafc362a6b" x="57.6" y="295.488" style="fill:#f8f8f2;stroke:#f8f8f2;stroke-width:.8"/></g><g id="text_6" style="fill:#f8f8f2" transform="matrix(.1 0 0 -.1 34.697 299.287)"><defs><path id="DejaVuSans-2e" d="M684 794h660V0H684z" transform="scale(.01563)"/></defs><use xlink:href="#DejaVuSans-30"/><use xlink:href="#DejaVuSans-2e" x="63.623"/><use xlink:href="#DejaVuSans-30" x="95.41"/></g></g><g id="ytick_2"><use xlink:href="#maafc362a6b" id="line2d_7" x="57.6" y="247.104" style="fill:#f8f8f2;stroke:#f8f8f2;stroke-width:.8"/><g id="text_7" style="fill:#f8f8f2" transform="matrix(.1 0 0 -.1 34.697 250.903)"><use xlink:href="#DejaVuSans-30"/><use xlink:href="#DejaVuSans-2e" x="63.623"/><use xlink:href="#DejaVuSans-32" x="95.41"/></g></g><g id="ytick_3"><use xlink:href="#maafc362a6b" id="line2d_8" x="57.6" y="198.72" style="fill:#f8f8f2;stroke:#f8f8f2;stroke-width:.8"/><g id="text_8" style="fill:#f8f8f2" transform="matrix(.1 0 0 -.1 34.697 202.52)"><use xlink:href="#DejaVuSans-30"/><use xlink:href="#DejaVuSans-2e" x="63.623"/><use xlink:href="#DejaVuSans-34" x="95.41"/></g></g><g id="ytick_4"><use xlink:href="#maafc362a6b" id="line2d_9" x="57.6" y="150.336" style="fill:#f8f8f2;stroke:#f8f8f2;stroke-width:.8"/><g id="text_9" style="fill:#f8f8f2" transform="matrix(.1 0 0 -.1 34.697 154.135)"><defs><path id="DejaVuSans-36" d="M2113 2584q-425 0-674-291-248-290-248-796 0-503 248-796 249-292 674-292t673 292q248 293 248 796 0 506-248 796-248 291-673 291m1253 1979v-575q-238 112-480 171-242 60-480 60-625 0-955-422-329-422-376-1275 184 272 462 417 279 145 613 145 703 0 1111-427 408-426 408-1160 0-719-425-1154Q2819-91 2113-91q-810 0-1238 620-428 621-428 1799 0 1106 525 1764t1409 658q238 0 480-47t505-140" transform="scale(.01563)"/></defs><use xlink:href="#DejaVuSans-30"/><use xlink:href="#DejaVuSans-2e" x="63.623"/><use xlink:href="#DejaVuSans-36" x="95.41"/></g></g><g id="ytick_5"><use xlink:href="#maafc362a6b" id="line2d_10" x="57.6" y="101.952" style="fill:#f8f8f2;stroke:#f8f8f2;stroke-width:.8"/><g id="text_10" style="fill:#f8f8f2" transform="matrix(.1 0 0 -.1 34.697 105.751)"><defs><path id="DejaVuSans-38" d="M2034 2216q-450 0-708-241-257-241-257-662 0-422 257-663 258-241 708-241t709 242q260 243 260 662 0 421-258 662-257 241-711 241m-631 268q-406 100-633 378-226 279-226 679 0 559 398 884 399 325 1092 325 697 0 1094-325t397-884q0-400-227-679-226-278-629-378 456-106 710-416 255-309 255-755 0-679-414-1042Q2806-91 2034-91q-771 0-1186 362-414 363-414 1042 0 446 256 755 257 310 713 416m-231 997q0-362 226-565 227-203 636-203 407 0 636 203 230 203 230 565 0 363-230 566-229 203-636 203-409 0-636-203-226-203-226-566" transform="scale(.01563)"/></defs><use xlink:href="#DejaVuSans-30"/><use xlink:href="#DejaVuSans-2e" x="63.623"/><use xlink:href="#DejaVuSans-38" x="95.41"/></g></g><g id="ytick_6"><use xlink:href="#maafc362a6b" id="line2d_11" x="57.6" y="53.568" style="fill:#f8f8f2;stroke:#f8f8f2;stroke-width:.8"/><g id="text_11" style="fill:#f8f8f2" transform="matrix(.1 0 0 -.1 34.697 57.367)"><defs><path id="DejaVuSans-31" d="M794 531h1031v3560L703 3866v575l1116 225h631V531h1031V0H794z" transform="scale(.01563)"/></defs><use xlink:href="#DejaVuSans-31"/><use xlink:href="#DejaVuSans-2e" x="63.623"/><use xlink:href="#DejaVuSans-30" x="95.41"/></g></g></g><path id="line2d_12" d="m73.833 295.488 71.424-.095 6.493-.185 4.87-.318 3.246-.369 3.247-.564 3.246-.847 3.247-1.24 1.623-.813 1.623-.967 1.624-1.146 1.623-1.35 1.623-1.58 1.623-1.84 1.624-2.131 1.623-2.452 1.623-2.805 1.624-3.19 1.623-3.606 1.623-4.053 1.623-4.525 1.624-5.023 1.623-5.54 1.623-6.07 1.623-6.609 1.624-7.146 3.246-15.863 3.247-17.785 3.246-19.35 6.493-41.094 3.247-20.215 3.247-18.802 1.623-8.578 1.623-7.877 1.623-7.07 1.624-6.165 1.623-5.171 1.623-4.104 1.623-2.975 1.624-1.803 1.623-.604 1.623.604 1.624 1.803 1.623 2.975 1.623 4.104 1.623 5.171 1.624 6.165 1.623 7.07 1.623 7.877 3.247 17.744 3.246 19.625 9.74 61.162 3.246 18.623 3.247 16.857 3.247 14.822 1.623 6.609 1.623 6.07 1.623 5.54 1.624 5.023 1.623 4.525 1.623 4.053 1.623 3.606 1.624 3.19 1.623 2.805 1.623 2.452 1.624 2.13 1.623 1.84 1.623 1.581 1.623 1.35 1.624 1.146 1.623.967 1.623.812 3.247 1.241 3.246.847 3.247.564 3.246.369 4.87.318 6.493.185 12.986.086 58.438.009h0" clip-path="url(#p6b761fe10b)" style="fill:none;stroke:#8be9fd;stroke-width:1.5;stroke-linecap:square"/><path id="PolyCollection_2" d="M73.833 295.488H120.908l1.623-.001h1.623l1.623-.001 1.624-.001 1.623-.002 1.623-.001 1.624-.003 1.623-.003 1.623-.004 1.623-.006 1.624-.008 1.623-.01 1.623-.014 1.623-.018 1.624-.023 1.623-.03 1.623-.04 1.624-.05 1.623-.065 1.623-.083 1.623-.104 1.624-.131 1.623-.164 1.623-.205 1.623-.253 1.624-.311 1.623-.382 1.623-.465 1.624-.563 1.623-.678 1.623-.812 1.623-.967 1.624-1.146 1.623-1.35 1.623-1.58 1.623-1.84 1.624-2.131 1.623-2.452 1.623-2.805 1.624-3.19 1.623-3.606 1.623-4.053 1.623-4.525 1.624-5.023 1.623-5.54 1.623-6.07 1.623-6.609 1.624-7.146 1.623-7.676 1.623-8.187 1.624-8.67 1.623-9.115 1.623-9.508 1.623-9.841 1.624-10.102 1.623-10.279 1.623-10.365 1.623-10.349 1.624-10.226 1.623-9.99 1.623-9.635 1.624-9.166 1.623-8.578 1.623-7.877 1.623-7.07 1.624-6.165 1.623-5.171 1.623-4.104 1.623-2.975 1.624-1.803 1.623-.604 1.623.604 1.624 1.803 1.623 2.975 1.623 4.104 1.623 5.171 1.624 6.165 1.623 7.07 1.623 7.877 1.623 8.578 1.624 9.166 1.623 9.636 1.623 9.99 1.624 10.225 1.623 10.35 1.623 10.364 1.623 10.28 1.624 10.1 1.623 9.842 1.623 9.508 1.623 9.115 1.624 8.67 1.623 8.187 1.623 7.676 1.624 7.146 1.623 6.609 1.623 6.07 1.623 5.54 1.624 5.023 1.623 4.525 1.623 4.053 1.623 3.606 1.624 3.19 1.623 2.805 1.623 2.452 1.624 2.13 1.623 1.84 1.623 1.581 1.623 1.35 1.624 1.146 1.623.967 1.623.812 1.623.678 1.624.563 1.623.465 1.623.382 1.624.311 1.623.253 1.623.205 1.623.164 1.624.131 1.623.104 1.623.083 1.623.064 1.624.05 1.623.04 1.623.03 1.624.024 1.623.018 1.623.014 1.623.01 1.624.008 1.623.006 1.623.004 1.623.003 1.624.003 1.623.001 1.623.002h1.624l1.623.001h1.623l1.623.001h11.363l1.624.001h34.088H73.833" clip-path="url(#p6b761fe10b)" style="fill:#8be9fd"/><path id="line2d_13" d="m73.833 295.488 71.424-.095 6.493-.185 4.87-.318 3.246-.369 3.247-.564 3.246-.847 3.247-1.24 1.623-.813 1.623-.967 1.624-1.146 1.623-1.35 1.623-1.58 1.623-1.84 1.624-2.131 1.623-2.452 1.623-2.805 1.624-3.19 1.623-3.606 1.623-4.053 1.623-4.525 1.624-5.023 1.623-5.54 1.623-6.07 1.623-6.609 1.624-7.146 3.246-15.863 3.247-17.785 3.246-19.35 6.493-41.094 3.247-20.215 3.247-18.802 1.623-8.578 1.623-7.877 1.623-7.07 1.624-6.165 1.623-5.171 1.623-4.104 1.623-2.975 1.624-1.803 1.623-.604 1.623.604 1.624 1.803 1.623 2.975 1.623 4.104 1.623 5.171 1.624 6.165 1.623 7.07 1.623 7.877 3.247 17.744 3.246 19.625 9.74 61.162 3.246 18.623 3.247 16.857 3.247 14.822 1.623 6.609 1.623 6.07 1.623 5.54 1.624 5.023 1.623 4.525 1.623 4.053 1.623 3.606 1.624 3.19 1.623 2.805 1.623 2.452 1.624 2.13 1.623 1.84 1.623 1.581 1.623 1.35 1.624 1.146 1.623.967 1.623.812 3.247 1.241 3.246.847 3.247.564 3.246.369 4.87.318 6.493.185 12.986.086 58.438.009h0" clip-path="url(#p6b761fe10b)" style="fill:none;stroke:#ffb86c;stroke-width:1.5;stroke-linecap:square"/><path id="patch_3" d="M57.6 307.584V41.472" style="fill:none;stroke:#f8f8f2;stroke-width:.8;stroke-linejoin:miter;stroke-linecap:square"/><path id="patch_4" d="M414.72 307.584V41.472" style="fill:none;stroke:#f8f8f2;stroke-width:.8;stroke-linejoin:miter;stroke-linecap:square"/><path id="patch_5" d="M57.6 307.584h357.12" style="fill:none;stroke:#f8f8f2;stroke-width:.8;stroke-linejoin:miter;stroke-linecap:square"/><path id="patch_6" d="M57.6 41.472h357.12" style="fill:none;stroke:#f8f8f2;stroke-width:.8;stroke-linejoin:miter;stroke-linecap:square"/><g id="legend_1"><path id="line2d_14" d="M322.62 56.072h20" style="fill:none;stroke:#8be9fd;stroke-width:1.5;stroke-linecap:square"/><g id="text_12" style="fill:#f8f8f2" transform="matrix(.1 0 0 -.1 350.62 59.572)"><defs><path id="DejaVuSans-65" d="M3597 1894v-281H953q38-594 358-905t892-311q331 0 642 81t618 244V178Q3153 47 2828-22t-659-69q-838 0-1327 487-489 488-489 1320 0 859 464 1363 464 505 1252 505 706 0 1117-455 411-454 411-1235m-575 169q-6 471-264 752-258 282-683 282-481 0-770-272t-333-766z" transform="scale(.01563)"/><path id="DejaVuSans-78" d="M3513 3500 2247 1797 3578 0h-678L1881 1375 863 0H184l1360 1831L300 3500h678l928-1247 928 1247z" transform="scale(.01563)"/><path id="DejaVuSans-70" d="M1159 525v-1856H581v4831h578v-531q182 312 458 463 277 152 661 152 638 0 1036-506 399-506 399-1331T3314 415Q2916-91 2278-91q-384 0-661 152-276 152-458 464m1957 1222q0 634-261 995t-717 361q-457 0-718-361t-261-995q0-634 261-995t718-361q456 0 717 361t261 995" transform="scale(.01563)"/><path id="DejaVuSans-28" d="M1984 4856q-418-718-622-1422-203-703-203-1425 0-721 205-1429t620-1424h-500Q1016-109 783 600T550 2009q0 697 231 1403 232 707 703 1444z" transform="scale(.01563)"/><path id="DejaVuSans-Oblique-78" d="M3841 3500 2234 1784 3219 0h-660l-740 1388L531 0h-697l1722 1844-915 1656h659l672-1266 1172 1266z" transform="scale(.01563)"/><path id="DejaVuSans-29" d="M513 4856h500q468-737 701-1444 233-706 233-1403 0-700-233-1409T1013-844H513q415 716 620 1424t205 1429q0 722-205 1425-205 704-620 1422" transform="scale(.01563)"/></defs><use xlink:href="#DejaVuSans-65" transform="translate(0 .766)"/><use xlink:href="#DejaVuSans-78" transform="translate(61.523 .766)"/><use xlink:href="#DejaVuSans-70" transform="translate(120.703 .766)"/><use xlink:href="#DejaVuSans-28" transform="translate(184.18 .766)"/><use xlink:href="#DejaVuSans-2212" transform="translate(223.193 .766)"/><use xlink:href="#DejaVuSans-Oblique-78" transform="translate(306.982 .766)"/><use xlink:href="#DejaVuSans-32" transform="matrix(.7 0 0 .7 370.628 39.047)"/><use xlink:href="#DejaVuSans-29" transform="translate(417.899 .766)"/></g><path id="line2d_15" d="M322.62 72.272h20" style="fill:none;stroke:#ffb86c;stroke-width:1.5;stroke-linecap:square"/><g id="text_13" style="fill:#f8f8f2" transform="matrix(.1 0 0 -.1 350.62 75.772)"><defs><path id="DejaVuSans-2f" d="M1625 4666h531L531-594H0z" transform="scale(.01563)"/></defs><use xlink:href="#DejaVuSans-65" transform="translate(0 .766)"/><use xlink:href="#DejaVuSans-78" transform="translate(61.523 .766)"/><use xlink:href="#DejaVuSans-70" transform="translate(120.703 .766)"/><use xlink:href="#DejaVuSans-28" transform="translate(184.18 .766)"/><use xlink:href="#DejaVuSans-2212" transform="translate(223.193 .766)"/><use xlink:href="#DejaVuSans-Oblique-78" transform="translate(306.982 .766)"/><use xlink:href="#DejaVuSans-32" transform="matrix(.7 0 0 .7 370.628 39.047)"/><use xlink:href="#DejaVuSans-2f" transform="translate(417.899 .766)"/><use xlink:href="#DejaVuSans-32" transform="translate(447.965 .766)"/><use xlink:href="#DejaVuSans-29" transform="translate(511.588 .766)"/></g></g></g></g><defs><clipPath id="p6b761fe10b"><path d="M57.6 41.472h357.12v266.112H57.6z"/></clipPath></defs></svg>