<svg xmlns="http://www.w3.org/2000/svg" xmlns:xlink="http://www.w3.org/1999/xlink" width="614.4" height="460.8" viewBox="0 0 460.8 345.6"><defs><style>*{stroke-linejoin:round;stroke-linecap:butt}</style></defs><g id="figure_1"><path id="patch_1" d="M0 345.6h460.8V0H0z" style="fill:#282a36"/><g id="axes_1"><path id="patch_2" d="M57.6 307.584h357.12V41.472H57.6z" style="fill:#282a36"/><path id="PolyCollection_1" d="m73.833 295.488 1.623-16.034 1.623-15.243 1.624-14.48 1.623-13.746 1.623-13.039 1.623-12.36 1.624-11.704 1.623-11.075 1.623-10.469 1.623-9.886 1.624-9.326 1.623-8.788 1.623-8.27 1.624-7.773 1.623-7.294 1.623-6.836 1.623-6.394 1.624-5.972 1.623-5.565 1.623-5.175 1.623-4.802 1.624-4.442 1.623-4.1 1.623-3.768 1.624-3.454 1.623-3.15 1.623-2.862 1.623-2.583 1.624-2.319 1.623-2.065 1.623-1.821 1.623-1.59 1.624-1.369 1.623-1.156 1.623-.955 1.624-.762 1.623-.578 1.623-.402 1.623-.236 1.624-.077 1.623.074 1.623.219 1.623.354 1.624.485 1.623.608 1.623.724 1.624.835 1.623.94 1.623 1.04 1.623 1.132 1.624 1.22 1.623 1.305 1.623 1.382 1.623 1.457 1.624 1.525 1.623 1.59 1.623 1.652 1.624 1.708 1.623 1.762 1.623 1.81 1.623 1.857 1.624 1.899 1.623 1.938 1.623 1.974 1.623 2.008 1.624 2.038 1.623 2.066 1.623 2.09 1.624 2.114 1.623 2.133 1.623 2.151 1.623 2.167 1.624 2.18 1.623 2.193 1.623 2.201 1.623 2.21 1.624 2.216 1.623 2.22 1.623 2.224 1.624 2.224 1.623 2.225 1.623 2.223 1.623 2.221 1.624 2.217 1.623 2.212 1.623 2.205 1.623 2.199 1.624 2.19 1.623 2.181 1.623 2.172 1.624 2.16 1.623 2.149 1.623 2.136 1.623 2.124 1.624 2.11 1.623 2.095 1.623 2.08 1.623 2.065 1.624 2.05 1.623 2.032 1.623 2.016 1.624 1.998 1.623 1.98 1.623 1.964 1.623 1.944 1.624 1.926 1.623 1.907 1.623 1.888 1.623 1.869 1.624 1.849 1.623 1.829 1.623 1.81 1.624 1.789 1.623 1.77 1.623 1.749 1.623 1.728 1.624 1.709 1.623 1.688 1.623 1.668 1.623 1.647 1.624 1.627 1.623 1.606 1.623 1.586 1.624 1.566 1.623 1.545 1.623 1.524 1.623 1.505 1.624 1.484 1.623 1.465 1.623 1.444 1.623 1.424 1.624 1.405 1.623 1.385 1.623 1.365 1.624 1.346 1.623 1.326 1.623 1.307 1.623 1.288 1.624 1.27 1.623 1.25 1.623 1.232 1.623 1.213 1.624 1.195 1.623 1.177 1.623 1.16 1.624 1.14 1.623 1.124 1.623 1.106 1.623 1.089 1.624 1.072 1.623 1.054 1.623 1.039 1.623 1.021 1.624 1.005 1.623.99 1.623.972 1.624.957 1.623.942 1.623.926 1.623.911 1.624.896 1.623.88 1.623.867 1.623.852 1.624.837 1.623.824 1.623.81 1.624.795 1.623.782 1.623.769 1.623.755 1.624.743 1.623.73 1.623.717 1.623.705 1.624.692 1.623.68 1.623.668 1.624.657 1.623.645 1.623.633 1.623.623 1.624.611 1.623.6 1.623.59 1.623.579 1.624.568 1.623.559 1.623.548 1.624.538 1.623.529 1.623.519 1.623.51 1.624.5 1.623.49 1.623.482 1.623.473 1.624.464 1.623.456 1.623.447v22.155H73.833z" clip-path="url(#pda33bb09a4)" style="fill:#8be9fd"/><g id="matplotlib.axis_1"><g id="xtick_1"><g id="line2d_1"><defs><path id="mc21fd82c30" d="M0 0v3.5" style="stroke:#f8f8f2;stroke-width:.8"/></defs><use xlink:href="#mc21fd82c30" x="73.833" y="307.584" style="fill:#f8f8f2;stroke:#f8f8f2;stroke-width:.8"/></g><g id="text_1" style="fill:#f8f8f2" transform="matrix(.1 0 0 -.1 70.651 322.182)"><defs><path id="DejaVuSans-30" d="M2034 4250q-487 0-733-480-245-479-245-1442 0-959 245-1439 246-480 733-480 491 0 736 480 246 480 246 1439 0 963-246 1442-245 480-736 480zm0 500q785 0 1199-621 414-620 414-1801 0-1178-414-1799Q2819-91 2034-91q-784 0-1198 620-414 621-414 1799 0 1181 414 1801 414 621 1198 621z" transform="scale(.01563)"/></defs><use xlink:href="#DejaVuSans-30"/></g></g><g id="xtick_2"><use xlink:href="#mc21fd82c30" id="line2d_2" x="138.764" y="307.584" style="fill:#f8f8f2;stroke:#f8f8f2;stroke-width:.8"/><g id="text_2" style="fill:#f8f8f2" transform="matrix(.1 0 0 -.1 135.582 322.182)"><defs><path id="DejaVuSans-31" d="M794 531h1031v3560L703 3866v575l1116 225h631V531h1031V0H794v531z" transform="scale(.01563)"/></defs><use xlink:href="#DejaVuSans-31"/></g></g><g id="xtick_3"><use xlink:href="#mc21fd82c30" id="line2d_3" x="203.695" y="307.584" style="fill:#f8f8f2;stroke:#f8f8f2;stroke-width:.8"/><g id="text_3" style="fill:#f8f8f2" transform="matrix(.1 0 0 -.1 200.513 322.182)"><defs><path id="DejaVuSans-32" d="M1228 531h2203V0H469v531q359 372 979 998 621 627 780 809 303 340 423 576 121 236 121 464 0 372-261 606-261 235-680 235-297 0-627-103-329-103-704-313v638q381 153 712 231 332 78 607 78 725 0 1156-363 431-362 431-968 0-288-108-546-107-257-392-607-78-91-497-524-418-433-1181-1211z" transform="scale(.01563)"/></defs><use xlink:href="#DejaVuSans-32"/></g></g><g id="xtick_4"><use xlink:href="#mc21fd82c30" id="line2d_4" x="268.625" y="307.584" style="fill:#f8f8f2;stroke:#f8f8f2;stroke-width:.8"/><g id="text_4" style="fill:#f8f8f2" transform="matrix(.1 0 0 -.1 265.444 322.182)"><defs><path id="DejaVuSans-33" d="M2597 2516q453-97 707-404 255-306 255-756 0-690-475-1069Q2609-91 1734-91q-293 0-604 58T488 141v609q262-153 574-231 313-78 654-78 593 0 904 234t311 681q0 413-289 645-289 233-804 233h-544v519h569q465 0 712 186t247 536q0 359-255 551-254 193-729 193-260 0-557-57-297-56-653-174v562q360 100 674 150t592 50q719 0 1137-327 419-326 419-882 0-388-222-655t-631-370z" transform="scale(.01563)"/></defs><use xlink:href="#DejaVuSans-33"/></g></g><g id="xtick_5"><use xlink:href="#mc21fd82c30" id="line2d_5" x="333.556" y="307.584" style="fill:#f8f8f2;stroke:#f8f8f2;stroke-width:.8"/><g id="text_5" style="fill:#f8f8f2" transform="matrix(.1 0 0 -.1 330.375 322.182)"><defs><path id="DejaVuSans-34" d="M2419 4116 825 1625h1594v2491zm-166 550h794V1625h666v-525h-666V0h-628v1100H313v609l1940 2957z" transform="scale(.01563)"/></defs><use xlink:href="#DejaVuSans-34"/></g></g><g id="xtick_6"><use xlink:href="#mc21fd82c30" id="line2d_6" x="398.487" y="307.584" style="fill:#f8f8f2;stroke:#f8f8f2;stroke-width:.8"/><g id="text_6" style="fill:#f8f8f2" transform="matrix(.1 0 0 -.1 395.306 322.182)"><defs><path id="DejaVuSans-35" d="M691 4666h2478v-532H1269V2991q137 47 274 70 138 23 276 23 781 0 1237-428 457-428 457-1159 0-753-469-1171Q2575-91 1722-91q-294 0-599 50Q819 9 494 109v635q281-153 581-228t634-75q541 0 856 284 316 284 316 772 0 487-316 771-315 285-856 285-253 0-505-56-251-56-513-175v2344z" transform="scale(.01563)"/></defs><use xlink:href="#DejaVuSans-35"/></g></g></g><g id="matplotlib.axis_2"><g id="ytick_1"><g id="line2d_7"><defs><path id="m49f81e8fd6" d="M0 0h-3.5" style="stroke:#f8f8f2;stroke-width:.8"/></defs><use xlink:href="#m49f81e8fd6" x="57.6" y="295.488" style="fill:#f8f8f2;stroke:#f8f8f2;stroke-width:.8"/></g><g id="text_7" style="fill:#f8f8f2" transform="matrix(.1 0 0 -.1 28.334 299.287)"><defs><path id="DejaVuSans-2e" d="M684 794h660V0H684v794z" transform="scale(.01563)"/></defs><use xlink:href="#DejaVuSans-30"/><use xlink:href="#DejaVuSans-2e" x="63.623"/><use xlink:href="#DejaVuSans-30" x="95.41"/><use xlink:href="#DejaVuSans-30" x="159.033"/></g></g><g id="ytick_2"><use xlink:href="#m49f81e8fd6" id="line2d_8" x="57.6" y="262.608" style="fill:#f8f8f2;stroke:#f8f8f2;stroke-width:.8"/><g id="text_8" style="fill:#f8f8f2" transform="matrix(.1 0 0 -.1 28.334 266.407)"><use xlink:href="#DejaVuSans-30"/><use xlink:href="#DejaVuSans-2e" x="63.623"/><use xlink:href="#DejaVuSans-30" x="95.41"/><use xlink:href="#DejaVuSans-35" x="159.033"/></g></g><g id="ytick_3"><use xlink:href="#m49f81e8fd6" id="line2d_9" x="57.6" y="229.727" style="fill:#f8f8f2;stroke:#f8f8f2;stroke-width:.8"/><g id="text_9" style="fill:#f8f8f2" transform="matrix(.1 0 0 -.1 28.334 233.527)"><use xlink:href="#DejaVuSans-30"/><use xlink:href="#DejaVuSans-2e" x="63.623"/><use xlink:href="#DejaVuSans-31" x="95.41"/><use xlink:href="#DejaVuSans-30" x="159.033"/></g></g><g id="ytick_4"><use xlink:href="#m49f81e8fd6" id="line2d_10" x="57.6" y="196.847" style="fill:#f8f8f2;stroke:#f8f8f2;stroke-width:.8"/><g id="text_10" style="fill:#f8f8f2" transform="matrix(.1 0 0 -.1 28.334 200.646)"><use xlink:href="#DejaVuSans-30"/><use xlink:href="#DejaVuSans-2e" x="63.623"/><use xlink:href="#DejaVuSans-31" x="95.41"/><use xlink:href="#DejaVuSans-35" x="159.033"/></g></g><g id="ytick_5"><use xlink:href="#m49f81e8fd6" id="line2d_11" x="57.6" y="163.967" style="fill:#f8f8f2;stroke:#f8f8f2;stroke-width:.8"/><g id="text_11" style="fill:#f8f8f2" transform="matrix(.1 0 0 -.1 28.334 167.766)"><use xlink:href="#DejaVuSans-30"/><use xlink:href="#DejaVuSans-2e" x="63.623"/><use xlink:href="#DejaVuSans-32" x="95.41"/><use xlink:href="#DejaVuSans-30" x="159.033"/></g></g><g id="ytick_6"><use xlink:href="#m49f81e8fd6" id="line2d_12" x="57.6" y="131.086" style="fill:#f8f8f2;stroke:#f8f8f2;stroke-width:.8"/><g id="text_12" style="fill:#f8f8f2" transform="matrix(.1 0 0 -.1 28.334 134.886)"><use xlink:href="#DejaVuSans-30"/><use xlink:href="#DejaVuSans-2e" x="63.623"/><use xlink:href="#DejaVuSans-32" x="95.41"/><use xlink:href="#DejaVuSans-35" x="159.033"/></g></g><g id="ytick_7"><use xlink:href="#m49f81e8fd6" id="line2d_13" x="57.6" y="98.206" style="fill:#f8f8f2;stroke:#f8f8f2;stroke-width:.8"/><g id="text_13" style="fill:#f8f8f2" transform="matrix(.1 0 0 -.1 28.334 102.005)"><use xlink:href="#DejaVuSans-30"/><use xlink:href="#DejaVuSans-2e" x="63.623"/><use xlink:href="#DejaVuSans-33" x="95.41"/><use xlink:href="#DejaVuSans-30" x="159.033"/></g></g><g id="ytick_8"><use xlink:href="#m49f81e8fd6" id="line2d_14" x="57.6" y="65.326" style="fill:#f8f8f2;stroke:#f8f8f2;stroke-width:.8"/><g id="text_14" style="fill:#f8f8f2" transform="matrix(.1 0 0 -.1 28.334 69.125)"><use xlink:href="#DejaVuSans-30"/><use xlink:href="#DejaVuSans-2e" x="63.623"/><use xlink:href="#DejaVuSans-33" x="95.41"/><use xlink:href="#DejaVuSans-35" x="159.033"/></g></g></g><path id="line2d_15" d="m73.833 295.488 3.246-31.277 3.247-28.226 3.246-25.398 3.247-22.78 3.246-20.355 3.247-18.114 3.247-16.043 3.246-14.13 3.247-12.366 3.246-10.74 1.623-4.802 1.624-4.442 1.623-4.1 1.623-3.768 1.624-3.454 1.623-3.15 1.623-2.862 1.623-2.583 1.624-2.319 1.623-2.065 1.623-1.821 1.623-1.59 1.624-1.369 1.623-1.156 1.623-.955 1.624-.762 1.623-.578 1.623-.402 1.623-.236 1.624-.077 1.623.074 1.623.219 1.623.354 1.624.485 3.246 1.332 3.247 1.775 3.246 2.172 3.247 2.525 3.246 2.839 3.247 3.116 3.247 3.36 4.87 5.428 4.87 5.811 6.492 8.202 8.117 10.745 12.986 17.713 12.986 17.648 9.74 12.85 8.116 10.323 8.116 9.902 6.493 7.59 6.494 7.277 6.493 6.956 6.493 6.63 6.493 6.303 6.493 5.978 6.493 5.658 6.493 5.344 6.493 5.04 6.493 4.744 6.493 4.46 6.493 4.186 6.494 3.924 6.493 3.675 6.493 3.436 6.493 3.211 6.493 2.997 6.493 2.794 8.116 3.226 8.117 2.948 8.116 2.693 8.116 2.455 4.87 1.367h0" clip-path="url(#pda33bb09a4)" style="fill:none;stroke:#8be9fd;stroke-width:1.5;stroke-linecap:square"/><path id="patch_3" d="M57.6 307.584V41.472" style="fill:none;stroke:#f8f8f2;stroke-width:.8;stroke-linejoin:miter;stroke-linecap:square"/><path id="patch_4" d="M414.72 307.584V41.472" style="fill:none;stroke:#f8f8f2;stroke-width:.8;stroke-linejoin:miter;stroke-linecap:square"/><path id="patch_5" d="M57.6 307.584h357.12" style="fill:none;stroke:#f8f8f2;stroke-width:.8;stroke-linejoin:miter;stroke-linecap:square"/><path id="patch_6" d="M57.6 41.472h357.12" style="fill:none;stroke:#f8f8f2;stroke-width:.8;stroke-linejoin:miter;stroke-linecap:square"/><g id="text_15" style="fill:#f8f8f2" transform="matrix(.12 0 0 -.12 188.88 35.232)"><defs><path id="DejaVuSansDisplay-222b" d="M2134 5525q38 738 394 1031 356 294 690 294 335 0 615-275t367-897l-656-65q-75 575-325 575-313 0-350-775L2581-597q-34-737-394-1031-359-294-690-294-334 0-614 275T516-750l656 66q75-575 325-575 312 0 350 771l287 6013z" transform="scale(.01563)"/><path id="DejaVuSans-221e" d="M2916 1091q-97 112-250 375-210-375-394-541-231-200-591-200-422 0-700 316-293 331-293 878 0 525 293 881 263 316 707 316 228 0 396-94 197-103 332-281 125-160 250-375 209 375 393 540 232 200 591 200 422 0 700-315 294-332 294-878 0-525-294-882-262-315-706-315-228 0-397 93-169 85-331 282zm-1269 43q516 0 825 750-397 819-825 819-313 0-472-225-172-240-172-559 0-350 172-566 175-219 472-219zm2037 1563q-465 0-825-750 394-819 825-819 313 0 472 225 172 241 172 560 0 350-172 565-175 219-472 219z" transform="scale(.01563)"/><path id="DejaVuSans-2212" d="M678 2272h4006v-531H678v531z" transform="scale(.01563)"/><path id="DejaVuSans-7c" d="M1344 4891v-6400H813v6400h531z" transform="scale(.01563)"/><path id="DejaVuSans-Oblique-78" d="M3841 3500 2234 1784 3219 0h-660l-740 1388L531 0h-697l1722 1844-915 1656h659l672-1266 1172 1266h697z" transform="scale(.01563)"/><path id="DejaVuSans-65" d="M3597 1894v-281H953q38-594 358-905t892-311q331 0 642 81t618 244V178Q3153 47 2828-22t-659-69q-838 0-1327 487-489 488-489 1320 0 859 464 1363 464 505 1252 505 706 0 1117-455 411-454 411-1235zm-575 169q-6 471-264 752-258 282-683 282-481 0-770-272t-333-766l2050 4z" transform="scale(.01563)"/><path id="DejaVuSans-78" d="M3513 3500 2247 1797 3578 0h-678L1881 1375 863 0H184l1360 1831L300 3500h678l928-1247 928 1247h679z" transform="scale(.01563)"/><path id="DejaVuSans-70" d="M1159 525v-1856H581v4831h578v-531q182 312 458 463 277 152 661 152 638 0 1036-506 399-506 399-1331T3314 415Q2916-91 2278-91q-384 0-661 152-276 152-458 464zm1957 1222q0 634-261 995t-717 361q-457 0-718-361t-261-995q0-634 261-995t718-361q456 0 717 361t261 995z" transform="scale(.01563)"/><path id="DejaVuSans-28" d="M1984 4856q-418-718-622-1422-203-703-203-1425 0-721 205-1429t620-1424h-500Q1016-109 783 600T550 2009q0 697 231 1403 232 707 703 1444h500z" transform="scale(.01563)"/><path id="DejaVuSans-29" d="M513 4856h500q468-737 701-1444 233-706 233-1403 0-700-233-1409T1013-844H513q415 716 620 1424t205 1429q0 722-205 1425-205 704-620 1422z" transform="scale(.01563)"/></defs><use xlink:href="#DejaVuSansDisplay-222b" transform="translate(0 .762)"/><use xlink:href="#DejaVuSans-221e" transform="matrix(.7 0 0 .7 86.744 85.919)"/><use xlink:href="#DejaVuSans-2212" transform="matrix(.7 0 0 .7 71.76 -51.144)"/><use xlink:href="#DejaVuSans-221e" transform="matrix(.7 0 0 .7 130.412 -51.144)"/><use xlink:href="#DejaVuSans-7c" transform="translate(188.723 .762)"/><use xlink:href="#DejaVuSans-Oblique-78" transform="translate(222.414 .762)"/><use xlink:href="#DejaVuSans-7c" transform="translate(281.594 .762)"/><use xlink:href="#DejaVuSans-65" transform="translate(315.285 .762)"/><use xlink:href="#DejaVuSans-78" transform="translate(376.809 .762)"/><use xlink:href="#DejaVuSans-70" transform="translate(435.988 .762)"/><use xlink:href="#DejaVuSans-28" transform="translate(499.465 .762)"/><use xlink:href="#DejaVuSans-2212" transform="translate(538.479 .762)"/><use xlink:href="#DejaVuSans-7c" transform="translate(622.268 .762)"/><use xlink:href="#DejaVuSans-Oblique-78" transform="translate(655.959 .762)"/><use xlink:href="#DejaVuSans-7c" transform="translate(715.139 .762)"/><use xlink:href="#DejaVuSans-29" transform="translate(748.83 .762)"/></g></g></g><defs><clipPath id="pda33bb09a4"><path d="M57.6 41.472h357.12v266.112H57.6z"/></clipPath></defs></svg>