<svg xmlns="http://www.w3.org/2000/svg" xmlns:xlink="http://www.w3.org/1999/xlink" width="374.016" height="374.016" viewBox="0 0 280.512 280.512"><defs><style>*{stroke-linejoin:round;stroke-linecap:butt}</style></defs><g id="figure_1"><path id="patch_1" d="M0 280.512h280.512V0H0z" style="fill:#fff"/><g id="axes_1"><path id="patch_2" d="M7.2 273.312h266.112V7.2H7.2z" style="fill:#fff"/><path id="patch_3" d="M140.256 261.216a120.966 120.966 0 0 0 85.532-35.428 120.966 120.966 0 0 0 35.428-85.532 120.966 120.966 0 0 0-35.428-85.532 120.966 120.966 0 0 0-85.532-35.428 120.966 120.966 0 0 0-85.532 35.428 120.966 120.966 0 0 0-35.428 85.532 120.966 120.966 0 0 0 35.428 85.532 120.966 120.966 0 0 0 85.532 35.428z" clip-path="url(#pa3d7a4e09d)" style="fill:none;stroke:#ccc;stroke-linejoin:miter"/><g id="matplotlib.axis_1"><g id="xtick_1"><g id="line2d_1"><defs><path id="m1f69ab6eff" d="M0 0v3.5" style="stroke:#ccc;stroke-width:.8"/></defs><use xlink:href="#m1f69ab6eff" x="19.296" y="140.256" style="fill:#ccc;stroke:#ccc;stroke-width:.8"/></g></g><g id="xtick_2"><use xlink:href="#m1f69ab6eff" id="line2d_2" x="79.776" y="140.256" style="fill:#ccc;stroke:#ccc;stroke-width:.8"/></g><g id="xtick_3"><use xlink:href="#m1f69ab6eff" id="line2d_3" x="140.256" y="140.256" style="fill:#ccc;stroke:#ccc;stroke-width:.8"/></g><g id="xtick_4"><use xlink:href="#m1f69ab6eff" id="line2d_4" x="200.736" y="140.256" style="fill:#ccc;stroke:#ccc;stroke-width:.8"/></g><g id="xtick_5"><use xlink:href="#m1f69ab6eff" id="line2d_5" x="261.216" y="140.256" style="fill:#ccc;stroke:#ccc;stroke-width:.8"/></g></g><g id="matplotlib.axis_2"><g id="ytick_1"><g id="line2d_6"><defs><path id="md62ec8abbc" d="M0 0h-3.5" style="stroke:#ccc;stroke-width:.8"/></defs><use xlink:href="#md62ec8abbc" x="140.256" y="261.216" style="fill:#ccc;stroke:#ccc;stroke-width:.8"/></g></g><g id="ytick_2"><use xlink:href="#md62ec8abbc" id="line2d_7" x="140.256" y="230.976" style="fill:#ccc;stroke:#ccc;stroke-width:.8"/></g><g id="ytick_3"><use xlink:href="#md62ec8abbc" id="line2d_8" x="140.256" y="200.736" style="fill:#ccc;stroke:#ccc;stroke-width:.8"/></g><g id="ytick_4"><use xlink:href="#md62ec8abbc" id="line2d_9" x="140.256" y="170.496" style="fill:#ccc;stroke:#ccc;stroke-width:.8"/></g><g id="ytick_5"><use xlink:href="#md62ec8abbc" id="line2d_10" x="140.256" y="140.256" style="fill:#ccc;stroke:#ccc;stroke-width:.8"/></g><g id="ytick_6"><use xlink:href="#md62ec8abbc" id="line2d_11" x="140.256" y="110.016" style="fill:#ccc;stroke:#ccc;stroke-width:.8"/></g><g id="ytick_7"><use xlink:href="#md62ec8abbc" id="line2d_12" x="140.256" y="79.776" style="fill:#ccc;stroke:#ccc;stroke-width:.8"/></g><g id="ytick_8"><use xlink:href="#md62ec8abbc" id="line2d_13" x="140.256" y="49.536" style="fill:#ccc;stroke:#ccc;stroke-width:.8"/></g><g id="ytick_9"><use xlink:href="#md62ec8abbc" id="line2d_14" x="140.256" y="19.296" style="fill:#ccc;stroke:#ccc;stroke-width:.8"/></g></g><path id="line2d_15" d="M102.877 140.256v115.04" clip-path="url(#pa3d7a4e09d)" style="fill:none;stroke-dasharray:1.5,2.475;stroke-dashoffset:0;stroke:#b2b2b2;stroke-width:1.5"/><path id="line2d_16" d="M140.256 255.296h-37.379" clip-path="url(#pa3d7a4e09d)" style="fill:none;stroke-dasharray:1.5,2.475;stroke-dashoffset:0;stroke:#b2b2b2;stroke-width:1.5"/><path id="patch_4" d="M140.256 273.312V7.2" style="fill:none;stroke:#ccc;stroke-width:.8;stroke-linejoin:miter;stroke-linecap:square"/><path id="patch_5" d="M273.312 273.312V7.2" style="fill:none"/><path id="patch_6" d="M7.2 140.256h266.112" style="fill:none;stroke:#ccc;stroke-width:.8;stroke-linejoin:miter;stroke-linecap:square"/><path id="patch_7" d="M7.2 7.2h266.112" style="fill:none"/><g id="text_1" style="fill:#d62728" transform="matrix(.1 0 0 -.1 109.47 134.208)"><defs><path id="DejaVuSans-63" d="M3122 3366v-538q-244 135-489 202t-495 67q-560 0-870-355-309-354-309-995t309-996q310-354 870-354 250 0 495 67t489 202V134Q2881 22 2623-34q-257-57-548-57-791 0-1257 497-465 497-465 1341 0 856 470 1346 471 491 1290 491 265 0 518-55 253-54 491-163" transform="scale(.01563)"/><path id="DejaVuSans-6f" d="M1959 3097q-462 0-731-361t-269-989q0-628 267-989 268-361 733-361 460 0 728 362 269 363 269 988 0 622-269 986-268 364-728 364m0 487q750 0 1178-488 429-487 429-1349 0-859-429-1349Q2709-91 1959-91q-753 0-1180 489-426 490-426 1349 0 862 426 1349 427 488 1180 488" transform="scale(.01563)"/><path id="DejaVuSans-73" d="M2834 3397v-544q-243 125-506 187-262 63-544 63-428 0-642-131t-214-394q0-200 153-314t616-217l197-44q612-131 870-370t258-667q0-488-386-773Q2250-91 1575-91q-281 0-586 55T347 128v594q319-166 628-249 309-82 613-82 406 0 624 139 219 139 219 392 0 234-158 359-157 125-692 241l-200 47q-534 112-772 345-237 233-237 639 0 494 350 762 350 269 994 269 318 0 599-47 282-46 519-140" transform="scale(.01563)"/><path id="DejaVuSans-28" d="M1984 4856q-418-718-622-1422-203-703-203-1425 0-721 205-1429t620-1424h-500Q1016-109 783 600T550 2009q0 697 231 1403 232 707 703 1444z" transform="scale(.01563)"/><path id="DejaVuSans-Oblique-3b1" d="m2619 1628 3 722q3 738-553 741-416 3-675-344-325-428-435-1000-134-688 35-1016 175-334 553-334 419 0 772 666zm-453 1950q975 16 962-994l488 916h512L3119 1603l-10-684q0-153 85-281 97-150 197-150h278L3575 0h-347q-294 0-506 263-100 131-103 406-203-335-553-619-166-131-613-128-731 6-997 475-272 487-103 1350 181 928 656 1350 535 472 1157 481" transform="scale(.01563)"/><path id="DejaVuSans-29" d="M513 4856h500q468-737 701-1444 233-706 233-1403 0-700-233-1409T1013-844H513q415 716 620 1424t205 1429q0 722-205 1425-205 704-620 1422" transform="scale(.01563)"/></defs><use xlink:href="#DejaVuSans-63" transform="translate(0 .125)"/><use xlink:href="#DejaVuSans-6f" transform="translate(54.98 .125)"/><use xlink:href="#DejaVuSans-73" transform="translate(116.162 .125)"/><use xlink:href="#DejaVuSans-28" transform="translate(168.262 .125)"/><use xlink:href="#DejaVuSans-Oblique-3b1" transform="translate(207.275 .125)"/><use xlink:href="#DejaVuSans-29" transform="translate(273.193 .125)"/></g><g id="text_2" style="fill:#1f77b4" transform="matrix(.1 0 0 -.1 146.304 197.776)"><defs><path id="DejaVuSans-69" d="M603 3500h575V0H603zm0 1363h575v-729H603z" transform="scale(.01563)"/><path id="DejaVuSans-6e" d="M3513 2113V0h-575v2094q0 497-194 743-194 247-581 247-466 0-735-297-269-296-269-809V0H581v3500h578v-544q207 316 486 472 280 156 646 156 603 0 912-373 310-373 310-1098" transform="scale(.01563)"/></defs><use xlink:href="#DejaVuSans-73" transform="translate(0 .016)"/><use xlink:href="#DejaVuSans-69" transform="translate(52.1 .016)"/><use xlink:href="#DejaVuSans-6e" transform="translate(79.883 .016)"/><use xlink:href="#DejaVuSans-28" transform="translate(143.262 .016)"/><use xlink:href="#DejaVuSans-Oblique-3b1" transform="translate(182.275 .016)"/><use xlink:href="#DejaVuSans-29" transform="translate(248.193 .016)"/></g><path id="line2d_17" d="M140.256 140.256v115.04" clip-path="url(#pa3d7a4e09d)" style="fill:none;stroke:#1f77b4;stroke-width:2;stroke-linecap:square"/><path id="line2d_18" d="M140.256 140.256h-37.379" clip-path="url(#pa3d7a4e09d)" style="fill:none;stroke:#d62728;stroke-width:2;stroke-linecap:square"/><path id="line2d_19" d="m140.256 140.256-37.379 115.04" clip-path="url(#pa3d7a4e09d)" style="fill:none;stroke:#9467bd;stroke-width:2;stroke-linecap:square"/><path id="patch_8" d="M261.216 140.256a120.97 120.97 0 0 0-17.825-63.201 120.97 120.97 0 0 0-48.22-44.575 120.97 120.97 0 0 0-64.405-12.811 120.97 120.97 0 0 0-61.609 22.728 120.97 120.97 0 0 0-40.653 51.57 120.97 120.97 0 0 0-7.719 65.211 120.97 120.97 0 0 0 27.492 59.635 120.97 120.97 0 0 0 54.6 36.483" clip-path="url(#pa3d7a4e09d)" style="fill:none;stroke:#9467bd;stroke-width:2;stroke-linejoin:miter"/></g></g><defs><clipPath id="pa3d7a4e09d"><path d="M7.2 7.2h266.112v266.112H7.2z"/></clipPath></defs></svg>