<svg xmlns="http://www.w3.org/2000/svg" xmlns:xlink="http://www.w3.org/1999/xlink" width="614.4" height="460.8" viewBox="0 0 460.8 345.6"><defs><style>*{stroke-linejoin:round;stroke-linecap:butt}</style></defs><g id="figure_1"><path id="patch_1" d="M0 345.6h460.8V0H0z" style="fill:#282a36"/><g id="axes_1"><path id="patch_2" d="M57.6 307.584h357.12V41.472H57.6z" style="fill:#282a36"/><path id="PolyCollection_1" d="m73.833 252.381 1.623-2 1.623-1.99 1.624-1.934 1.623-1.825 1.623-1.672 1.623-1.472 1.624-1.233 1.623-.958 1.623-.653 1.623-.326 1.624.017 1.623.367 1.623.717 1.624 1.056 1.623 1.377 1.623 1.673 1.623 1.933 1.624 2.153 1.623 2.326 1.623 2.444 1.623 2.506 1.624 2.508 1.623 2.449 1.623 2.326 1.624 2.144 1.623 1.904 1.623 1.611 1.623 1.27 1.624.89 1.623.473 1.623.036 1.623-.415 1.624-.87 1.623-1.317 1.623-1.746 1.624-2.145 1.623-2.503 1.623-2.813 1.623-3.062 1.624-3.246 1.623-3.356 1.623-3.387 1.623-3.338 1.624-3.204 1.623-2.987 1.623-2.69 1.624-2.316 1.623-1.87 1.623-1.364 1.623-.802 1.624-.198 1.623.434 1.623 1.084 1.623 1.734 1.624 2.372 1.623 2.98 1.623 3.545 1.624 4.05 1.623 4.484 1.623 4.83 1.623 5.076 1.624 5.216 1.623 5.237 1.623 5.135 1.623 4.906 1.624 4.546 1.623 4.057 1.623 3.443 1.624 2.709 1.623 1.864 1.623.917 1.623-.116 1.624-1.223 1.623-2.385 1.623-3.584 1.623-4.801 1.624-6.015 1.623-7.205 1.623-8.35 1.624-9.428 1.623-10.42 1.623-11.309 1.623-12.071 1.624-12.697 1.623-13.168 1.623-13.475 1.623-13.609 1.624-13.562 1.623-13.334 1.623-12.923 1.624-12.332 1.623-11.567 1.623-10.638 1.623-9.555 1.624-8.335 1.623-6.992 1.623-5.549 1.623-4.023 1.624-2.437 1.623-.817 1.623.817 1.624 2.437 1.623 4.023 1.623 5.549 1.623 6.992 1.624 8.335 1.623 9.555 1.623 10.638 1.623 11.567 1.624 12.332 1.623 12.923 1.623 13.334 1.624 13.562 1.623 13.61 1.623 13.474 1.623 13.168 1.624 12.697 1.623 12.071 1.623 11.308 1.623 10.421 1.624 9.428 1.623 8.35 1.623 7.205 1.624 6.015 1.623 4.801 1.623 3.584 1.623 2.385 1.624 1.223 1.623.116 1.623-.917 1.623-1.864 1.624-2.71 1.623-3.442 1.623-4.057 1.624-4.546 1.623-4.906 1.623-5.135 1.623-5.237 1.624-5.216 1.623-5.077 1.623-4.83 1.623-4.482 1.624-4.05 1.623-3.546 1.623-2.98 1.624-2.372 1.623-1.734 1.623-1.084 1.623-.434 1.624.198 1.623.802 1.623 1.363 1.623 1.871 1.624 2.316 1.623 2.69 1.623 2.987 1.624 3.204 1.623 3.338 1.623 3.387 1.623 3.356 1.624 3.246 1.623 3.062 1.623 2.813 1.623 2.503 1.624 2.145 1.623 1.746 1.623 1.317 1.624.87 1.623.415 1.623-.036 1.623-.474 1.624-.888 1.623-1.27 1.623-1.612 1.623-1.904 1.624-2.144 1.623-2.326 1.623-2.449 1.624-2.508 1.623-2.506 1.623-2.444 1.623-2.326 1.624-2.153 1.623-1.933 1.623-1.673 1.623-1.377 1.624-1.056 1.623-.717 1.623-.367 1.624-.017 1.623.326 1.623.653 1.623.958 1.624 1.233 1.623 1.472 1.623 1.672 1.623 1.825 1.624 1.933 1.623 1.991 1.623 2H73.833" clip-path="url(#pec9dfd2cef)" style="fill:#8be9fd"/><g id="matplotlib.axis_1"><g id="xtick_1"><g id="line2d_1"><defs><path id="m2b90412f0e" d="M0 0v3.5" style="stroke:#f8f8f2;stroke-width:.8"/></defs><use xlink:href="#m2b90412f0e" x="106.298" y="307.584" style="fill:#f8f8f2;stroke:#f8f8f2;stroke-width:.8"/></g><g id="text_1" style="fill:#f8f8f2" transform="matrix(.1 0 0 -.1 98.927 322.182)"><defs><path id="DejaVuSans-2212" d="M678 2272h4006v-531H678z" transform="scale(.01563)"/><path id="DejaVuSans-34" d="M2419 4116 825 1625h1594zm-166 550h794V1625h666v-525h-666V0h-628v1100H313v609z" transform="scale(.01563)"/></defs><use xlink:href="#DejaVuSans-2212"/><use xlink:href="#DejaVuSans-34" x="83.789"/></g></g><g id="xtick_2"><use xlink:href="#m2b90412f0e" id="line2d_2" x="171.229" y="307.584" style="fill:#f8f8f2;stroke:#f8f8f2;stroke-width:.8"/><g id="text_2" style="fill:#f8f8f2" transform="matrix(.1 0 0 -.1 163.858 322.182)"><defs><path id="DejaVuSans-32" d="M1228 531h2203V0H469v531q359 372 979 998 621 627 780 809 303 340 423 576 121 236 121 464 0 372-261 606-261 235-680 235-297 0-627-103-329-103-704-313v638q381 153 712 231 332 78 607 78 725 0 1156-363 431-362 431-968 0-288-108-546-107-257-392-607-78-91-497-524-418-433-1181-1211" transform="scale(.01563)"/></defs><use xlink:href="#DejaVuSans-2212"/><use xlink:href="#DejaVuSans-32" x="83.789"/></g></g><g id="xtick_3"><use xlink:href="#m2b90412f0e" id="line2d_3" x="236.16" y="307.584" style="fill:#f8f8f2;stroke:#f8f8f2;stroke-width:.8"/><g id="text_3" style="fill:#f8f8f2" transform="matrix(.1 0 0 -.1 232.979 322.182)"><defs><path id="DejaVuSans-30" d="M2034 4250q-487 0-733-480-245-479-245-1442 0-959 245-1439 246-480 733-480 491 0 736 480 246 480 246 1439 0 963-246 1442-245 480-736 480m0 500q785 0 1199-621 414-620 414-1801 0-1178-414-1799Q2819-91 2034-91q-784 0-1198 620-414 621-414 1799 0 1181 414 1801 414 621 1198 621" transform="scale(.01563)"/></defs><use xlink:href="#DejaVuSans-30"/></g></g><g id="xtick_4"><use xlink:href="#m2b90412f0e" id="line2d_4" x="301.091" y="307.584" style="fill:#f8f8f2;stroke:#f8f8f2;stroke-width:.8"/><use xlink:href="#DejaVuSans-32" id="text_4" style="fill:#f8f8f2" transform="matrix(.1 0 0 -.1 297.91 322.182)"/></g><g id="xtick_5"><use xlink:href="#m2b90412f0e" id="line2d_5" x="366.022" y="307.584" style="fill:#f8f8f2;stroke:#f8f8f2;stroke-width:.8"/><use xlink:href="#DejaVuSans-34" id="text_5" style="fill:#f8f8f2" transform="matrix(.1 0 0 -.1 362.84 322.182)"/></g></g><g id="matplotlib.axis_2"><g id="ytick_1"><g id="line2d_6"><defs><path id="m4fb4fe8d38" d="M0 0h-3.5" style="stroke:#f8f8f2;stroke-width:.8"/></defs><use xlink:href="#m4fb4fe8d38" x="57.6" y="292.144" style="fill:#f8f8f2;stroke:#f8f8f2;stroke-width:.8"/></g><g id="text_6" style="fill:#f8f8f2" transform="matrix(.1 0 0 -.1 26.317 295.943)"><defs><path id="DejaVuSans-2e" d="M684 794h660V0H684z" transform="scale(.01563)"/></defs><use xlink:href="#DejaVuSans-2212"/><use xlink:href="#DejaVuSans-30" x="83.789"/><use xlink:href="#DejaVuSans-2e" x="147.412"/><use xlink:href="#DejaVuSans-32" x="179.199"/></g></g><g id="ytick_2"><use xlink:href="#m4fb4fe8d38" id="line2d_7" x="57.6" y="252.381" style="fill:#f8f8f2;stroke:#f8f8f2;stroke-width:.8"/><g id="text_7" style="fill:#f8f8f2" transform="matrix(.1 0 0 -.1 34.697 256.18)"><use xlink:href="#DejaVuSans-30"/><use xlink:href="#DejaVuSans-2e" x="63.623"/><use xlink:href="#DejaVuSans-30" x="95.41"/></g></g><g id="ytick_3"><use xlink:href="#m4fb4fe8d38" id="line2d_8" x="57.6" y="212.618" style="fill:#f8f8f2;stroke:#f8f8f2;stroke-width:.8"/><g id="text_8" style="fill:#f8f8f2" transform="matrix(.1 0 0 -.1 34.697 216.418)"><use xlink:href="#DejaVuSans-30"/><use xlink:href="#DejaVuSans-2e" x="63.623"/><use xlink:href="#DejaVuSans-32" x="95.41"/></g></g><g id="ytick_4"><use xlink:href="#m4fb4fe8d38" id="line2d_9" x="57.6" y="172.856" style="fill:#f8f8f2;stroke:#f8f8f2;stroke-width:.8"/><g id="text_9" style="fill:#f8f8f2" transform="matrix(.1 0 0 -.1 34.697 176.655)"><use xlink:href="#DejaVuSans-30"/><use xlink:href="#DejaVuSans-2e" x="63.623"/><use xlink:href="#DejaVuSans-34" x="95.41"/></g></g><g id="ytick_5"><use xlink:href="#m4fb4fe8d38" id="line2d_10" x="57.6" y="133.093" style="fill:#f8f8f2;stroke:#f8f8f2;stroke-width:.8"/><g id="text_10" style="fill:#f8f8f2" transform="matrix(.1 0 0 -.1 34.697 136.892)"><defs><path id="DejaVuSans-36" d="M2113 2584q-425 0-674-291-248-290-248-796 0-503 248-796 249-292 674-292t673 292q248 293 248 796 0 506-248 796-248 291-673 291m1253 1979v-575q-238 112-480 171-242 60-480 60-625 0-955-422-329-422-376-1275 184 272 462 417 279 145 613 145 703 0 1111-427 408-426 408-1160 0-719-425-1154Q2819-91 2113-91q-810 0-1238 620-428 621-428 1799 0 1106 525 1764t1409 658q238 0 480-47t505-140" transform="scale(.01563)"/></defs><use xlink:href="#DejaVuSans-30"/><use xlink:href="#DejaVuSans-2e" x="63.623"/><use xlink:href="#DejaVuSans-36" x="95.41"/></g></g><g id="ytick_6"><use xlink:href="#m4fb4fe8d38" id="line2d_11" x="57.6" y="93.331" style="fill:#f8f8f2;stroke:#f8f8f2;stroke-width:.8"/><g id="text_11" style="fill:#f8f8f2" transform="matrix(.1 0 0 -.1 34.697 97.13)"><defs><path id="DejaVuSans-38" d="M2034 2216q-450 0-708-241-257-241-257-662 0-422 257-663 258-241 708-241t709 242q260 243 260 662 0 421-258 662-257 241-711 241m-631 268q-406 100-633 378-226 279-226 679 0 559 398 884 399 325 1092 325 697 0 1094-325t397-884q0-400-227-679-226-278-629-378 456-106 710-416 255-309 255-755 0-679-414-1042Q2806-91 2034-91q-771 0-1186 362-414 363-414 1042 0 446 256 755 257 310 713 416m-231 997q0-362 226-565 227-203 636-203 407 0 636 203 230 203 230 565 0 363-230 566-229 203-636 203-409 0-636-203-226-203-226-566" transform="scale(.01563)"/></defs><use xlink:href="#DejaVuSans-30"/><use xlink:href="#DejaVuSans-2e" x="63.623"/><use xlink:href="#DejaVuSans-38" x="95.41"/></g></g><g id="ytick_7"><use xlink:href="#m4fb4fe8d38" id="line2d_12" x="57.6" y="53.568" style="fill:#f8f8f2;stroke:#f8f8f2;stroke-width:.8"/><g id="text_12" style="fill:#f8f8f2" transform="matrix(.1 0 0 -.1 34.697 57.367)"><defs><path id="DejaVuSans-31" d="M794 531h1031v3560L703 3866v575l1116 225h631V531h1031V0H794z" transform="scale(.01563)"/></defs><use xlink:href="#DejaVuSans-31"/><use xlink:href="#DejaVuSans-2e" x="63.623"/><use xlink:href="#DejaVuSans-30" x="95.41"/></g></g></g><path id="PolyCollection_2" d="m73.833 252.381 1.623-.02 1.623-.06 1.624-.096 1.623-.126 1.623-.144 1.623-.15 1.624-.144 1.623-.121 1.623-.088 1.623-.046 1.624.003 1.623.05 1.623.097 1.624.132 1.623.155 1.623.164 1.623.153 1.624.127 1.623.084 1.623.03 1.623-.032 1.624-.094 1.623-.154 1.623-.202 1.624-.234 1.623-.247 1.623-.237 1.623-.206 1.624-.153 1.623-.085 1.623-.007 1.623.075 1.624.151 1.623.214 1.623.258 1.624.273 1.623.262 1.623.218 1.623.147 1.624.053 1.623-.057 1.623-.172 1.623-.282 1.624-.377 1.623-.444 1.623-.476 1.624-.47 1.623-.417 1.623-.327 1.623-.201 1.624-.05 1.623.11 1.623.267 1.623.404 1.624.503 1.623.551 1.623.54 1.624.462 1.623.319 1.623.117 1.623-.13 1.624-.403 1.623-.68 1.623-.935 1.623-1.14 1.624-1.274 1.623-1.312 1.623-1.243 1.624-1.062 1.623-.774 1.623-.393 1.623.05 1.624.521 1.623.974 1.623 1.355 1.623 1.613 1.624 1.694 1.623 1.55 1.623 1.142 1.624.447 1.623-.546 1.623-1.829 1.623-3.371 1.624-5.128 1.623-7.032 1.623-9 1.623-10.945 1.624-12.761 1.623-14.35 1.623-15.614 1.624-16.466 1.623-16.835 1.623-16.671 1.623-15.945 1.624-14.659 1.623-12.837 1.623-10.536 1.623-7.833 1.624-4.825 1.623-1.63 1.623 1.63 1.624 4.825 1.623 7.833 1.623 10.536 1.623 12.837 1.624 14.659 1.623 15.945 1.623 16.67 1.623 16.836 1.624 16.466 1.623 15.614 1.623 14.35 1.624 12.76 1.623 10.945 1.623 9.001 1.623 7.032 1.624 5.128 1.623 3.371 1.623 1.829 1.623.546 1.624-.447 1.623-1.143 1.623-1.55 1.624-1.693 1.623-1.613 1.623-1.355 1.623-.974 1.624-.521 1.623-.05 1.623.393 1.623.774 1.624 1.062 1.623 1.243 1.623 1.312 1.624 1.273 1.623 1.141 1.623.935 1.623.68 1.624.403 1.623.13 1.623-.117 1.623-.32 1.624-.461 1.623-.54 1.623-.551 1.624-.503 1.623-.404 1.623-.267 1.623-.11 1.624.05 1.623.201 1.623.327 1.623.418 1.624.469 1.623.476 1.623.444 1.624.377 1.623.282 1.623.172 1.623.057 1.624-.053 1.623-.147 1.623-.218 1.623-.262 1.624-.273 1.623-.258 1.623-.214 1.624-.151 1.623-.075 1.623.007 1.623.085 1.624.153 1.623.206 1.623.237 1.623.247 1.624.234 1.623.202 1.623.154 1.624.094 1.623.032 1.623-.03 1.623-.084 1.624-.127 1.623-.153 1.623-.164 1.623-.155 1.624-.132 1.623-.096 1.623-.051 1.624-.003 1.623.046 1.623.088 1.623.121 1.624.143 1.623.15 1.623.145 1.623.126 1.624.096 1.623.06 1.623.02H73.833" clip-path="url(#pec9dfd2cef)" style="fill:#ffb86c"/><path id="patch_3" d="M57.6 307.584V41.472" style="fill:none;stroke:#f8f8f2;stroke-width:.8;stroke-linejoin:miter;stroke-linecap:square"/><path id="patch_4" d="M414.72 307.584V41.472" style="fill:none;stroke:#f8f8f2;stroke-width:.8;stroke-linejoin:miter;stroke-linecap:square"/><path id="patch_5" d="M57.6 307.584h357.12" style="fill:none;stroke:#f8f8f2;stroke-width:.8;stroke-linejoin:miter;stroke-linecap:square"/><path id="patch_6" d="M57.6 41.472h357.12" style="fill:none;stroke:#f8f8f2;stroke-width:.8;stroke-linejoin:miter;stroke-linecap:square"/><path id="PolyCollection_3" d="M73.833 252.381h1.623l1.623-.002 1.624-.003 1.623-.007 1.623-.01 1.623-.01 1.624-.013 1.623-.012 1.623-.009 1.623-.004h1.624l1.623.005 1.623.01 1.624.012 1.623.014 1.623.012 1.623.009 1.624.005 1.623.003h3.246l1.624.003 1.623.008 1.623.013 1.624.02 1.623.023 1.623.026 1.623.025 1.624.02 1.623.012h1.623l1.623-.01 1.624-.02 1.623-.025 1.623-.029 1.624-.026 1.623-.02 1.623-.014 1.623-.005h1.624l1.623-.002 1.623-.007 1.623-.018 1.624-.033 1.623-.05 1.623-.063 1.624-.072 1.623-.07 1.623-.059 1.623-.037 1.624-.01 1.623.021 1.623.05 1.623.07 1.624.08 1.623.077 1.623.062 1.624.04 1.623.017 1.623.003 1.623.003 1.624.025 1.623.067 1.623.128 1.623.2 1.624.268 1.623.319 1.623.337 1.624.312 1.623.24 1.623.128 1.623-.017 1.624-.166 1.623-.299 1.623-.384 1.623-.407 1.624-.36 1.623-.252 1.623-.12 1.624-.022 1.623-.029 1.623-.23 1.623-.718 1.624-1.566 1.623-2.83 1.623-4.526 1.623-6.617 1.624-9.02 1.623-11.598 1.623-14.162 1.624-16.502 1.623-18.387 1.623-19.602 1.623-19.962 1.624-19.339 1.623-17.677 1.623-15.006 1.623-11.438 1.624-7.164 1.623-2.44 1.623 2.44 1.624 7.164 1.623 11.438 1.623 15.006 1.623 17.677 1.624 19.34 1.623 19.96 1.623 19.603 1.623 18.387 1.624 16.502 1.623 14.162 1.623 11.598 1.624 9.02 1.623 6.617 1.623 4.525 1.623 2.83 1.624 1.567 1.623.718 1.623.23 1.623.03 1.624.02 1.623.121 1.623.253 1.624.359 1.623.407 1.623.384 1.623.299 1.624.166 1.623.017 1.623-.127 1.623-.24 1.624-.313 1.623-.337 1.623-.319 1.624-.268 1.623-.2 1.623-.128 1.623-.067 1.624-.025 1.623-.003 1.623-.003 1.623-.017 1.624-.04 1.623-.062 1.623-.077 1.624-.08 1.623-.07 1.623-.05 1.623-.021 1.624.01 1.623.037 1.623.06 1.623.07 1.624.07 1.623.064 1.623.05 1.624.033 1.623.018 1.623.007 1.623.001h1.624l1.623.006 1.623.013 1.623.02 1.624.027 1.623.029 1.623.026 1.624.02 1.623.01 1.623-.001 1.623-.012 1.624-.02 1.623-.025 1.623-.026 1.623-.024 1.624-.02 1.623-.012 1.623-.008 1.624-.003h3.246l1.623-.003 1.624-.005 1.623-.01 1.623-.011 1.623-.014 1.624-.012 1.623-.01 1.623-.005h1.624l1.623.004 1.623.01 1.623.011 1.624.012 1.623.012 1.623.01 1.623.006 1.624.003 1.623.002h1.623H73.833" clip-path="url(#pec9dfd2cef)" style="fill:#50fa7b"/><g id="legend_1"><path id="patch_8" d="M352.62 58.07h20v-7h-20z" style="fill:#8be9fd"/><g id="text_13" style="fill:#f8f8f2" transform="matrix(.1 0 0 -.1 380.62 58.07)"><defs><path id="DejaVuSans-Oblique-73" d="m3200 3397-109-544q-228 125-482 187-253 63-521 63-454 0-715-155-260-154-260-420 0-309 606-475 47-12 69-19l184-56q575-159 767-334t192-478q0-557-442-907T1331-91q-278 0-584 54Q441 16 72 128l112 594q316-163 622-247 307-84 588-84 422 0 686 181t264 459q0 300-694 485l-59 15-197 50q-438 116-641 305t-203 483q0 559 420 887 421 328 1143 328 284 0 554-47 271-46 533-140" transform="scale(.01563)"/><path id="DejaVuSans-Oblique-69" d="M1172 4863h575l-141-729h-575zM909 3500h575L800 0H225z" transform="scale(.01563)"/><path id="DejaVuSans-Oblique-6e" d="M3566 2113 3156 0h-578l410 2091q28 147 43 259 16 113 16 178 0 263-166 409-165 147-462 147-463 0-797-308-334-307-438-835L800 0H225l678 3500h575l-115-550q240 303 577 468 338 166 710 166 463 0 717-250 255-250 255-703 0-112-14-240t-42-278" transform="scale(.01563)"/><path id="DejaVuSans-Oblique-63" d="m3431 3366-115-569q-207 150-440 225-232 75-482 75-275 0-524-97-248-97-417-275-269-272-416-638-146-365-146-756 0-472 236-703t717-231q237 0 504 72 268 72 558 215l-109-568Q2547 13 2283-39t-542-52q-697 0-1072 348-375 349-375 996 0 544 195 1002t580 823q262 250 615 378 354 128 772 128 244 0 484-55 241-54 491-163" transform="scale(.01563)"/></defs><use xlink:href="#DejaVuSans-Oblique-73" transform="translate(0 .016)"/><use xlink:href="#DejaVuSans-Oblique-69" transform="translate(52.1 .016)"/><use xlink:href="#DejaVuSans-Oblique-6e" transform="translate(79.883 .016)"/><use xlink:href="#DejaVuSans-Oblique-63" transform="translate(143.262 .016)"/></g><path id="patch_9" d="M352.62 72.749h20v-7h-20z" style="fill:#ffb86c"/><g id="text_14" style="fill:#f8f8f2" transform="matrix(.1 0 0 -.1 380.62 72.749)"><use xlink:href="#DejaVuSans-Oblique-73" transform="translate(0 .766)"/><use xlink:href="#DejaVuSans-Oblique-69" transform="translate(52.1 .766)"/><use xlink:href="#DejaVuSans-Oblique-6e" transform="translate(79.883 .766)"/><use xlink:href="#DejaVuSans-Oblique-63" transform="translate(143.262 .766)"/><use xlink:href="#DejaVuSans-32" transform="matrix(.7 0 0 .7 202.892 39.047)"/></g><path id="patch_10" d="M352.62 87.427h20v-7h-20z" style="fill:#50fa7b"/><g id="text_15" style="fill:#f8f8f2" transform="matrix(.1 0 0 -.1 380.62 87.427)"><defs><path id="DejaVuSans-33" d="M2597 2516q453-97 707-404 255-306 255-756 0-690-475-1069Q2609-91 1734-91q-293 0-604 58T488 141v609q262-153 574-231 313-78 654-78 593 0 904 234t311 681q0 413-289 645-289 233-804 233h-544v519h569q465 0 712 186t247 536q0 359-255 551-254 193-729 193-260 0-557-57-297-56-653-174v562q360 100 674 150t592 50q719 0 1137-327 419-326 419-882 0-388-222-655t-631-370" transform="scale(.01563)"/></defs><use xlink:href="#DejaVuSans-Oblique-73" transform="translate(0 .766)"/><use xlink:href="#DejaVuSans-Oblique-69" transform="translate(52.1 .766)"/><use xlink:href="#DejaVuSans-Oblique-6e" transform="translate(79.883 .766)"/><use xlink:href="#DejaVuSans-Oblique-63" transform="translate(143.262 .766)"/><use xlink:href="#DejaVuSans-33" transform="matrix(.7 0 0 .7 202.892 39.047)"/></g></g></g></g><defs><clipPath id="pec9dfd2cef"><path d="M57.6 41.472h357.12v266.112H57.6z"/></clipPath></defs></svg>