<svg xmlns="http://www.w3.org/2000/svg" xmlns:xlink="http://www.w3.org/1999/xlink" width="614.4" height="460.8" viewBox="0 0 460.8 345.6"><defs><style>*{stroke-linejoin:round;stroke-linecap:butt}</style></defs><g id="figure_1"><path id="patch_1" d="M0 345.6h460.8V0H0z" style="fill:#282a36"/><g id="axes_1"><path id="patch_2" d="M57.6 307.584h357.12V41.472H57.6z" style="fill:#282a36"/><path id="line2d_1" d="m74.914 346.6.005-51.112 1.085-1.077 1.086-.465 2.172-.436 11.944-1.602 4.343-.903 5.429-1.393 5.429-1.656 5.429-1.892 5.429-2.104 6.515-2.776 6.514-3.023 6.515-3.246 7.6-4.043 7.601-4.295 8.687-5.188 8.686-5.461 8.687-5.712 9.772-6.702 9.772-6.972 10.858-8.039 10.858-8.324 10.858-8.59 11.944-9.733 11.944-10.014 13.03-11.222 13.029-11.514 14.115-12.783 14.116-13.084 15.201-14.408 15.201-14.719 16.287-16.094 16.287-16.413 17.373-17.837 9.772-10.177h0" clip-path="url(#pfa389efd4a)" style="fill:none;stroke:#ffb86c;stroke-width:1.5;stroke-linecap:square"/><g id="matplotlib.axis_1"><g id="xtick_1"><g id="line2d_2"><defs><path id="m7880a41f77" d="M0 0v3.5" style="stroke:#f8f8f2;stroke-width:.8"/></defs><use xlink:href="#m7880a41f77" x="73.833" y="307.584" style="fill:#f8f8f2;stroke:#f8f8f2;stroke-width:.8"/></g><g id="text_1" style="fill:#f8f8f2" transform="matrix(.1 0 0 -.1 65.881 322.182)"><defs><path id="DejaVuSans-30" d="M2034 4250q-487 0-733-480-245-479-245-1442 0-959 245-1439 246-480 733-480 491 0 736 480 246 480 246 1439 0 963-246 1442-245 480-736 480zm0 500q785 0 1199-621 414-620 414-1801 0-1178-414-1799Q2819-91 2034-91q-784 0-1198 620-414 621-414 1799 0 1181 414 1801 414 621 1198 621z" transform="scale(.01563)"/><path id="DejaVuSans-2e" d="M684 794h660V0H684v794z" transform="scale(.01563)"/></defs><use xlink:href="#DejaVuSans-30"/><use xlink:href="#DejaVuSans-2e" x="63.623"/><use xlink:href="#DejaVuSans-30" x="95.41"/></g></g><g id="xtick_2"><use xlink:href="#m7880a41f77" id="line2d_3" x="114.415" y="307.584" style="fill:#f8f8f2;stroke:#f8f8f2;stroke-width:.8"/><g id="text_2" style="fill:#f8f8f2" transform="matrix(.1 0 0 -.1 106.463 322.182)"><defs><path id="DejaVuSans-32" d="M1228 531h2203V0H469v531q359 372 979 998 621 627 780 809 303 340 423 576 121 236 121 464 0 372-261 606-261 235-680 235-297 0-627-103-329-103-704-313v638q381 153 712 231 332 78 607 78 725 0 1156-363 431-362 431-968 0-288-108-546-107-257-392-607-78-91-497-524-418-433-1181-1211z" transform="scale(.01563)"/><path id="DejaVuSans-35" d="M691 4666h2478v-532H1269V2991q137 47 274 70 138 23 276 23 781 0 1237-428 457-428 457-1159 0-753-469-1171Q2575-91 1722-91q-294 0-599 50Q819 9 494 109v635q281-153 581-228t634-75q541 0 856 284 316 284 316 772 0 487-316 771-315 285-856 285-253 0-505-56-251-56-513-175v2344z" transform="scale(.01563)"/></defs><use xlink:href="#DejaVuSans-32"/><use xlink:href="#DejaVuSans-2e" x="63.623"/><use xlink:href="#DejaVuSans-35" x="95.41"/></g></g><g id="xtick_3"><use xlink:href="#m7880a41f77" id="line2d_4" x="154.996" y="307.584" style="fill:#f8f8f2;stroke:#f8f8f2;stroke-width:.8"/><g id="text_3" style="fill:#f8f8f2" transform="matrix(.1 0 0 -.1 147.045 322.182)"><use xlink:href="#DejaVuSans-35"/><use xlink:href="#DejaVuSans-2e" x="63.623"/><use xlink:href="#DejaVuSans-30" x="95.41"/></g></g><g id="xtick_4"><use xlink:href="#m7880a41f77" id="line2d_5" x="195.578" y="307.584" style="fill:#f8f8f2;stroke:#f8f8f2;stroke-width:.8"/><g id="text_4" style="fill:#f8f8f2" transform="matrix(.1 0 0 -.1 187.627 322.182)"><defs><path id="DejaVuSans-37" d="M525 4666h3000v-269L1831 0h-659l1594 4134H525v532z" transform="scale(.01563)"/></defs><use xlink:href="#DejaVuSans-37"/><use xlink:href="#DejaVuSans-2e" x="63.623"/><use xlink:href="#DejaVuSans-35" x="95.41"/></g></g><g id="xtick_5"><use xlink:href="#m7880a41f77" id="line2d_6" x="236.16" y="307.584" style="fill:#f8f8f2;stroke:#f8f8f2;stroke-width:.8"/><g id="text_5" style="fill:#f8f8f2" transform="matrix(.1 0 0 -.1 225.027 322.182)"><defs><path id="DejaVuSans-31" d="M794 531h1031v3560L703 3866v575l1116 225h631V531h1031V0H794v531z" transform="scale(.01563)"/></defs><use xlink:href="#DejaVuSans-31"/><use xlink:href="#DejaVuSans-30" x="63.623"/><use xlink:href="#DejaVuSans-2e" x="127.246"/><use xlink:href="#DejaVuSans-30" x="159.033"/></g></g><g id="xtick_6"><use xlink:href="#m7880a41f77" id="line2d_7" x="276.742" y="307.584" style="fill:#f8f8f2;stroke:#f8f8f2;stroke-width:.8"/><g id="text_6" style="fill:#f8f8f2" transform="matrix(.1 0 0 -.1 265.609 322.182)"><use xlink:href="#DejaVuSans-31"/><use xlink:href="#DejaVuSans-32" x="63.623"/><use xlink:href="#DejaVuSans-2e" x="127.246"/><use xlink:href="#DejaVuSans-35" x="159.033"/></g></g><g id="xtick_7"><use xlink:href="#m7880a41f77" id="line2d_8" x="317.324" y="307.584" style="fill:#f8f8f2;stroke:#f8f8f2;stroke-width:.8"/><g id="text_7" style="fill:#f8f8f2" transform="matrix(.1 0 0 -.1 306.19 322.182)"><use xlink:href="#DejaVuSans-31"/><use xlink:href="#DejaVuSans-35" x="63.623"/><use xlink:href="#DejaVuSans-2e" x="127.246"/><use xlink:href="#DejaVuSans-30" x="159.033"/></g></g><g id="xtick_8"><use xlink:href="#m7880a41f77" id="line2d_9" x="357.905" y="307.584" style="fill:#f8f8f2;stroke:#f8f8f2;stroke-width:.8"/><g id="text_8" style="fill:#f8f8f2" transform="matrix(.1 0 0 -.1 346.773 322.182)"><use xlink:href="#DejaVuSans-31"/><use xlink:href="#DejaVuSans-37" x="63.623"/><use xlink:href="#DejaVuSans-2e" x="127.246"/><use xlink:href="#DejaVuSans-35" x="159.033"/></g></g><g id="xtick_9"><use xlink:href="#m7880a41f77" id="line2d_10" x="398.487" y="307.584" style="fill:#f8f8f2;stroke:#f8f8f2;stroke-width:.8"/><g id="text_9" style="fill:#f8f8f2" transform="matrix(.1 0 0 -.1 387.354 322.182)"><use xlink:href="#DejaVuSans-32"/><use xlink:href="#DejaVuSans-30" x="63.623"/><use xlink:href="#DejaVuSans-2e" x="127.246"/><use xlink:href="#DejaVuSans-30" x="159.033"/></g></g><g id="text_10" style="fill:#f8f8f2" transform="matrix(.1 0 0 -.1 232.991 335.86)"><defs><path id="DejaVuSans-6e" d="M3513 2113V0h-575v2094q0 497-194 743-194 247-581 247-466 0-735-297-269-296-269-809V0H581v3500h578v-544q207 316 486 472 280 156 646 156 603 0 912-373 310-373 310-1098z" transform="scale(.01563)"/></defs><use xlink:href="#DejaVuSans-6e"/></g></g><g id="matplotlib.axis_2"><g id="ytick_1"><g id="line2d_11"><defs><path id="m2565bdb6c4" d="M0 0h-3.5" style="stroke:#f8f8f2;stroke-width:.8"/></defs><use xlink:href="#m2565bdb6c4" x="57.6" y="278.708" style="fill:#f8f8f2;stroke:#f8f8f2;stroke-width:.8"/></g><g id="text_11" style="fill:#f8f8f2" transform="matrix(.1 0 0 -.1 33 282.507)"><use xlink:href="#DejaVuSans-31" transform="translate(0 .684)"/><use xlink:href="#DejaVuSans-30" transform="translate(63.623 .684)"/><use xlink:href="#DejaVuSans-31" transform="matrix(.7 0 0 .7 128.203 38.966)"/></g></g><g id="ytick_2"><use xlink:href="#m2565bdb6c4" id="line2d_12" x="57.6" y="239.859" style="fill:#f8f8f2;stroke:#f8f8f2;stroke-width:.8"/><g id="text_12" style="fill:#f8f8f2" transform="matrix(.1 0 0 -.1 33 243.659)"><defs><path id="DejaVuSans-34" d="M2419 4116 825 1625h1594v2491zm-166 550h794V1625h666v-525h-666V0h-628v1100H313v609l1940 2957z" transform="scale(.01563)"/></defs><use xlink:href="#DejaVuSans-31" transform="translate(0 .684)"/><use xlink:href="#DejaVuSans-30" transform="translate(63.623 .684)"/><use xlink:href="#DejaVuSans-34" transform="matrix(.7 0 0 .7 128.203 38.966)"/></g></g><g id="ytick_3"><use xlink:href="#m2565bdb6c4" id="line2d_13" x="57.6" y="201.011" style="fill:#f8f8f2;stroke:#f8f8f2;stroke-width:.8"/><g id="text_13" style="fill:#f8f8f2" transform="matrix(.1 0 0 -.1 33 204.81)"><use xlink:href="#DejaVuSans-31" transform="translate(0 .684)"/><use xlink:href="#DejaVuSans-30" transform="translate(63.623 .684)"/><use xlink:href="#DejaVuSans-37" transform="matrix(.7 0 0 .7 128.203 38.966)"/></g></g><g id="ytick_4"><use xlink:href="#m2565bdb6c4" id="line2d_14" x="57.6" y="162.163" style="fill:#f8f8f2;stroke:#f8f8f2;stroke-width:.8"/><g id="text_14" style="fill:#f8f8f2" transform="matrix(.1 0 0 -.1 28.5 165.962)"><use xlink:href="#DejaVuSans-31" transform="translate(0 .766)"/><use xlink:href="#DejaVuSans-30" transform="translate(63.623 .766)"/><use xlink:href="#DejaVuSans-31" transform="matrix(.7 0 0 .7 128.203 39.047)"/><use xlink:href="#DejaVuSans-30" transform="matrix(.7 0 0 .7 172.74 39.047)"/></g></g><g id="ytick_5"><use xlink:href="#m2565bdb6c4" id="line2d_15" x="57.6" y="123.315" style="fill:#f8f8f2;stroke:#f8f8f2;stroke-width:.8"/><g id="text_15" style="fill:#f8f8f2" transform="matrix(.1 0 0 -.1 28.5 127.114)"><defs><path id="DejaVuSans-33" d="M2597 2516q453-97 707-404 255-306 255-756 0-690-475-1069Q2609-91 1734-91q-293 0-604 58T488 141v609q262-153 574-231 313-78 654-78 593 0 904 234t311 681q0 413-289 645-289 233-804 233h-544v519h569q465 0 712 186t247 536q0 359-255 551-254 193-729 193-260 0-557-57-297-56-653-174v562q360 100 674 150t592 50q719 0 1137-327 419-326 419-882 0-388-222-655t-631-370z" transform="scale(.01563)"/></defs><use xlink:href="#DejaVuSans-31" transform="translate(0 .766)"/><use xlink:href="#DejaVuSans-30" transform="translate(63.623 .766)"/><use xlink:href="#DejaVuSans-31" transform="matrix(.7 0 0 .7 128.203 39.047)"/><use xlink:href="#DejaVuSans-33" transform="matrix(.7 0 0 .7 172.74 39.047)"/></g></g><g id="ytick_6"><use xlink:href="#m2565bdb6c4" id="line2d_16" x="57.6" y="84.467" style="fill:#f8f8f2;stroke:#f8f8f2;stroke-width:.8"/><g id="text_16" style="fill:#f8f8f2" transform="matrix(.1 0 0 -.1 28.5 88.266)"><defs><path id="DejaVuSans-36" d="M2113 2584q-425 0-674-291-248-290-248-796 0-503 248-796 249-292 674-292t673 292q248 293 248 796 0 506-248 796-248 291-673 291zm1253 1979v-575q-238 112-480 171-242 60-480 60-625 0-955-422-329-422-376-1275 184 272 462 417 279 145 613 145 703 0 1111-427 408-426 408-1160 0-719-425-1154Q2819-91 2113-91q-810 0-1238 620-428 621-428 1799 0 1106 525 1764t1409 658q238 0 480-47t505-140z" transform="scale(.01563)"/></defs><use xlink:href="#DejaVuSans-31" transform="translate(0 .766)"/><use xlink:href="#DejaVuSans-30" transform="translate(63.623 .766)"/><use xlink:href="#DejaVuSans-31" transform="matrix(.7 0 0 .7 128.203 39.047)"/><use xlink:href="#DejaVuSans-36" transform="matrix(.7 0 0 .7 172.74 39.047)"/></g></g><g id="ytick_7"><use xlink:href="#m2565bdb6c4" id="line2d_17" x="57.6" y="45.619" style="fill:#f8f8f2;stroke:#f8f8f2;stroke-width:.8"/><g id="text_17" style="fill:#f8f8f2" transform="matrix(.1 0 0 -.1 28.5 49.418)"><defs><path id="DejaVuSans-39" d="M703 97v575q238-113 481-172 244-59 479-59 625 0 954 420 330 420 377 1277-181-269-460-413-278-144-615-144-700 0-1108 423-408 424-408 1159 0 718 425 1152 425 435 1131 435 810 0 1236-621 427-620 427-1801 0-1103-524-1761Q2575-91 1691-91q-238 0-482 47Q966 3 703 97zm1256 1978q425 0 673 290 249 291 249 798 0 503-249 795-248 292-673 292t-673-292q-248-292-248-795 0-507 248-798 248-290 673-290z" transform="scale(.01563)"/></defs><use xlink:href="#DejaVuSans-31" transform="translate(0 .766)"/><use xlink:href="#DejaVuSans-30" transform="translate(63.623 .766)"/><use xlink:href="#DejaVuSans-31" transform="matrix(.7 0 0 .7 128.203 39.047)"/><use xlink:href="#DejaVuSans-39" transform="matrix(.7 0 0 .7 172.74 39.047)"/></g></g></g><g id="line2d_18"><defs><path id="m6905ce9596" d="M0 3a3 3 0 1 0 0-6 3 3 0 0 0 0 6z" style="stroke:#8be9fd"/></defs><g clip-path="url(#pfa389efd4a)"><use xlink:href="#m6905ce9596" x="73.833" y="291.657" style="fill:#8be9fd;stroke:#8be9fd"/><use xlink:href="#m6905ce9596" x="90.065" y="291.657" style="fill:#8be9fd;stroke:#8be9fd"/><use xlink:href="#m6905ce9596" x="106.298" y="287.759" style="fill:#8be9fd;stroke:#8be9fd"/><use xlink:href="#m6905ce9596" x="122.531" y="281.58" style="fill:#8be9fd;stroke:#8be9fd"/><use xlink:href="#m6905ce9596" x="138.764" y="273.784" style="fill:#8be9fd;stroke:#8be9fd"/><use xlink:href="#m6905ce9596" x="154.996" y="264.733" style="fill:#8be9fd;stroke:#8be9fd"/><use xlink:href="#m6905ce9596" x="171.229" y="254.656" style="fill:#8be9fd;stroke:#8be9fd"/><use xlink:href="#m6905ce9596" x="187.462" y="243.713" style="fill:#8be9fd;stroke:#8be9fd"/><use xlink:href="#m6905ce9596" x="203.695" y="232.018" style="fill:#8be9fd;stroke:#8be9fd"/><use xlink:href="#m6905ce9596" x="219.927" y="219.661" style="fill:#8be9fd;stroke:#8be9fd"/><use xlink:href="#m6905ce9596" x="236.16" y="206.712" style="fill:#8be9fd;stroke:#8be9fd"/><use xlink:href="#m6905ce9596" x="252.393" y="193.227" style="fill:#8be9fd;stroke:#8be9fd"/><use xlink:href="#m6905ce9596" x="268.625" y="179.252" style="fill:#8be9fd;stroke:#8be9fd"/><use xlink:href="#m6905ce9596" x="284.858" y="164.827" style="fill:#8be9fd;stroke:#8be9fd"/><use xlink:href="#m6905ce9596" x="301.091" y="149.985" style="fill:#8be9fd;stroke:#8be9fd"/><use xlink:href="#m6905ce9596" x="317.324" y="134.756" style="fill:#8be9fd;stroke:#8be9fd"/><use xlink:href="#m6905ce9596" x="333.556" y="119.163" style="fill:#8be9fd;stroke:#8be9fd"/><use xlink:href="#m6905ce9596" x="349.789" y="103.23" style="fill:#8be9fd;stroke:#8be9fd"/><use xlink:href="#m6905ce9596" x="366.022" y="86.975" style="fill:#8be9fd;stroke:#8be9fd"/><use xlink:href="#m6905ce9596" x="382.255" y="70.416" style="fill:#8be9fd;stroke:#8be9fd"/><use xlink:href="#m6905ce9596" x="398.487" y="53.568" style="fill:#8be9fd;stroke:#8be9fd"/></g></g><path id="patch_3" d="M57.6 307.584V41.472" style="fill:none;stroke:#f8f8f2;stroke-width:.8;stroke-linejoin:miter;stroke-linecap:square"/><path id="patch_4" d="M414.72 307.584V41.472" style="fill:none;stroke:#f8f8f2;stroke-width:.8;stroke-linejoin:miter;stroke-linecap:square"/><path id="patch_5" d="M57.6 307.584h357.12" style="fill:none;stroke:#f8f8f2;stroke-width:.8;stroke-linejoin:miter;stroke-linecap:square"/><path id="patch_6" d="M57.6 41.472h357.12" style="fill:none;stroke:#f8f8f2;stroke-width:.8;stroke-linejoin:miter;stroke-linecap:square"/><g id="legend_1"><use xlink:href="#m6905ce9596" id="line2d_19" x="76.6" y="54.57" style="fill:#8be9fd;stroke:#8be9fd"/><g id="text_18" style="fill:#f8f8f2" transform="matrix(.1 0 0 -.1 94.6 58.07)"><defs><path id="DejaVuSans-21" d="M966 794h634V0H966v794zm0 3872h634V2619l-62-1116h-507l-65 1116v2047z" transform="scale(.01563)"/></defs><use xlink:href="#DejaVuSans-6e"/><use xlink:href="#DejaVuSans-21" x="63.379"/></g><path id="line2d_20" d="M66.6 69.249h20" style="fill:none;stroke:#ffb86c;stroke-width:1.5;stroke-linecap:square"/><g id="text_19" style="fill:#f8f8f2" transform="matrix(.1 0 0 -.1 94.6 72.749)"><defs><path id="DejaVuSans-53" d="M3425 4513v-616q-359 172-678 256-319 85-616 85-515 0-795-200t-280-569q0-310 186-468 186-157 705-254l381-78q706-135 1042-474t336-907q0-679-455-1029Q2797-91 1919-91q-331 0-705 75-373 75-773 222v650q384-215 753-325 369-109 725-109 540 0 834 212 294 213 294 607 0 343-211 537t-692 291l-385 75q-706 140-1022 440-315 300-315 835 0 619 436 975t1201 356q329 0 669-60 341-59 697-177z" transform="scale(.01563)"/><path id="DejaVuSans-74" d="M1172 4494v-994h1184v-447H1172V1153q0-428 117-550t477-122h590V0h-590q-666 0-919 248-253 249-253 905v1900H172v447h422v994h578z" transform="scale(.01563)"/><path id="DejaVuSans-69" d="M603 3500h575V0H603v3500zm0 1363h575v-729H603v729z" transform="scale(.01563)"/><path id="DejaVuSans-72" d="M2631 2963q-97 56-211 82-114 27-251 27-488 0-749-317t-261-911V0H581v3500h578v-544q182 319 472 473 291 155 707 155 59 0 131-8 72-7 159-23l3-590z" transform="scale(.01563)"/><path id="DejaVuSans-6c" d="M603 4863h575V0H603v4863z" transform="scale(.01563)"/><path id="DejaVuSans-67" d="M2906 1791q0 625-258 968-257 344-723 344-462 0-720-344-258-343-258-968 0-622 258-966t720-344q466 0 723 344 258 344 258 966zm575-1357q0-893-397-1329-396-436-1215-436-303 0-572 45t-522 139v559q253-137 500-202 247-66 503-66 566 0 847 295t281 892v285q-178-310-456-463T1784 0Q1141 0 747 490 353 981 353 1791q0 812 394 1302 394 491 1037 491 388 0 666-153t456-462v531h575V434z" transform="scale(.01563)"/></defs><use xlink:href="#DejaVuSans-53"/><use xlink:href="#DejaVuSans-74" x="63.477"/><use xlink:href="#DejaVuSans-69" x="102.686"/><use xlink:href="#DejaVuSans-72" x="130.469"/><use xlink:href="#DejaVuSans-6c" x="171.582"/><use xlink:href="#DejaVuSans-69" x="199.365"/><use xlink:href="#DejaVuSans-6e" x="227.148"/><use xlink:href="#DejaVuSans-67" x="290.527"/></g></g></g></g><defs><clipPath id="pfa389efd4a"><path d="M57.6 41.472h357.12v266.112H57.6z"/></clipPath></defs></svg>